<svg width="700" height="224" viewBox="0 0 700 224" fill="none" xmlns="http://www.w3.org/2000/svg">
<rect x="233" y="89" width="241" height="46" rx="5" fill="#7DF9FF"/>
<rect y="89" width="151" height="46" rx="5" fill="#7DF9FF"/>
<rect x="544" y="89" width="156" height="46" rx="5" fill="#7DF9FF"/>
<rect x="233" width="241" height="46" rx="5" fill="#7DF9FF"/>
<rect x="233" y="178" width="241" height="46" rx="5" fill="#7DF9FF"/>
<path d="M271.176 104.4V118H268.476V109.8L268.636 106.34L265.316 117.4H263.676L261.156 109.5L260.416 106.32L260.496 109.6V118H258.496V104.4H262.356L264.956 112.66L267.416 104.4H271.176ZM281.716 115.2C281.716 115.627 281.756 115.947 281.836 116.16C281.929 116.373 282.069 116.513 282.256 116.58C282.443 116.647 282.723 116.68 283.096 116.68V117.96C282.723 118.04 282.236 118.08 281.636 118.08C280.876 118.08 280.316 117.947 279.956 117.68C279.609 117.4 279.389 116.947 279.296 116.32H279.136C278.603 117.507 277.629 118.1 276.216 118.1C275.256 118.1 274.536 117.853 274.056 117.36C273.589 116.867 273.356 116.207 273.356 115.38C273.356 114.527 273.589 113.867 274.056 113.4C274.536 112.933 275.156 112.607 275.916 112.42C276.689 112.233 277.683 112.093 278.896 112V111.1C278.896 110.647 278.863 110.293 278.796 110.04C278.729 109.787 278.583 109.6 278.356 109.48C278.143 109.347 277.816 109.28 277.376 109.28C276.709 109.28 276.236 109.42 275.956 109.7C275.676 109.967 275.536 110.347 275.536 110.84C275.536 110.947 275.549 111.12 275.576 111.36H273.876C273.823 111.053 273.796 110.747 273.796 110.44C273.796 109.44 274.149 108.727 274.856 108.3C275.563 107.873 276.603 107.66 277.976 107.66C278.923 107.66 279.663 107.76 280.196 107.96C280.743 108.16 281.129 108.487 281.356 108.94C281.596 109.393 281.716 110.013 281.716 110.8V115.2ZM277.376 116.58C277.789 116.58 278.143 116.407 278.436 116.06C278.743 115.7 278.896 115.2 278.896 114.56V113.04C277.909 113.173 277.223 113.387 276.836 113.68C276.463 113.973 276.276 114.44 276.276 115.08C276.276 116.08 276.643 116.58 277.376 116.58ZM284.625 107.86H287.525V109.98C287.831 109.153 288.245 108.58 288.765 108.26C289.285 107.927 289.931 107.76 290.705 107.76V110.28C290.411 110.253 290.205 110.24 290.085 110.24C289.165 110.24 288.505 110.48 288.105 110.96C287.718 111.44 287.525 112.207 287.525 113.26V118H284.625V107.86ZM295.603 113.3H295.083V118H292.183V103.2H295.083V112.26H295.163C295.39 112.26 295.563 112.227 295.683 112.16C295.803 112.08 295.977 111.887 296.203 111.58L299.063 107.86H301.503L298.123 111.86L301.703 118H298.323L295.603 113.3ZM311.347 113.26H305.227C305.253 114.433 305.447 115.267 305.807 115.76C306.18 116.24 306.747 116.48 307.507 116.48C308.773 116.48 309.467 115.84 309.587 114.56L311.227 114.74C311.133 115.86 310.727 116.72 310.007 117.32C309.287 117.907 308.287 118.2 307.007 118.2C305.567 118.2 304.413 117.793 303.547 116.98C302.693 116.153 302.267 114.847 302.267 113.06C302.267 111.233 302.713 109.88 303.607 109C304.513 108.107 305.687 107.66 307.127 107.66C309.94 107.66 311.347 109.353 311.347 112.74V113.26ZM307.547 111.9C307.907 111.9 308.14 111.84 308.247 111.72C308.353 111.6 308.407 111.4 308.407 111.12C308.407 110.453 308.287 109.947 308.047 109.6C307.807 109.24 307.453 109.06 306.987 109.06C306.467 109.06 306.053 109.293 305.747 109.76C305.44 110.213 305.267 110.927 305.227 111.9H307.547ZM318.493 116.4C318.76 116.4 319.067 116.387 319.413 116.36V117.9C319.093 117.953 318.707 117.993 318.253 118.02C317.813 118.047 317.453 118.06 317.173 118.06C316.053 118.06 315.207 117.8 314.633 117.28C314.06 116.76 313.773 115.86 313.773 114.58V109.6H312.233V107.96H313.773V104.68H316.673V107.96H319.253V109.6H316.673V114.18C316.673 114.793 316.72 115.253 316.813 115.56C316.92 115.867 317.1 116.087 317.353 116.22C317.607 116.34 317.987 116.4 318.493 116.4ZM325.352 104.4H328.332V118H325.352V104.4ZM337.184 111.44C337.184 110.707 337.091 110.213 336.904 109.96C336.718 109.707 336.424 109.58 336.024 109.58C335.438 109.58 334.984 109.833 334.664 110.34C334.358 110.847 334.204 111.52 334.204 112.36V118H331.304V107.86H334.204V109.5C334.538 108.887 334.931 108.44 335.384 108.16C335.851 107.88 336.464 107.74 337.224 107.74C338.224 107.74 338.951 107.98 339.404 108.46C339.871 108.94 340.104 109.68 340.104 110.68V118H337.184V111.44ZM347.729 104.92C347.155 104.92 346.729 105.08 346.449 105.4C346.182 105.72 346.049 106.28 346.049 107.08V107.96H348.469V109.6H346.049V118H343.149V109.6H341.609V107.96H343.149V107.26C343.149 104.513 344.402 103.14 346.909 103.14C347.669 103.14 348.369 103.2 349.009 103.32V105.08C348.502 104.973 348.075 104.92 347.729 104.92ZM349.781 107.86H352.681V109.98C352.988 109.153 353.401 108.58 353.921 108.26C354.441 107.927 355.088 107.76 355.861 107.76V110.28C355.568 110.253 355.361 110.24 355.241 110.24C354.321 110.24 353.661 110.48 353.261 110.96C352.874 111.44 352.681 112.207 352.681 113.26V118H349.781V107.86ZM364.782 115.2C364.782 115.627 364.822 115.947 364.902 116.16C364.996 116.373 365.136 116.513 365.322 116.58C365.509 116.647 365.789 116.68 366.162 116.68V117.96C365.789 118.04 365.302 118.08 364.702 118.08C363.942 118.08 363.382 117.947 363.022 117.68C362.676 117.4 362.456 116.947 362.362 116.32H362.202C361.669 117.507 360.696 118.1 359.282 118.1C358.322 118.1 357.602 117.853 357.122 117.36C356.656 116.867 356.422 116.207 356.422 115.38C356.422 114.527 356.656 113.867 357.122 113.4C357.602 112.933 358.222 112.607 358.982 112.42C359.756 112.233 360.749 112.093 361.962 112V111.1C361.962 110.647 361.929 110.293 361.862 110.04C361.796 109.787 361.649 109.6 361.422 109.48C361.209 109.347 360.882 109.28 360.442 109.28C359.776 109.28 359.302 109.42 359.022 109.7C358.742 109.967 358.602 110.347 358.602 110.84C358.602 110.947 358.616 111.12 358.642 111.36H356.942C356.889 111.053 356.862 110.747 356.862 110.44C356.862 109.44 357.216 108.727 357.922 108.3C358.629 107.873 359.669 107.66 361.042 107.66C361.989 107.66 362.729 107.76 363.262 107.96C363.809 108.16 364.196 108.487 364.422 108.94C364.662 109.393 364.782 110.013 364.782 110.8V115.2ZM360.442 116.58C360.856 116.58 361.209 116.407 361.502 116.06C361.809 115.7 361.962 115.2 361.962 114.56V113.04C360.976 113.173 360.289 113.387 359.902 113.68C359.529 113.973 359.342 114.44 359.342 115.08C359.342 116.08 359.709 116.58 360.442 116.58ZM371.211 109.16C370.651 109.16 370.224 109.26 369.931 109.46C369.651 109.647 369.511 109.913 369.511 110.26C369.511 110.58 369.651 110.833 369.931 111.02C370.224 111.193 370.738 111.373 371.471 111.56C372.351 111.787 373.018 112 373.471 112.2C373.924 112.387 374.298 112.687 374.591 113.1C374.884 113.5 375.031 114.067 375.031 114.8C375.031 115.987 374.664 116.853 373.931 117.4C373.211 117.933 372.204 118.2 370.911 118.2C369.644 118.2 368.664 117.947 367.971 117.44C367.291 116.92 366.951 116.133 366.951 115.08L366.971 114.7H368.611C368.598 114.793 368.591 114.88 368.591 114.96C368.591 116.12 369.304 116.7 370.731 116.7C371.371 116.7 371.838 116.593 372.131 116.38C372.438 116.153 372.591 115.853 372.591 115.48C372.591 115.16 372.471 114.927 372.231 114.78C371.991 114.633 371.518 114.467 370.811 114.28C369.891 114.04 369.178 113.807 368.671 113.58C368.164 113.353 367.771 113.047 367.491 112.66C367.224 112.26 367.091 111.713 367.091 111.02C367.091 109.86 367.438 109.013 368.131 108.48C368.838 107.933 369.818 107.66 371.071 107.66C372.218 107.66 373.118 107.893 373.771 108.36C374.424 108.827 374.751 109.573 374.751 110.6L374.731 110.96H373.111C373.124 110.88 373.131 110.793 373.131 110.7C373.131 109.673 372.491 109.16 371.211 109.16ZM382.146 116.4C382.412 116.4 382.719 116.387 383.066 116.36V117.9C382.746 117.953 382.359 117.993 381.906 118.02C381.466 118.047 381.106 118.06 380.826 118.06C379.706 118.06 378.859 117.8 378.286 117.28C377.712 116.76 377.426 115.86 377.426 114.58V109.6H375.886V107.96H377.426V104.68H380.326V107.96H382.906V109.6H380.326V114.18C380.326 114.793 380.372 115.253 380.466 115.56C380.572 115.867 380.752 116.087 381.006 116.22C381.259 116.34 381.639 116.4 382.146 116.4ZM384.703 107.86H387.603V109.98C387.909 109.153 388.323 108.58 388.843 108.26C389.363 107.927 390.009 107.76 390.783 107.76V110.28C390.489 110.253 390.283 110.24 390.163 110.24C389.243 110.24 388.583 110.48 388.183 110.96C387.796 111.44 387.603 112.207 387.603 113.26V118H384.703V107.86ZM398.041 116.3C397.721 116.927 397.335 117.387 396.881 117.68C396.428 117.973 395.795 118.12 394.981 118.12C393.995 118.12 393.275 117.88 392.821 117.4C392.381 116.92 392.161 116.18 392.161 115.18V107.86H395.061V114.42C395.061 115.14 395.155 115.633 395.341 115.9C395.528 116.153 395.801 116.28 396.161 116.28C396.735 116.28 397.175 116.027 397.481 115.52C397.801 115.013 397.961 114.333 397.961 113.48V107.86H400.861V118H398.401L398.041 116.3ZM411.648 114.46C411.648 115.607 411.308 116.52 410.628 117.2C409.961 117.867 408.981 118.2 407.688 118.2C406.301 118.2 405.181 117.787 404.328 116.96C403.488 116.12 403.068 114.8 403.068 113C403.068 111.12 403.514 109.76 404.408 108.92C405.314 108.08 406.481 107.66 407.908 107.66C409.214 107.66 410.154 107.973 410.728 108.6C411.314 109.227 411.608 110.067 411.608 111.12C411.608 111.333 411.601 111.493 411.588 111.6H409.908C409.921 111.48 409.928 111.367 409.928 111.26C409.928 109.993 409.354 109.36 408.208 109.36C407.448 109.36 406.908 109.66 406.588 110.26C406.268 110.847 406.108 111.72 406.108 112.88C406.108 114.093 406.268 114.993 406.588 115.58C406.921 116.153 407.454 116.44 408.188 116.44C409.361 116.44 409.968 115.713 410.008 114.26L411.648 114.46ZM418.649 116.4C418.916 116.4 419.223 116.387 419.569 116.36V117.9C419.249 117.953 418.863 117.993 418.409 118.02C417.969 118.047 417.609 118.06 417.329 118.06C416.209 118.06 415.363 117.8 414.789 117.28C414.216 116.76 413.929 115.86 413.929 114.58V109.6H412.389V107.96H413.929V104.68H416.829V107.96H419.409V109.6H416.829V114.18C416.829 114.793 416.876 115.253 416.969 115.56C417.076 115.867 417.256 116.087 417.509 116.22C417.763 116.34 418.143 116.4 418.649 116.4ZM426.987 116.3C426.667 116.927 426.28 117.387 425.827 117.68C425.373 117.973 424.74 118.12 423.927 118.12C422.94 118.12 422.22 117.88 421.767 117.4C421.327 116.92 421.107 116.18 421.107 115.18V107.86H424.007V114.42C424.007 115.14 424.1 115.633 424.287 115.9C424.473 116.153 424.747 116.28 425.107 116.28C425.68 116.28 426.12 116.027 426.427 115.52C426.747 115.013 426.907 114.333 426.907 113.48V107.86H429.807V118H427.347L426.987 116.3ZM432.613 107.86H435.513V109.98C435.82 109.153 436.233 108.58 436.753 108.26C437.273 107.927 437.92 107.76 438.693 107.76V110.28C438.4 110.253 438.193 110.24 438.073 110.24C437.153 110.24 436.493 110.48 436.093 110.96C435.706 111.44 435.513 112.207 435.513 113.26V118H432.613V107.86ZM448.417 113.26H442.297C442.324 114.433 442.517 115.267 442.877 115.76C443.25 116.24 443.817 116.48 444.577 116.48C445.844 116.48 446.537 115.84 446.657 114.56L448.297 114.74C448.204 115.86 447.797 116.72 447.077 117.32C446.357 117.907 445.357 118.2 444.077 118.2C442.637 118.2 441.484 117.793 440.617 116.98C439.764 116.153 439.337 114.847 439.337 113.06C439.337 111.233 439.784 109.88 440.677 109C441.584 108.107 442.757 107.66 444.197 107.66C447.01 107.66 448.417 109.353 448.417 112.74V113.26ZM444.617 111.9C444.977 111.9 445.21 111.84 445.317 111.72C445.424 111.6 445.477 111.4 445.477 111.12C445.477 110.453 445.357 109.947 445.117 109.6C444.877 109.24 444.524 109.06 444.057 109.06C443.537 109.06 443.124 109.293 442.817 109.76C442.51 110.213 442.337 110.927 442.297 111.9H444.617Z" fill="#284B4B"/>
<path d="M593.498 106.76C593.138 106.253 592.445 106 591.418 106C590.698 106 590.145 106.153 589.758 106.46C589.371 106.753 589.178 107.187 589.178 107.76C589.178 108.16 589.278 108.48 589.478 108.72C589.691 108.947 589.958 109.127 590.278 109.26C590.611 109.38 591.151 109.547 591.898 109.76C592.858 110.013 593.625 110.28 594.198 110.56C594.785 110.84 595.245 111.247 595.578 111.78C595.925 112.3 596.098 113 596.098 113.88C596.098 115.347 595.645 116.433 594.738 117.14C593.831 117.847 592.618 118.2 591.098 118.2C589.565 118.2 588.365 117.853 587.498 117.16C586.645 116.467 586.218 115.46 586.218 114.14C586.218 114.02 586.231 113.813 586.258 113.52H588.038C587.985 114.293 588.178 114.967 588.618 115.54C589.058 116.113 589.818 116.4 590.898 116.4C591.658 116.4 592.238 116.24 592.638 115.92C593.051 115.6 593.258 115.14 593.258 114.54C593.258 114.1 593.151 113.76 592.938 113.52C592.725 113.267 592.458 113.08 592.138 112.96C591.818 112.84 591.338 112.7 590.698 112.54C589.725 112.3 588.945 112.04 588.358 111.76C587.771 111.48 587.298 111.08 586.938 110.56C586.578 110.027 586.398 109.313 586.398 108.42C586.398 107.007 586.831 105.953 587.698 105.26C588.578 104.553 589.731 104.2 591.158 104.2C592.585 104.2 593.705 104.533 594.518 105.2C595.331 105.867 595.738 106.847 595.738 108.14C595.738 108.34 595.731 108.493 595.718 108.6H593.938C593.951 108.507 593.958 108.413 593.958 108.32C593.958 107.733 593.805 107.213 593.498 106.76ZM606.859 113.26H600.739C600.765 114.433 600.959 115.267 601.319 115.76C601.692 116.24 602.259 116.48 603.019 116.48C604.285 116.48 604.979 115.84 605.099 114.56L606.739 114.74C606.645 115.86 606.239 116.72 605.519 117.32C604.799 117.907 603.799 118.2 602.519 118.2C601.079 118.2 599.925 117.793 599.059 116.98C598.205 116.153 597.779 114.847 597.779 113.06C597.779 111.233 598.225 109.88 599.119 109C600.025 108.107 601.199 107.66 602.639 107.66C605.452 107.66 606.859 109.353 606.859 112.74V113.26ZM603.059 111.9C603.419 111.9 603.652 111.84 603.759 111.72C603.865 111.6 603.919 111.4 603.919 111.12C603.919 110.453 603.799 109.947 603.559 109.6C603.319 109.24 602.965 109.06 602.499 109.06C601.979 109.06 601.565 109.293 601.259 109.76C600.952 110.213 600.779 110.927 600.739 111.9H603.059ZM609.082 103.2H611.982V118H609.082V103.2ZM614.765 103.2H617.665V118H614.765V103.2ZM631.31 106.76C630.95 106.253 630.257 106 629.23 106C628.51 106 627.957 106.153 627.57 106.46C627.184 106.753 626.99 107.187 626.99 107.76C626.99 108.16 627.09 108.48 627.29 108.72C627.504 108.947 627.77 109.127 628.09 109.26C628.424 109.38 628.964 109.547 629.71 109.76C630.67 110.013 631.437 110.28 632.01 110.56C632.597 110.84 633.057 111.247 633.39 111.78C633.737 112.3 633.91 113 633.91 113.88C633.91 115.347 633.457 116.433 632.55 117.14C631.644 117.847 630.43 118.2 628.91 118.2C627.377 118.2 626.177 117.853 625.31 117.16C624.457 116.467 624.03 115.46 624.03 114.14C624.03 114.02 624.044 113.813 624.07 113.52H625.85C625.797 114.293 625.99 114.967 626.43 115.54C626.87 116.113 627.63 116.4 628.71 116.4C629.47 116.4 630.05 116.24 630.45 115.92C630.864 115.6 631.07 115.14 631.07 114.54C631.07 114.1 630.964 113.76 630.75 113.52C630.537 113.267 630.27 113.08 629.95 112.96C629.63 112.84 629.15 112.7 628.51 112.54C627.537 112.3 626.757 112.04 626.17 111.76C625.584 111.48 625.11 111.08 624.75 110.56C624.39 110.027 624.21 109.313 624.21 108.42C624.21 107.007 624.644 105.953 625.51 105.26C626.39 104.553 627.544 104.2 628.97 104.2C630.397 104.2 631.517 104.533 632.33 105.2C633.144 105.867 633.55 106.847 633.55 108.14C633.55 108.34 633.544 108.493 633.53 108.6H631.75C631.764 108.507 631.77 108.413 631.77 108.32C631.77 107.733 631.617 107.213 631.31 106.76ZM636.191 103.2H639.091V106.28H636.191V103.2ZM636.191 107.86H639.091V118H636.191V107.86ZM647.934 116.2C647.641 116.853 647.261 117.34 646.794 117.66C646.341 117.967 645.794 118.12 645.154 118.12C643.901 118.12 642.941 117.72 642.274 116.92C641.621 116.12 641.294 114.853 641.294 113.12C641.294 111.267 641.661 109.907 642.394 109.04C643.127 108.173 644.094 107.74 645.294 107.74C645.947 107.74 646.454 107.873 646.814 108.14C647.187 108.407 647.514 108.84 647.794 109.44V103.2H650.694V118H648.514L647.934 116.2ZM647.794 112.88C647.794 111.84 647.647 111.007 647.354 110.38C647.061 109.753 646.607 109.44 645.994 109.44C645.421 109.44 644.994 109.733 644.714 110.32C644.447 110.907 644.314 111.807 644.314 113.02C644.314 114.18 644.434 115.04 644.674 115.6C644.927 116.147 645.341 116.42 645.914 116.42C646.527 116.42 646.994 116.107 647.314 115.48C647.634 114.84 647.794 113.973 647.794 112.88ZM661.976 113.26H655.856C655.882 114.433 656.076 115.267 656.436 115.76C656.809 116.24 657.376 116.48 658.136 116.48C659.402 116.48 660.096 115.84 660.216 114.56L661.856 114.74C661.762 115.86 661.356 116.72 660.636 117.32C659.916 117.907 658.916 118.2 657.636 118.2C656.196 118.2 655.042 117.793 654.176 116.98C653.322 116.153 652.896 114.847 652.896 113.06C652.896 111.233 653.342 109.88 654.236 109C655.142 108.107 656.316 107.66 657.756 107.66C660.569 107.66 661.976 109.353 661.976 112.74V113.26ZM658.176 111.9C658.536 111.9 658.769 111.84 658.876 111.72C658.982 111.6 659.036 111.4 659.036 111.12C659.036 110.453 658.916 109.947 658.676 109.6C658.436 109.24 658.082 109.06 657.616 109.06C657.096 109.06 656.682 109.293 656.376 109.76C656.069 110.213 655.896 110.927 655.856 111.9H658.176Z" fill="#284B4B"/>
<path d="M43.4979 106.76C43.1379 106.253 42.4446 106 41.4179 106C40.6979 106 40.1446 106.153 39.7579 106.46C39.3712 106.753 39.1779 107.187 39.1779 107.76C39.1779 108.16 39.2779 108.48 39.4779 108.72C39.6912 108.947 39.9579 109.127 40.2779 109.26C40.6112 109.38 41.1512 109.547 41.8979 109.76C42.8579 110.013 43.6246 110.28 44.1979 110.56C44.7846 110.84 45.2446 111.247 45.5779 111.78C45.9246 112.3 46.0979 113 46.0979 113.88C46.0979 115.347 45.6446 116.433 44.7379 117.14C43.8312 117.847 42.6179 118.2 41.0979 118.2C39.5646 118.2 38.3646 117.853 37.4979 117.16C36.6446 116.467 36.2179 115.46 36.2179 114.14C36.2179 114.02 36.2312 113.813 36.2579 113.52H38.0379C37.9846 114.293 38.1779 114.967 38.6179 115.54C39.0579 116.113 39.8179 116.4 40.8979 116.4C41.6579 116.4 42.2379 116.24 42.6379 115.92C43.0512 115.6 43.2579 115.14 43.2579 114.54C43.2579 114.1 43.1512 113.76 42.9379 113.52C42.7246 113.267 42.4579 113.08 42.1379 112.96C41.8179 112.84 41.3379 112.7 40.6979 112.54C39.7246 112.3 38.9446 112.04 38.3579 111.76C37.7712 111.48 37.2979 111.08 36.9379 110.56C36.5779 110.027 36.3979 109.313 36.3979 108.42C36.3979 107.007 36.8312 105.953 37.6979 105.26C38.5779 104.553 39.7312 104.2 41.1579 104.2C42.5846 104.2 43.7046 104.533 44.5179 105.2C45.3312 105.867 45.7379 106.847 45.7379 108.14C45.7379 108.34 45.7312 108.493 45.7179 108.6H43.9379C43.9512 108.507 43.9579 108.413 43.9579 108.32C43.9579 107.733 43.8046 107.213 43.4979 106.76ZM56.8585 113.26H50.7385C50.7652 114.433 50.9585 115.267 51.3185 115.76C51.6918 116.24 52.2585 116.48 53.0185 116.48C54.2852 116.48 54.9785 115.84 55.0985 114.56L56.7385 114.74C56.6452 115.86 56.2385 116.72 55.5185 117.32C54.7985 117.907 53.7985 118.2 52.5185 118.2C51.0785 118.2 49.9252 117.793 49.0585 116.98C48.2052 116.153 47.7785 114.847 47.7785 113.06C47.7785 111.233 48.2252 109.88 49.1185 109C50.0252 108.107 51.1985 107.66 52.6385 107.66C55.4518 107.66 56.8585 109.353 56.8585 112.74V113.26ZM53.0585 111.9C53.4185 111.9 53.6518 111.84 53.7585 111.72C53.8652 111.6 53.9185 111.4 53.9185 111.12C53.9185 110.453 53.7985 109.947 53.5585 109.6C53.3185 109.24 52.9652 109.06 52.4985 109.06C51.9785 109.06 51.5652 109.293 51.2585 109.76C50.9518 110.213 50.7785 110.927 50.7385 111.9H53.0585ZM59.0816 103.2H61.9816V118H59.0816V103.2ZM64.7652 103.2H67.6652V118H64.7652V103.2ZM81.3104 106.76C80.9504 106.253 80.2571 106 79.2304 106C78.5104 106 77.9571 106.153 77.5704 106.46C77.1837 106.753 76.9904 107.187 76.9904 107.76C76.9904 108.16 77.0904 108.48 77.2904 108.72C77.5037 108.947 77.7704 109.127 78.0904 109.26C78.4237 109.38 78.9637 109.547 79.7104 109.76C80.6704 110.013 81.4371 110.28 82.0104 110.56C82.5971 110.84 83.0571 111.247 83.3904 111.78C83.7371 112.3 83.9104 113 83.9104 113.88C83.9104 115.347 83.4571 116.433 82.5504 117.14C81.6437 117.847 80.4304 118.2 78.9104 118.2C77.3771 118.2 76.1771 117.853 75.3104 117.16C74.4571 116.467 74.0304 115.46 74.0304 114.14C74.0304 114.02 74.0437 113.813 74.0704 113.52H75.8504C75.7971 114.293 75.9904 114.967 76.4304 115.54C76.8704 116.113 77.6304 116.4 78.7104 116.4C79.4704 116.4 80.0504 116.24 80.4504 115.92C80.8637 115.6 81.0704 115.14 81.0704 114.54C81.0704 114.1 80.9637 113.76 80.7504 113.52C80.5371 113.267 80.2704 113.08 79.9504 112.96C79.6304 112.84 79.1504 112.7 78.5104 112.54C77.5371 112.3 76.7571 112.04 76.1704 111.76C75.5837 111.48 75.1104 111.08 74.7504 110.56C74.3904 110.027 74.2104 109.313 74.2104 108.42C74.2104 107.007 74.6437 105.953 75.5104 105.26C76.3904 104.553 77.5437 104.2 78.9704 104.2C80.3971 104.2 81.5171 104.533 82.3304 105.2C83.1437 105.867 83.5504 106.847 83.5504 108.14C83.5504 108.34 83.5437 108.493 83.5304 108.6H81.7504C81.7637 108.507 81.7704 108.413 81.7704 108.32C81.7704 107.733 81.6171 107.213 81.3104 106.76ZM86.191 103.2H89.091V106.28H86.191V103.2ZM86.191 107.86H89.091V118H86.191V107.86ZM97.9341 116.2C97.6408 116.853 97.2608 117.34 96.7941 117.66C96.3408 117.967 95.7941 118.12 95.1541 118.12C93.9008 118.12 92.9408 117.72 92.2741 116.92C91.6208 116.12 91.2941 114.853 91.2941 113.12C91.2941 111.267 91.6608 109.907 92.3941 109.04C93.1275 108.173 94.0941 107.74 95.2941 107.74C95.9475 107.74 96.4541 107.873 96.8141 108.14C97.1875 108.407 97.5141 108.84 97.7941 109.44V103.2H100.694V118H98.5141L97.9341 116.2ZM97.7941 112.88C97.7941 111.84 97.6475 111.007 97.3541 110.38C97.0608 109.753 96.6075 109.44 95.9941 109.44C95.4208 109.44 94.9941 109.733 94.7141 110.32C94.4475 110.907 94.3141 111.807 94.3141 113.02C94.3141 114.18 94.4341 115.04 94.6741 115.6C94.9275 116.147 95.3408 116.42 95.9141 116.42C96.5275 116.42 96.9941 116.107 97.3141 115.48C97.6341 114.84 97.7941 113.973 97.7941 112.88ZM111.976 113.26H105.856C105.882 114.433 106.076 115.267 106.436 115.76C106.809 116.24 107.376 116.48 108.136 116.48C109.402 116.48 110.096 115.84 110.216 114.56L111.856 114.74C111.762 115.86 111.356 116.72 110.636 117.32C109.916 117.907 108.916 118.2 107.636 118.2C106.196 118.2 105.042 117.793 104.176 116.98C103.322 116.153 102.896 114.847 102.896 113.06C102.896 111.233 103.342 109.88 104.236 109C105.142 108.107 106.316 107.66 107.756 107.66C110.569 107.66 111.976 109.353 111.976 112.74V113.26ZM108.176 111.9C108.536 111.9 108.769 111.84 108.876 111.72C108.982 111.6 109.036 111.4 109.036 111.12C109.036 110.453 108.916 109.947 108.676 109.6C108.436 109.24 108.082 109.06 107.616 109.06C107.096 109.06 106.682 109.293 106.376 109.76C106.069 110.213 105.896 110.927 105.856 111.9H108.176Z" fill="#284B4B"/>
<path d="M318.239 15.84C318.865 16.1333 319.352 16.6067 319.699 17.26C320.059 17.9 320.239 18.6333 320.239 19.46C320.239 20.82 319.785 21.8533 318.879 22.56C317.985 23.2667 316.819 23.62 315.379 23.62H313.879V29H310.899V15.4H315.339C316.672 15.4 317.639 15.5467 318.239 15.84ZM315.159 21.78C316.519 21.78 317.199 20.96 317.199 19.32C317.199 18.44 316.992 17.8333 316.579 17.5C316.285 17.2867 315.865 17.18 315.319 17.18H313.879V21.78H315.159ZM329.255 26.2C329.255 26.6267 329.295 26.9467 329.375 27.16C329.468 27.3733 329.608 27.5133 329.795 27.58C329.982 27.6467 330.262 27.68 330.635 27.68V28.96C330.262 29.04 329.775 29.08 329.175 29.08C328.415 29.08 327.855 28.9467 327.495 28.68C327.148 28.4 326.928 27.9467 326.835 27.32H326.675C326.142 28.5067 325.168 29.1 323.755 29.1C322.795 29.1 322.075 28.8533 321.595 28.36C321.128 27.8667 320.895 27.2067 320.895 26.38C320.895 25.5267 321.128 24.8667 321.595 24.4C322.075 23.9333 322.695 23.6067 323.455 23.42C324.228 23.2333 325.222 23.0933 326.435 23V22.1C326.435 21.6467 326.402 21.2933 326.335 21.04C326.268 20.7867 326.122 20.6 325.895 20.48C325.682 20.3467 325.355 20.28 324.915 20.28C324.248 20.28 323.775 20.42 323.495 20.7C323.215 20.9667 323.075 21.3467 323.075 21.84C323.075 21.9467 323.088 22.12 323.115 22.36H321.415C321.362 22.0533 321.335 21.7467 321.335 21.44C321.335 20.44 321.688 19.7267 322.395 19.3C323.102 18.8733 324.142 18.66 325.515 18.66C326.462 18.66 327.202 18.76 327.735 18.96C328.282 19.16 328.668 19.4867 328.895 19.94C329.135 20.3933 329.255 21.0133 329.255 21.8V26.2ZM324.915 27.58C325.328 27.58 325.682 27.4067 325.975 27.06C326.282 26.7 326.435 26.2 326.435 25.56V24.04C325.448 24.1733 324.762 24.3867 324.375 24.68C324.002 24.9733 323.815 25.44 323.815 26.08C323.815 27.08 324.182 27.58 324.915 27.58ZM340.309 18.86L334.989 33.64H332.549C333.216 32.2533 333.729 31.0467 334.089 30.02C334.183 29.7533 334.229 29.48 334.229 29.2C334.229 28.8267 334.123 28.36 333.909 27.8L330.549 18.86H333.669L335.389 23.58L335.969 25.88L336.529 23.58L338.189 18.86H340.309ZM353.494 18.74C354.494 18.74 355.214 18.98 355.654 19.46C356.107 19.94 356.334 20.68 356.334 21.68V29H353.414V22.44C353.414 21.7067 353.32 21.2133 353.134 20.96C352.96 20.7067 352.68 20.58 352.294 20.58C351.72 20.58 351.274 20.8333 350.954 21.34C350.647 21.8333 350.494 22.5067 350.494 23.36V29H347.574V22.28C347.574 21.7867 347.527 21.42 347.434 21.18C347.354 20.9267 347.234 20.7667 347.074 20.7C346.927 20.62 346.72 20.58 346.454 20.58C345.88 20.58 345.434 20.8333 345.114 21.34C344.807 21.8467 344.654 22.52 344.654 23.36V29H341.754V18.86H344.654V20.5C344.987 19.9 345.38 19.46 345.834 19.18C346.3 18.8867 346.9 18.74 347.634 18.74C348.434 18.74 349.054 18.8933 349.494 19.2C349.934 19.5067 350.227 19.9667 350.374 20.58C350.774 19.9267 351.214 19.46 351.694 19.18C352.187 18.8867 352.787 18.74 353.494 18.74ZM367.519 24.26H361.399C361.425 25.4333 361.619 26.2667 361.979 26.76C362.352 27.24 362.919 27.48 363.679 27.48C364.945 27.48 365.639 26.84 365.759 25.56L367.399 25.74C367.305 26.86 366.899 27.72 366.179 28.32C365.459 28.9067 364.459 29.2 363.179 29.2C361.739 29.2 360.585 28.7933 359.719 27.98C358.865 27.1533 358.439 25.8467 358.439 24.06C358.439 22.2333 358.885 20.88 359.779 20C360.685 19.1067 361.859 18.66 363.299 18.66C366.112 18.66 367.519 20.3533 367.519 23.74V24.26ZM363.719 22.9C364.079 22.9 364.312 22.84 364.419 22.72C364.525 22.6 364.579 22.4 364.579 22.12C364.579 21.4533 364.459 20.9467 364.219 20.6C363.979 20.24 363.625 20.06 363.159 20.06C362.639 20.06 362.225 20.2933 361.919 20.76C361.612 21.2133 361.439 21.9267 361.399 22.9H363.719ZM375.485 22.44C375.485 21.7067 375.392 21.2133 375.205 20.96C375.018 20.7067 374.725 20.58 374.325 20.58C373.738 20.58 373.285 20.8333 372.965 21.34C372.658 21.8467 372.505 22.52 372.505 23.36V29H369.605V18.86H372.505V20.5C372.838 19.8867 373.232 19.44 373.685 19.16C374.152 18.88 374.765 18.74 375.525 18.74C376.525 18.74 377.252 18.98 377.705 19.46C378.172 19.94 378.405 20.68 378.405 21.68V29H375.485V22.44ZM386.149 27.4C386.416 27.4 386.723 27.3867 387.069 27.36V28.9C386.749 28.9533 386.363 28.9933 385.909 29.02C385.469 29.0467 385.109 29.06 384.829 29.06C383.709 29.06 382.863 28.8 382.289 28.28C381.716 27.76 381.429 26.86 381.429 25.58V20.6H379.889V18.96H381.429V15.68H384.329V18.96H386.909V20.6H384.329V25.18C384.329 25.7933 384.376 26.2533 384.469 26.56C384.576 26.8667 384.756 27.0867 385.009 27.22C385.263 27.34 385.643 27.4 386.149 27.4ZM392.227 20.16C391.667 20.16 391.24 20.26 390.947 20.46C390.667 20.6467 390.527 20.9133 390.527 21.26C390.527 21.58 390.667 21.8333 390.947 22.02C391.24 22.1933 391.753 22.3733 392.487 22.56C393.367 22.7867 394.033 23 394.487 23.2C394.94 23.3867 395.313 23.6867 395.607 24.1C395.9 24.5 396.047 25.0667 396.047 25.8C396.047 26.9867 395.68 27.8533 394.947 28.4C394.227 28.9333 393.22 29.2 391.927 29.2C390.66 29.2 389.68 28.9467 388.987 28.44C388.307 27.92 387.967 27.1333 387.967 26.08L387.987 25.7H389.627C389.613 25.7933 389.607 25.88 389.607 25.96C389.607 27.12 390.32 27.7 391.747 27.7C392.387 27.7 392.853 27.5933 393.147 27.38C393.453 27.1533 393.607 26.8533 393.607 26.48C393.607 26.16 393.487 25.9267 393.247 25.78C393.007 25.6333 392.533 25.4667 391.827 25.28C390.907 25.04 390.193 24.8067 389.687 24.58C389.18 24.3533 388.787 24.0467 388.507 23.66C388.24 23.26 388.107 22.7133 388.107 22.02C388.107 20.86 388.453 20.0133 389.147 19.48C389.853 18.9333 390.833 18.66 392.087 18.66C393.233 18.66 394.133 18.8933 394.787 19.36C395.44 19.8267 395.767 20.5733 395.767 21.6L395.747 21.96H394.127C394.14 21.88 394.147 21.7933 394.147 21.7C394.147 20.6733 393.507 20.16 392.227 20.16Z" fill="#284B4B"/>
<path d="M318.239 193.84C318.865 194.133 319.352 194.607 319.699 195.26C320.059 195.9 320.239 196.633 320.239 197.46C320.239 198.82 319.785 199.853 318.879 200.56C317.985 201.267 316.819 201.62 315.379 201.62H313.879V207H310.899V193.4H315.339C316.672 193.4 317.639 193.547 318.239 193.84ZM315.159 199.78C316.519 199.78 317.199 198.96 317.199 197.32C317.199 196.44 316.992 195.833 316.579 195.5C316.285 195.287 315.865 195.18 315.319 195.18H313.879V199.78H315.159ZM329.255 204.2C329.255 204.627 329.295 204.947 329.375 205.16C329.468 205.373 329.608 205.513 329.795 205.58C329.982 205.647 330.262 205.68 330.635 205.68V206.96C330.262 207.04 329.775 207.08 329.175 207.08C328.415 207.08 327.855 206.947 327.495 206.68C327.148 206.4 326.928 205.947 326.835 205.32H326.675C326.142 206.507 325.168 207.1 323.755 207.1C322.795 207.1 322.075 206.853 321.595 206.36C321.128 205.867 320.895 205.207 320.895 204.38C320.895 203.527 321.128 202.867 321.595 202.4C322.075 201.933 322.695 201.607 323.455 201.42C324.228 201.233 325.222 201.093 326.435 201V200.1C326.435 199.647 326.402 199.293 326.335 199.04C326.268 198.787 326.122 198.6 325.895 198.48C325.682 198.347 325.355 198.28 324.915 198.28C324.248 198.28 323.775 198.42 323.495 198.7C323.215 198.967 323.075 199.347 323.075 199.84C323.075 199.947 323.088 200.12 323.115 200.36H321.415C321.362 200.053 321.335 199.747 321.335 199.44C321.335 198.44 321.688 197.727 322.395 197.3C323.102 196.873 324.142 196.66 325.515 196.66C326.462 196.66 327.202 196.76 327.735 196.96C328.282 197.16 328.668 197.487 328.895 197.94C329.135 198.393 329.255 199.013 329.255 199.8V204.2ZM324.915 205.58C325.328 205.58 325.682 205.407 325.975 205.06C326.282 204.7 326.435 204.2 326.435 203.56V202.04C325.448 202.173 324.762 202.387 324.375 202.68C324.002 202.973 323.815 203.44 323.815 204.08C323.815 205.08 324.182 205.58 324.915 205.58ZM340.309 196.86L334.989 211.64H332.549C333.216 210.253 333.729 209.047 334.089 208.02C334.183 207.753 334.229 207.48 334.229 207.2C334.229 206.827 334.123 206.36 333.909 205.8L330.549 196.86H333.669L335.389 201.58L335.969 203.88L336.529 201.58L338.189 196.86H340.309ZM353.494 196.74C354.494 196.74 355.214 196.98 355.654 197.46C356.107 197.94 356.334 198.68 356.334 199.68V207H353.414V200.44C353.414 199.707 353.32 199.213 353.134 198.96C352.96 198.707 352.68 198.58 352.294 198.58C351.72 198.58 351.274 198.833 350.954 199.34C350.647 199.833 350.494 200.507 350.494 201.36V207H347.574V200.28C347.574 199.787 347.527 199.42 347.434 199.18C347.354 198.927 347.234 198.767 347.074 198.7C346.927 198.62 346.72 198.58 346.454 198.58C345.88 198.58 345.434 198.833 345.114 199.34C344.807 199.847 344.654 200.52 344.654 201.36V207H341.754V196.86H344.654V198.5C344.987 197.9 345.38 197.46 345.834 197.18C346.3 196.887 346.9 196.74 347.634 196.74C348.434 196.74 349.054 196.893 349.494 197.2C349.934 197.507 350.227 197.967 350.374 198.58C350.774 197.927 351.214 197.46 351.694 197.18C352.187 196.887 352.787 196.74 353.494 196.74ZM367.519 202.26H361.399C361.425 203.433 361.619 204.267 361.979 204.76C362.352 205.24 362.919 205.48 363.679 205.48C364.945 205.48 365.639 204.84 365.759 203.56L367.399 203.74C367.305 204.86 366.899 205.72 366.179 206.32C365.459 206.907 364.459 207.2 363.179 207.2C361.739 207.2 360.585 206.793 359.719 205.98C358.865 205.153 358.439 203.847 358.439 202.06C358.439 200.233 358.885 198.88 359.779 198C360.685 197.107 361.859 196.66 363.299 196.66C366.112 196.66 367.519 198.353 367.519 201.74V202.26ZM363.719 200.9C364.079 200.9 364.312 200.84 364.419 200.72C364.525 200.6 364.579 200.4 364.579 200.12C364.579 199.453 364.459 198.947 364.219 198.6C363.979 198.24 363.625 198.06 363.159 198.06C362.639 198.06 362.225 198.293 361.919 198.76C361.612 199.213 361.439 199.927 361.399 200.9H363.719ZM375.485 200.44C375.485 199.707 375.392 199.213 375.205 198.96C375.018 198.707 374.725 198.58 374.325 198.58C373.738 198.58 373.285 198.833 372.965 199.34C372.658 199.847 372.505 200.52 372.505 201.36V207H369.605V196.86H372.505V198.5C372.838 197.887 373.232 197.44 373.685 197.16C374.152 196.88 374.765 196.74 375.525 196.74C376.525 196.74 377.252 196.98 377.705 197.46C378.172 197.94 378.405 198.68 378.405 199.68V207H375.485V200.44ZM386.149 205.4C386.416 205.4 386.723 205.387 387.069 205.36V206.9C386.749 206.953 386.363 206.993 385.909 207.02C385.469 207.047 385.109 207.06 384.829 207.06C383.709 207.06 382.863 206.8 382.289 206.28C381.716 205.76 381.429 204.86 381.429 203.58V198.6H379.889V196.96H381.429V193.68H384.329V196.96H386.909V198.6H384.329V203.18C384.329 203.793 384.376 204.253 384.469 204.56C384.576 204.867 384.756 205.087 385.009 205.22C385.263 205.34 385.643 205.4 386.149 205.4ZM392.227 198.16C391.667 198.16 391.24 198.26 390.947 198.46C390.667 198.647 390.527 198.913 390.527 199.26C390.527 199.58 390.667 199.833 390.947 200.02C391.24 200.193 391.753 200.373 392.487 200.56C393.367 200.787 394.033 201 394.487 201.2C394.94 201.387 395.313 201.687 395.607 202.1C395.9 202.5 396.047 203.067 396.047 203.8C396.047 204.987 395.68 205.853 394.947 206.4C394.227 206.933 393.22 207.2 391.927 207.2C390.66 207.2 389.68 206.947 388.987 206.44C388.307 205.92 387.967 205.133 387.967 204.08L387.987 203.7H389.627C389.613 203.793 389.607 203.88 389.607 203.96C389.607 205.12 390.32 205.7 391.747 205.7C392.387 205.7 392.853 205.593 393.147 205.38C393.453 205.153 393.607 204.853 393.607 204.48C393.607 204.16 393.487 203.927 393.247 203.78C393.007 203.633 392.533 203.467 391.827 203.28C390.907 203.04 390.193 202.807 389.687 202.58C389.18 202.353 388.787 202.047 388.507 201.66C388.24 201.26 388.107 200.713 388.107 200.02C388.107 198.86 388.453 198.013 389.147 197.48C389.853 196.933 390.833 196.66 392.087 196.66C393.233 196.66 394.133 196.893 394.787 197.36C395.44 197.827 395.767 198.573 395.767 199.6L395.747 199.96H394.127C394.14 199.88 394.147 199.793 394.147 199.7C394.147 198.673 393.507 198.16 392.227 198.16Z" fill="#284B4B"/>
<path d="M149.293 110.293C148.902 110.683 148.902 111.317 149.293 111.707L155.657 118.071C156.047 118.462 156.681 118.462 157.071 118.071C157.462 117.681 157.462 117.047 157.071 116.657L151.414 111L157.071 105.343C157.462 104.953 157.462 104.319 157.071 103.929C156.681 103.538 156.047 103.538 155.657 103.929L149.293 110.293ZM233.707 111.707C234.098 111.317 234.098 110.683 233.707 110.293L227.343 103.929C226.953 103.538 226.319 103.538 225.929 103.929C225.538 104.319 225.538 104.953 225.929 105.343L231.586 111L225.929 116.657C225.538 117.047 225.538 117.681 225.929 118.071C226.319 118.462 226.953 118.462 227.343 118.071L233.707 111.707ZM150 112H233V110H150V112Z" fill="#7DF9FF"/>
<path d="M474.293 109.293C473.902 109.683 473.902 110.317 474.293 110.707L480.657 117.071C481.047 117.462 481.681 117.462 482.071 117.071C482.462 116.681 482.462 116.047 482.071 115.657L476.414 110L482.071 104.343C482.462 103.953 482.462 103.319 482.071 102.929C481.681 102.538 481.047 102.538 480.657 102.929L474.293 109.293ZM544.707 110.707C545.098 110.317 545.098 109.683 544.707 109.293L538.343 102.929C537.953 102.538 537.319 102.538 536.929 102.929C536.538 103.319 536.538 103.953 536.929 104.343L542.586 110L536.929 115.657C536.538 116.047 536.538 116.681 536.929 117.071C537.319 117.462 537.953 117.462 538.343 117.071L544.707 110.707ZM475 111H544V109H475V111Z" fill="#7DF9FF"/>
<path d="M75.8536 136.646C75.6583 136.451 75.3417 136.451 75.1464 136.646L71.9645 139.828C71.7692 140.024 71.7692 140.34 71.9645 140.536C72.1597 140.731 72.4763 140.731 72.6716 140.536L75.5 137.707L78.3284 140.536C78.5237 140.731 78.8403 140.731 79.0355 140.536C79.2308 140.34 79.2308 140.024 79.0355 139.828L75.8536 136.646ZM75 137L75 201L76 201L76 137L75 137Z" fill="#7DF9FF"/>
<path d="M74.6464 87.3536C74.8417 87.5488 75.1583 87.5488 75.3536 87.3536L78.5355 84.1716C78.7308 83.9763 78.7308 83.6597 78.5355 83.4645C78.3403 83.2692 78.0237 83.2692 77.8284 83.4645L75 86.2929L72.1716 83.4645C71.9763 83.2692 71.6597 83.2692 71.4645 83.4645C71.2692 83.6597 71.2692 83.9763 71.4645 84.1716L74.6464 87.3536ZM74.5 23L74.5 87L75.5 87L75.5 23L74.5 23Z" fill="#7DF9FF"/>
<path d="M634.646 86.3536C634.842 86.5488 635.158 86.5488 635.354 86.3536L638.536 83.1716C638.731 82.9763 638.731 82.6597 638.536 82.4645C638.34 82.2692 638.024 82.2692 637.828 82.4645L635 85.2929L632.172 82.4645C631.976 82.2692 631.66 82.2692 631.464 82.4645C631.269 82.6597 631.269 82.9763 631.464 83.1716L634.646 86.3536ZM634.5 22L634.5 86L635.5 86L635.5 22L634.5 22Z" fill="#7DF9FF"/>
<path d="M635.354 136.646C635.158 136.451 634.842 136.451 634.646 136.646L631.464 139.828C631.269 140.024 631.269 140.34 631.464 140.536C631.66 140.731 631.976 140.731 632.172 140.536L635 137.707L637.828 140.536C638.024 140.731 638.34 140.731 638.536 140.536C638.731 140.34 638.731 140.024 638.536 139.828L635.354 136.646ZM634.5 137L634.5 201L635.5 201L635.5 137L634.5 137Z" fill="#7DF9FF"/>
<path d="M233.354 201.354C233.549 201.158 233.549 200.842 233.354 200.646L230.172 197.464C229.976 197.269 229.66 197.269 229.464 197.464C229.269 197.66 229.269 197.976 229.464 198.172L232.293 201L229.464 203.828C229.269 204.024 229.269 204.34 229.464 204.536C229.66 204.731 229.976 204.731 230.172 204.536L233.354 201.354ZM75 201.5H233V200.5H75V201.5Z" fill="#7DF9FF"/>
<path d="M233.354 23.3536C233.549 23.1583 233.549 22.8417 233.354 22.6464L230.172 19.4645C229.976 19.2692 229.66 19.2692 229.464 19.4645C229.269 19.6597 229.269 19.9763 229.464 20.1716L232.293 23L229.464 25.8284C229.269 26.0237 229.269 26.3403 229.464 26.5355C229.66 26.7308 229.976 26.7308 230.172 26.5355L233.354 23.3536ZM75 23.5H233V22.5H75V23.5Z" fill="#7DF9FF"/>
<path d="M474.646 200.646C474.451 200.842 474.451 201.158 474.646 201.354L477.828 204.536C478.024 204.731 478.34 204.731 478.536 204.536C478.731 204.34 478.731 204.024 478.536 203.828L475.707 201L478.536 198.172C478.731 197.976 478.731 197.66 478.536 197.464C478.34 197.269 478.024 197.269 477.828 197.464L474.646 200.646ZM475 201.5L635 201.5V200.5L475 200.5V201.5Z" fill="#7DF9FF"/>
<path d="M474.646 21.6464C474.451 21.8417 474.451 22.1583 474.646 22.3536L477.828 25.5355C478.024 25.7308 478.34 25.7308 478.536 25.5355C478.731 25.3403 478.731 25.0237 478.536 24.8284L475.707 22L478.536 19.1716C478.731 18.9763 478.731 18.6597 478.536 18.4645C478.34 18.2692 478.024 18.2692 477.828 18.4645L474.646 21.6464ZM475 22.5L635 22.5V21.5L475 21.5V22.5Z" fill="#7DF9FF"/>
</svg>
