<svg width="803" height="394" viewBox="0 0 803 394" fill="none" xmlns="http://www.w3.org/2000/svg">
<path d="M706.958 194.492C706.977 195.159 706.989 195.827 706.995 196.496L705.995 196.505C705.998 196.837 706 197.168 706 197.5C706 197.832 705.998 198.163 705.995 198.495L706.995 198.504C706.989 199.173 706.977 199.841 706.958 200.508L705.958 200.48C705.94 201.141 705.915 201.801 705.884 202.461L706.883 202.507C706.852 203.173 706.815 203.837 706.772 204.501L705.774 204.436C705.731 205.093 705.682 205.75 705.627 206.405L706.623 206.489C706.567 207.154 706.505 207.818 706.437 208.481L705.442 208.379C705.374 209.037 705.301 209.693 705.221 210.349L706.214 210.47C706.133 211.131 706.046 211.792 705.954 212.452L704.963 212.313C704.871 212.966 704.773 213.619 704.67 214.27L705.657 214.428C705.552 215.086 705.441 215.742 705.324 216.398L704.34 216.222C704.224 216.872 704.102 217.52 703.974 218.168L704.956 218.361C704.827 219.015 704.692 219.667 704.551 220.319L703.573 220.107C703.434 220.753 703.288 221.397 703.137 222.04L704.11 222.27C703.958 222.919 703.799 223.567 703.634 224.214L702.665 223.967C702.503 224.606 702.334 225.244 702.16 225.88L703.125 226.144C702.95 226.785 702.769 227.426 702.582 228.065L701.622 227.784C701.437 228.417 701.246 229.049 701.049 229.681L702.004 229.978C701.806 230.615 701.602 231.25 701.392 231.884L700.442 231.57C700.234 232.199 700.021 232.826 699.802 233.452L700.746 233.783C700.527 234.408 700.302 235.033 700.072 235.656L699.134 235.31C698.906 235.928 698.673 236.545 698.434 237.16L699.366 237.522C699.125 238.143 698.878 238.762 698.626 239.381L697.7 239.003C697.451 239.617 697.195 240.229 696.935 240.84L697.854 241.232C697.593 241.845 697.326 242.456 697.054 243.066L696.141 242.659C695.873 243.258 695.6 243.857 695.322 244.455L696.229 244.877C695.949 245.479 695.663 246.08 695.373 246.68L694.473 246.244C694.184 246.839 693.891 247.433 693.592 248.025L694.485 248.475C694.184 249.072 693.878 249.668 693.567 250.263L692.681 249.799C692.375 250.383 692.065 250.965 691.75 251.546L692.629 252.023C692.313 252.605 691.992 253.185 691.666 253.764L690.795 253.274C690.471 253.849 690.143 254.423 689.81 254.995L690.675 255.498C690.339 256.075 689.999 256.65 689.654 257.224L688.797 256.709C688.454 257.278 688.107 257.847 687.755 258.414L688.604 258.942C688.255 259.504 687.902 260.064 687.543 260.623L686.701 260.084C686.467 260.45 686.23 260.816 685.991 261.182C685.869 261.368 685.747 261.554 685.624 261.741L686.459 262.291C686.093 262.846 685.722 263.4 685.347 263.952L684.52 263.389C684.147 263.938 683.77 264.485 683.388 265.031L684.207 265.604C683.823 266.153 683.434 266.701 683.041 267.248L682.229 266.664C681.846 267.196 681.459 267.727 681.067 268.256L681.872 268.851C681.478 269.383 681.081 269.914 680.679 270.443L679.882 269.838C679.483 270.364 679.079 270.889 678.672 271.413L679.46 272.027C679.05 272.554 678.635 273.079 678.217 273.603L677.436 272.979C677.019 273.5 676.599 274.019 676.174 274.537L676.948 275.171C676.53 275.681 676.108 276.19 675.681 276.698L674.915 276.055C674.493 276.558 674.066 277.061 673.635 277.562L674.394 278.213C673.961 278.717 673.524 279.22 673.083 279.721L672.332 279.06C671.894 279.558 671.451 280.055 671.005 280.551L671.748 281.22C671.299 281.718 670.847 282.215 670.39 282.711L669.655 282.033C669.209 282.517 668.76 282.999 668.307 283.48L669.035 284.166C668.582 284.647 668.125 285.127 667.665 285.605L666.945 284.912C666.487 285.387 666.025 285.862 665.56 286.335L666.274 287.036C665.806 287.511 665.335 287.985 664.86 288.458L664.155 287.75C663.683 288.22 663.207 288.689 662.727 289.157L663.426 289.872C662.95 290.337 662.47 290.8 661.987 291.261L661.296 290.538C660.822 290.992 660.344 291.444 659.863 291.895L660.547 292.625C660.063 293.078 659.576 293.53 659.085 293.98L658.409 293.244C658.181 293.453 657.953 293.662 657.723 293.87C657.462 294.109 657.199 294.347 656.935 294.584L657.604 295.327C657.107 295.775 656.607 296.221 656.104 296.666L655.441 295.917C654.942 296.358 654.438 296.798 653.932 297.237L654.587 297.993C654.089 298.424 653.588 298.854 653.084 299.283L652.437 298.521C651.935 298.948 651.43 299.373 650.923 299.797L651.564 300.565C651.054 300.99 650.541 301.415 650.024 301.838L649.39 301.065C648.877 301.486 648.36 301.906 647.84 302.324L648.467 303.103C647.945 303.524 647.419 303.943 646.891 304.36L646.271 303.576C645.752 303.986 645.231 304.395 644.706 304.802L645.319 305.592C644.798 305.997 644.274 306.4 643.747 306.802L643.141 306.007C642.616 306.407 642.088 306.806 641.558 307.204L642.158 308.004C641.625 308.404 641.09 308.802 640.552 309.198L639.959 308.393C639.423 308.788 638.884 309.182 638.342 309.574L638.929 310.384C638.385 310.778 637.839 311.17 637.289 311.561L636.709 310.747C636.174 311.128 635.636 311.508 635.096 311.886L635.669 312.705C635.128 313.084 634.584 313.462 634.037 313.839L633.47 313.015C632.926 313.39 632.379 313.763 631.829 314.136L632.39 314.964C631.838 315.337 631.284 315.71 630.727 316.081L630.172 315.248C629.617 315.618 629.06 315.986 628.5 316.353L629.048 317.189C628.487 317.557 627.924 317.923 627.358 318.288L626.816 317.447C626.264 317.803 625.71 318.157 625.154 318.51L625.689 319.354C625.131 319.709 624.57 320.062 624.006 320.413L623.477 319.565C622.916 319.915 622.352 320.264 621.786 320.612L622.309 321.464C621.741 321.813 621.17 322.16 620.598 322.507L620.08 321.651C619.51 321.996 618.936 322.339 618.361 322.682L618.872 323.541C618.296 323.884 617.718 324.225 617.138 324.564L616.633 323.701C616.066 324.033 615.497 324.364 614.925 324.693L615.425 325.559C614.851 325.89 614.276 326.219 613.698 326.546L613.205 325.677C612.945 325.824 612.685 325.971 612.424 326.118C612.107 326.297 611.789 326.475 611.471 326.652L611.959 327.526C611.377 327.851 610.792 328.174 610.206 328.497L609.724 327.62C609.14 327.942 608.553 328.262 607.964 328.58L608.44 329.46C607.85 329.779 607.258 330.097 606.664 330.414L606.194 329.531C605.614 329.84 605.032 330.148 604.448 330.454L604.913 331.34C604.327 331.647 603.739 331.953 603.149 332.258L602.69 331.369C602.102 331.673 601.512 331.975 600.92 332.276L601.374 333.168C600.78 333.47 600.184 333.771 599.586 334.07L599.138 333.176C598.542 333.474 597.944 333.772 597.344 334.067L597.787 334.964C597.185 335.261 596.581 335.556 595.975 335.851L595.539 334.951C594.945 335.239 594.35 335.526 593.753 335.811L594.184 336.713C593.588 336.998 592.99 337.282 592.389 337.565L591.964 336.66C591.365 336.942 590.765 337.222 590.163 337.501L590.583 338.409C589.98 338.689 589.374 338.967 588.766 339.245L588.351 338.335C587.745 338.611 587.138 338.887 586.528 339.16L586.938 340.073C586.327 340.347 585.714 340.621 585.099 340.893L584.695 339.978C584.087 340.247 583.478 340.514 582.867 340.78L583.267 341.697C582.661 341.961 582.054 342.224 581.445 342.485L581.051 341.566C580.722 341.707 580.392 341.848 580.061 341.989C579.783 342.107 579.504 342.225 579.224 342.343L579.613 343.265C579.001 343.523 578.387 343.781 577.771 344.037L577.387 343.113C576.773 343.369 576.158 343.623 575.54 343.875L575.919 344.801C575.3 345.054 574.679 345.306 574.057 345.557L573.683 344.63C573.062 344.88 572.44 345.129 571.816 345.376L572.185 346.306C571.571 346.549 570.955 346.791 570.338 347.032L569.975 346.101C569.36 346.341 568.744 346.58 568.126 346.817L568.484 347.75C567.865 347.989 567.244 348.225 566.621 348.461L566.267 347.526C565.646 347.761 565.024 347.994 564.4 348.227L564.749 349.164C564.123 349.397 563.496 349.628 562.867 349.859L562.523 348.92C561.896 349.149 561.267 349.378 560.637 349.605L560.976 350.546C560.348 350.772 559.719 350.997 559.088 351.221L558.753 350.279C558.132 350.499 557.51 350.718 556.886 350.935L557.215 351.88C556.59 352.098 555.963 352.315 555.334 352.531L555.01 351.585C554.733 351.68 554.456 351.775 554.178 351.869C553.828 351.989 553.476 352.108 553.125 352.227L553.445 353.174C552.814 353.387 552.181 353.599 551.547 353.81L551.232 352.861C550.599 353.071 549.965 353.28 549.33 353.487L549.64 354.438C549.003 354.646 548.365 354.852 547.725 355.058L547.42 354.106C546.788 354.309 546.155 354.51 545.521 354.71L545.822 355.664C545.191 355.863 544.559 356.061 543.926 356.258L543.629 355.302C542.998 355.499 542.365 355.693 541.73 355.887L542.022 356.843C541.386 357.037 540.749 357.23 540.111 357.422L539.823 356.464C539.186 356.655 538.548 356.845 537.909 357.033L538.191 357.992C537.55 358.181 536.908 358.369 536.264 358.555L535.986 357.595C535.344 357.781 534.7 357.965 534.056 358.149L534.329 359.111C533.691 359.292 533.051 359.473 532.409 359.652L532.14 358.689C531.743 358.8 531.345 358.91 530.946 359.02C530.708 359.086 530.469 359.152 530.229 359.218L530.494 360.182C529.854 360.358 529.213 360.532 528.571 360.705L528.311 359.739C527.67 359.912 527.029 360.083 526.386 360.253L526.641 361.22C525.997 361.391 525.351 361.56 524.704 361.728L524.453 360.76C523.808 360.927 523.161 361.093 522.513 361.258L522.76 362.228C522.111 362.393 521.461 362.557 520.809 362.72L520.567 361.75C520.198 361.842 519.829 361.933 519.459 362.025C519.184 362.093 518.909 362.16 518.634 362.228L518.872 363.199C518.229 363.357 517.585 363.513 516.94 363.668L516.707 362.696C516.063 362.85 515.418 363.004 514.772 363.156L515.002 364.129C514.355 364.282 513.706 364.433 513.057 364.583L512.832 363.609C512.184 363.758 511.535 363.907 510.885 364.054L511.105 365.029C510.454 365.177 509.801 365.323 509.147 365.468L508.931 364.491C508.279 364.636 507.625 364.779 506.971 364.921L507.183 365.899C506.532 366.04 505.881 366.18 505.228 366.318L505.02 365.34C504.374 365.478 503.727 365.614 503.079 365.748L503.283 366.727C502.633 366.862 501.983 366.996 501.332 367.129L501.132 366.149C500.482 366.281 499.831 366.412 499.179 366.542L499.374 367.523C498.721 367.653 498.067 367.782 497.411 367.909L497.22 366.928C496.566 367.055 495.911 367.181 495.255 367.306L495.442 368.288C494.785 368.413 494.126 368.537 493.467 368.659L493.284 367.676C492.923 367.743 492.562 367.81 492.2 367.876C491.905 367.93 491.611 367.984 491.316 368.037L491.494 369.021C490.843 369.139 490.191 369.256 489.538 369.372L489.364 368.387C489.044 368.444 488.724 368.5 488.403 368.556C488.071 368.614 487.739 368.672 487.406 368.729L487.576 369.715C486.922 369.828 486.266 369.94 485.609 370.05L485.443 369.064C484.788 369.174 484.132 369.283 483.475 369.391L483.637 370.378C482.979 370.486 482.319 370.593 481.659 370.699L481.501 369.711C480.843 369.816 480.183 369.92 479.522 370.023L479.676 371.011C479.014 371.114 478.351 371.216 477.688 371.317L477.538 370.328C476.884 370.427 476.23 370.525 475.574 370.621L475.72 371.61C475.064 371.707 474.408 371.802 473.75 371.896L473.609 370.906C473.294 370.951 472.98 370.996 472.665 371.04C472.323 371.089 471.981 371.137 471.638 371.184L471.776 372.175C471.117 372.266 470.457 372.356 469.797 372.445L469.663 371.454C469.004 371.543 468.344 371.631 467.683 371.717L467.812 372.709C467.15 372.795 466.487 372.88 465.823 372.964L465.697 371.972C465.035 372.056 464.372 372.139 463.707 372.22L463.829 373.213C463.167 373.294 462.505 373.373 461.842 373.452L461.724 372.459C461.068 372.536 460.411 372.613 459.753 372.688L459.867 373.682C459.207 373.757 458.547 373.831 457.887 373.904L457.777 372.91C457.117 372.983 456.457 373.054 455.796 373.124L455.902 374.119C455.24 374.189 454.577 374.258 453.913 374.326L453.811 373.331C453.149 373.399 452.486 373.466 451.822 373.531L451.92 374.526C451.255 374.591 450.589 374.655 449.922 374.718L449.828 373.723C449.163 373.785 448.497 373.847 447.83 373.907L447.92 374.903C447.26 374.963 446.598 375.021 445.936 375.078L445.85 374.082C445.584 374.105 445.318 374.128 445.052 374.15C444.658 374.184 444.265 374.216 443.871 374.249L443.953 375.246C443.291 375.3 442.628 375.353 441.965 375.405L441.887 374.408C441.581 374.433 441.274 374.456 440.967 374.48C440.611 374.507 440.255 374.534 439.899 374.561L439.974 375.558C439.309 375.607 438.644 375.656 437.978 375.703L437.907 374.705C437.243 374.752 436.578 374.798 435.912 374.842L435.978 375.84C435.311 375.885 434.643 375.928 433.975 375.97L433.912 374.972C433.246 375.014 432.58 375.054 431.913 375.094L431.971 376.092C431.31 376.131 430.648 376.169 429.986 376.205L429.931 375.207C429.643 375.223 429.356 375.238 429.068 375.254C428.694 375.274 428.32 375.293 427.946 375.312L427.997 376.311C427.333 376.345 426.669 376.378 426.004 376.409L425.957 375.41C425.293 375.442 424.629 375.472 423.964 375.501L424.008 376.5C423.342 376.529 422.675 376.557 422.008 376.584L421.968 375.584C421.302 375.611 420.635 375.636 419.968 375.66L420.004 376.659C419.336 376.683 418.667 376.706 417.997 376.728L417.965 375.728C417.3 375.75 416.634 375.77 415.968 375.789L415.996 376.788C415.334 376.807 414.671 376.824 414.007 376.841L413.983 375.841C413.733 375.847 413.484 375.853 413.234 375.859C412.821 375.868 412.408 375.878 411.994 375.886L412.015 376.886C411.35 376.9 410.685 376.912 410.019 376.924L410.002 375.924C409.338 375.935 408.673 375.945 408.007 375.954L408.02 376.954C407.354 376.963 406.686 376.97 406.018 376.976L406.009 375.976C405.342 375.983 404.675 375.988 404.008 375.991L404.013 376.991C403.344 376.995 402.675 376.998 402.005 376.999L402.003 375.999C401.669 376 401.335 376 401 376C400.666 376 400.331 376 399.997 375.999L399.995 376.999C399.325 376.998 398.656 376.995 397.987 376.991L397.993 375.991C397.325 375.988 396.658 375.983 395.991 375.976L395.982 376.976C395.314 376.97 394.647 376.963 393.98 376.954L393.993 375.954C393.327 375.945 392.662 375.935 391.998 375.924L391.981 376.924C391.315 376.912 390.65 376.9 389.985 376.886L390.006 375.886C389.343 375.872 388.68 375.857 388.018 375.841L387.993 376.841C387.329 376.824 386.666 376.807 386.004 376.788L386.032 375.789C385.366 375.77 384.7 375.75 384.035 375.728L384.003 376.728C383.333 376.706 382.664 376.684 381.996 376.659L382.032 375.66C381.365 375.636 380.698 375.611 380.032 375.584L379.992 376.584C379.325 376.557 378.659 376.529 377.992 376.5L378.036 375.501C377.371 375.472 376.707 375.442 376.043 375.41L375.996 376.409C375.331 376.378 374.667 376.345 374.003 376.311L374.054 375.312C373.392 375.278 372.73 375.243 372.069 375.207L372.014 376.205C371.352 376.169 370.69 376.131 370.029 376.092L370.087 375.094C369.42 375.054 368.754 375.014 368.088 374.972L368.025 375.97C367.357 375.928 366.689 375.885 366.022 375.84L366.088 374.842C365.422 374.798 364.757 374.752 364.093 374.705L364.022 375.703C363.356 375.656 362.691 375.607 362.026 375.558L362.101 374.561C361.438 374.511 360.775 374.46 360.113 374.408L360.035 375.405C359.372 375.353 358.709 375.3 358.047 375.246L358.129 374.249C357.469 374.194 356.809 374.139 356.15 374.082L356.064 375.078C355.402 375.021 354.74 374.963 354.08 374.903L354.17 373.907C353.503 373.847 352.837 373.785 352.172 373.723L352.078 374.718C351.411 374.655 350.745 374.591 350.08 374.526L350.178 373.531C349.514 373.466 348.851 373.399 348.189 373.331L348.087 374.326C347.423 374.258 346.76 374.189 346.098 374.119L346.204 373.124C345.543 373.054 344.882 372.983 344.223 372.91L344.113 373.904C343.453 373.831 342.793 373.757 342.133 373.682L342.247 372.688C341.98 372.658 341.713 372.627 341.446 372.596C341.055 372.551 340.665 372.505 340.276 372.459L340.158 373.452C339.495 373.373 338.833 373.294 338.171 373.213L338.293 372.22C338.02 372.187 337.748 372.153 337.476 372.119C337.085 372.071 336.694 372.022 336.303 371.972L336.177 372.964C335.513 372.88 334.85 372.795 334.188 372.709L334.317 371.717C333.656 371.631 332.996 371.543 332.337 371.454L332.203 372.445C331.543 372.356 330.883 372.266 330.224 372.175L330.362 371.184C329.704 371.093 329.047 371 328.391 370.906L328.249 371.896C327.592 371.802 326.936 371.707 326.28 371.61L326.426 370.621C325.77 370.525 325.116 370.427 324.462 370.328L324.312 371.317C323.649 371.216 322.986 371.114 322.324 371.011L322.478 370.023C321.817 369.92 321.157 369.816 320.499 369.711L320.341 370.699C319.681 370.593 319.021 370.486 318.363 370.378L318.525 369.391C317.868 369.283 317.212 369.174 316.556 369.064L316.39 370.05C315.734 369.94 315.078 369.828 314.423 369.715L314.594 368.729C314.238 368.668 313.883 368.606 313.528 368.544C313.231 368.492 312.933 368.44 312.636 368.387L312.462 369.372C311.809 369.256 311.157 369.139 310.506 369.021L310.684 368.037C310.027 367.918 309.371 367.798 308.715 367.676L308.533 368.659C307.874 368.537 307.215 368.413 306.558 368.288L306.745 367.305C306.089 367.181 305.434 367.055 304.78 366.927L304.589 367.909C303.933 367.782 303.279 367.653 302.625 367.523L302.821 366.542C302.517 366.481 302.213 366.421 301.909 366.36C301.562 366.29 301.214 366.219 300.868 366.149L300.668 367.129C300.017 366.996 299.366 366.862 298.717 366.727L298.921 365.748C298.272 365.613 297.625 365.477 296.979 365.34L296.772 366.318C296.119 366.18 295.467 366.04 294.817 365.899L295.029 364.921C294.375 364.779 293.721 364.636 293.069 364.491L292.853 365.468C292.199 365.323 291.546 365.177 290.895 365.029L291.115 364.054C290.465 363.907 289.816 363.758 289.168 363.609L288.943 364.583C288.294 364.433 287.645 364.282 286.998 364.129L287.227 363.156C286.582 363.004 285.937 362.85 285.293 362.695L285.06 363.668C284.414 363.513 283.77 363.356 283.128 363.199L283.366 362.228C282.72 362.07 282.076 361.91 281.433 361.749L281.191 362.72C280.539 362.557 279.889 362.393 279.24 362.227L279.486 361.258C278.839 361.093 278.192 360.927 277.547 360.76L277.295 361.728C276.649 361.56 276.003 361.39 275.358 361.22L275.614 360.253C274.971 360.083 274.329 359.912 273.689 359.739L273.428 360.705C272.786 360.532 272.145 360.358 271.506 360.182L271.77 359.218C271.132 359.043 270.495 358.866 269.859 358.689L269.59 359.652C268.949 359.473 268.309 359.292 267.67 359.111L267.944 358.149C267.299 357.965 266.656 357.781 266.014 357.595L265.736 358.555C265.092 358.369 264.45 358.181 263.808 357.992L264.091 357.033C263.452 356.845 262.813 356.655 262.176 356.464L261.889 357.422C261.251 357.23 260.613 357.037 259.978 356.843L260.269 355.887C259.635 355.693 259.002 355.498 258.37 355.302L258.074 356.257C257.441 356.061 256.809 355.863 256.178 355.664L256.479 354.71C255.845 354.51 255.212 354.308 254.58 354.106L254.274 355.058C253.635 354.852 252.996 354.646 252.359 354.438L252.67 353.487C252.035 353.279 251.401 353.071 250.768 352.861L250.453 353.81C249.819 353.599 249.186 353.387 248.555 353.174L248.875 352.227C248.245 352.014 247.617 351.8 246.99 351.585L246.665 352.531C246.037 352.315 245.41 352.098 244.784 351.88L245.114 350.935C244.49 350.718 243.867 350.499 243.246 350.278L242.912 351.221C242.281 350.997 241.652 350.772 241.024 350.546L241.363 349.605C240.732 349.378 240.104 349.149 239.477 348.92L239.133 349.859C238.504 349.628 237.877 349.397 237.251 349.164L237.6 348.226C236.976 347.994 236.353 347.76 235.732 347.526L235.378 348.461C234.756 348.225 234.135 347.988 233.515 347.75L233.874 346.817C233.256 346.579 232.64 346.341 232.025 346.101L231.661 347.032C231.044 346.791 230.429 346.549 229.815 346.306L230.184 345.376C229.56 345.129 228.937 344.88 228.317 344.63L227.943 345.557C227.32 345.306 226.7 345.054 226.081 344.801L226.46 343.875C225.842 343.623 225.226 343.368 224.612 343.113L224.228 344.036C223.613 343.78 222.999 343.523 222.386 343.264L222.776 342.343C222.165 342.085 221.556 341.826 220.949 341.566L220.554 342.485C219.946 342.223 219.338 341.961 218.733 341.697L219.132 340.78C218.521 340.514 217.912 340.247 217.305 339.978L216.9 340.893C216.286 340.621 215.673 340.347 215.061 340.072L215.471 339.16C214.862 338.886 214.254 338.611 213.649 338.335L213.233 339.244C212.626 338.967 212.02 338.688 211.416 338.409L211.837 337.501C211.235 337.222 210.635 336.942 210.036 336.66L209.61 337.565C209.01 337.282 208.412 336.998 207.815 336.713L208.247 335.811C207.65 335.526 207.054 335.239 206.461 334.951L206.024 335.85C205.419 335.556 204.815 335.261 204.213 334.964L204.655 334.067C204.055 333.771 203.457 333.474 202.861 333.176L202.414 334.07C201.816 333.77 201.22 333.47 200.626 333.168L201.079 332.276C200.488 331.975 199.898 331.673 199.31 331.369L198.851 332.257C198.261 331.953 197.673 331.647 197.087 331.339L197.552 330.454C196.968 330.148 196.386 329.84 195.806 329.531L195.336 330.414C194.742 330.097 194.149 329.779 193.559 329.46L194.035 328.58C193.446 328.262 192.86 327.942 192.275 327.62L191.794 328.497C191.207 328.174 190.623 327.85 190.041 327.525L190.529 326.652C189.948 326.328 189.371 326.003 188.795 325.676L188.301 326.546C187.724 326.219 187.148 325.89 186.575 325.559L187.074 324.693C186.503 324.364 185.934 324.033 185.367 323.701L184.862 324.564C184.282 324.225 183.703 323.884 183.128 323.541L183.639 322.682C183.063 322.339 182.49 321.996 181.919 321.651L181.402 322.507C180.829 322.16 180.259 321.813 179.691 321.464L180.214 320.612C179.648 320.264 179.084 319.915 178.523 319.565L177.993 320.413C177.43 320.061 176.869 319.709 176.31 319.354L176.846 318.51C176.289 318.157 175.735 317.803 175.184 317.447L174.642 318.288C174.076 317.923 173.513 317.557 172.952 317.189L173.5 316.353C172.94 315.986 172.382 315.618 171.828 315.248L171.273 316.08C170.716 315.709 170.162 315.337 169.61 314.963L170.171 314.135C169.621 313.763 169.074 313.39 168.53 313.015L167.963 313.838C167.416 313.462 166.872 313.084 166.331 312.705L166.904 311.886C166.364 311.508 165.826 311.128 165.29 310.747L164.71 311.561C164.161 311.17 163.615 310.778 163.071 310.384L163.657 309.574C163.116 309.182 162.577 308.788 162.041 308.393L161.448 309.198C160.91 308.801 160.374 308.403 159.842 308.004L160.442 307.204C159.911 306.806 159.384 306.407 158.859 306.007L158.253 306.802C157.726 306.4 157.202 305.996 156.68 305.592L157.294 304.802C156.769 304.394 156.248 303.986 155.729 303.576L155.109 304.36C154.581 303.943 154.055 303.524 153.533 303.103L154.16 302.324C153.64 301.906 153.123 301.486 152.609 301.065L151.975 301.838C151.459 301.415 150.946 300.99 150.436 300.564L151.077 299.797C150.569 299.373 150.065 298.948 149.563 298.521L148.915 299.283C148.411 298.854 147.911 298.424 147.413 297.993L148.068 297.237C147.562 296.798 147.058 296.358 146.558 295.916L145.896 296.666C145.393 296.221 144.892 295.775 144.395 295.327L145.065 294.584C144.57 294.138 144.079 293.692 143.591 293.243L142.914 293.98C142.424 293.529 141.937 293.078 141.453 292.625L142.137 291.895C141.656 291.444 141.178 290.992 140.703 290.538L140.012 291.261C139.53 290.799 139.05 290.337 138.574 289.872L139.272 289.156C138.793 288.689 138.317 288.22 137.845 287.75L137.139 288.458C136.665 287.985 136.194 287.511 135.726 287.036L136.439 286.335C135.974 285.862 135.513 285.387 135.055 284.911L134.335 285.605C133.874 285.127 133.418 284.647 132.965 284.166L133.693 283.48C133.24 282.999 132.791 282.517 132.345 282.033L131.609 282.711C131.153 282.215 130.7 281.718 130.252 281.22L130.995 280.551C130.549 280.055 130.106 279.558 129.668 279.06L128.917 279.721C128.476 279.22 128.039 278.717 127.606 278.213L128.364 277.561C127.934 277.061 127.507 276.558 127.084 276.055L126.319 276.698C125.892 276.19 125.47 275.681 125.052 275.171L125.825 274.537C125.401 274.019 124.981 273.5 124.564 272.979L123.783 273.603C123.364 273.079 122.95 272.554 122.54 272.027L123.328 271.413C122.921 270.889 122.517 270.364 122.118 269.838L121.321 270.443C120.919 269.913 120.522 269.383 120.128 268.851L120.933 268.256C120.541 267.727 120.154 267.196 119.771 266.664L118.959 267.248C118.566 266.701 118.177 266.153 117.793 265.604L118.612 265.03C118.23 264.485 117.853 263.938 117.48 263.389L116.653 263.952C116.278 263.4 115.907 262.846 115.541 262.291L116.376 261.741C116.012 261.19 115.653 260.637 115.299 260.084L114.457 260.623C114.098 260.064 113.745 259.504 113.396 258.942L114.245 258.414C113.893 257.847 113.546 257.278 113.203 256.709L112.346 257.224C112.001 256.65 111.661 256.075 111.325 255.498L112.19 254.995C111.857 254.423 111.529 253.849 111.205 253.274L110.334 253.764C110.008 253.185 109.687 252.605 109.371 252.023L110.25 251.546C109.935 250.965 109.625 250.383 109.319 249.799L108.433 250.263C108.122 249.668 107.816 249.072 107.515 248.475L108.408 248.025C108.109 247.433 107.816 246.839 107.527 246.244L106.627 246.68C106.337 246.08 106.051 245.479 105.771 244.877L106.678 244.455C106.4 243.857 106.127 243.259 105.859 242.659L104.946 243.066C104.674 242.456 104.407 241.845 104.146 241.232L105.066 240.84C104.805 240.229 104.55 239.617 104.3 239.004L103.374 239.381C103.122 238.763 102.875 238.143 102.634 237.522L103.566 237.16C103.327 236.545 103.094 235.928 102.866 235.31L101.928 235.656C101.698 235.033 101.473 234.408 101.254 233.783L102.198 233.452C101.979 232.826 101.766 232.199 101.558 231.571L100.608 231.885C100.399 231.25 100.194 230.615 99.9961 229.978L100.951 229.681C100.754 229.05 100.563 228.417 100.378 227.784L99.4183 228.065C99.2314 227.426 99.0503 226.786 98.875 226.144L99.8396 225.881C99.6655 225.244 99.4973 224.606 99.3348 223.967L98.3656 224.214C98.2011 223.567 98.0424 222.919 97.8897 222.27L98.8631 222.041C98.7117 221.397 98.5662 220.753 98.4266 220.108L97.4492 220.319C97.3084 219.668 97.1734 219.015 97.0445 218.362L98.0256 218.168C97.8978 217.521 97.776 216.872 97.6601 216.222L96.6756 216.398C96.5587 215.742 96.4478 215.086 96.3429 214.428L97.3304 214.271C97.2265 213.619 97.1286 212.966 97.0367 212.313L96.0465 212.452C95.9537 211.792 95.8671 211.132 95.7865 210.47L96.7792 210.349C96.6994 209.693 96.6257 209.037 96.558 208.379L95.5633 208.482C95.4951 207.818 95.433 207.154 95.377 206.489L96.3735 206.405C96.3184 205.75 96.2693 205.093 96.2263 204.436L95.2285 204.501C95.1851 203.837 95.1478 203.173 95.1168 202.508L96.1157 202.461C96.0849 201.802 96.0602 201.141 96.0417 200.48L95.0421 200.508C95.0234 199.841 95.0109 199.173 95.0047 198.504L96.0046 198.495C96.0015 198.163 96 197.832 96 197.5C96 197.168 96.0015 196.837 96.0046 196.505L95.0047 196.496C95.0109 195.827 95.0234 195.159 95.0421 194.492L96.0417 194.52C96.0602 193.859 96.0849 193.199 96.1157 192.539L95.1168 192.493C95.1478 191.827 95.1851 191.163 95.2285 190.499L96.2263 190.564C96.2693 189.907 96.3184 189.25 96.3735 188.595L95.377 188.511C95.4329 187.846 95.495 187.182 95.5633 186.519L96.558 186.621C96.6257 185.963 96.6994 185.307 96.7792 184.651L95.7865 184.53C95.8671 183.869 95.9537 183.208 96.0465 182.548L97.0367 182.687C97.1286 182.034 97.2265 181.381 97.3304 180.73L96.3429 180.572C96.4478 179.914 96.5587 179.258 96.6756 178.602L97.6601 178.778C97.7759 178.128 97.8978 177.48 98.0255 176.832L97.0445 176.639C97.1734 175.985 97.3083 175.333 97.4492 174.681L98.4266 174.893C98.5662 174.247 98.7117 173.603 98.8631 172.96L97.8896 172.73C98.0424 172.081 98.201 171.433 98.3656 170.786L99.3347 171.033C99.4972 170.394 99.6655 169.756 99.8396 169.12L98.875 168.856C99.0503 168.215 99.2314 167.574 99.4182 166.936L100.378 167.216C100.563 166.583 100.754 165.951 100.951 165.319L99.9961 165.022C100.194 164.385 100.399 163.75 100.608 163.116L101.558 163.43C101.766 162.801 101.979 162.174 102.198 161.548L101.254 161.217C101.473 160.592 101.698 159.967 101.928 159.344L102.866 159.69C103.094 159.072 103.327 158.455 103.566 157.84L102.634 157.478C102.875 156.857 103.122 156.238 103.374 155.619L104.3 155.997C104.55 155.383 104.805 154.771 105.065 154.16L104.146 153.768C104.407 153.155 104.674 152.544 104.946 151.934L105.859 152.341C106.127 151.742 106.4 151.143 106.678 150.545L105.771 150.123C106.051 149.521 106.337 148.92 106.627 148.32L107.527 148.756C107.816 148.161 108.109 147.567 108.408 146.975L107.515 146.525C107.816 145.928 108.122 145.332 108.433 144.737L109.319 145.201C109.625 144.618 109.935 144.035 110.25 143.454L109.371 142.977C109.687 142.395 110.008 141.815 110.334 141.236L111.205 141.726C111.529 141.151 111.857 140.577 112.19 140.005L111.325 139.502C111.661 138.925 112.001 138.35 112.346 137.776L113.203 138.291C113.546 137.722 113.893 137.153 114.245 136.586L113.396 136.058C113.745 135.496 114.098 134.936 114.457 134.377L115.299 134.916C115.653 134.363 116.012 133.81 116.376 133.259L115.541 132.709C115.907 132.154 116.278 131.6 116.653 131.048L117.48 131.611C117.853 131.062 118.23 130.515 118.612 129.969L117.793 129.396C118.177 128.847 118.566 128.299 118.959 127.752L119.771 128.336C120.154 127.804 120.541 127.273 120.933 126.744L120.128 126.149C120.522 125.617 120.919 125.086 121.321 124.557L122.118 125.162C122.517 124.636 122.921 124.111 123.329 123.587L122.54 122.973C122.95 122.446 123.365 121.921 123.783 121.397L124.564 122.021C124.981 121.5 125.401 120.981 125.825 120.463L125.052 119.829C125.47 119.319 125.892 118.81 126.319 118.302L127.085 118.945C127.507 118.442 127.934 117.939 128.364 117.438L127.606 116.787C128.039 116.283 128.476 115.78 128.917 115.279L129.668 115.94C130.106 115.442 130.549 114.945 130.995 114.449L130.252 113.78C130.7 113.282 131.153 112.785 131.61 112.289L132.345 112.967C132.791 112.483 133.24 112.001 133.693 111.52L132.965 110.834C133.418 110.353 133.875 109.873 134.335 109.395L135.055 110.088C135.513 109.613 135.975 109.138 136.44 108.665L135.726 107.964C136.194 107.489 136.665 107.015 137.14 106.542L137.845 107.25C138.317 106.78 138.793 106.311 139.273 105.843L138.574 105.128C139.05 104.663 139.53 104.2 140.013 103.739L140.704 104.462C141.178 104.008 141.656 103.556 142.137 103.105L141.454 102.375C141.937 101.922 142.424 101.47 142.915 101.02L143.591 101.756C144.079 101.308 144.57 100.861 145.065 100.416L144.396 99.6729C144.893 99.2252 145.393 98.7789 145.896 98.334L146.559 99.0835C147.058 98.6418 147.562 98.2015 148.068 97.7626L147.413 97.0069C147.911 96.5756 148.412 96.1457 148.916 95.7171L149.563 96.4788C150.065 96.0522 150.57 95.627 151.077 95.203L150.436 94.4354C150.946 94.0096 151.459 93.585 151.976 93.1619L152.61 93.9352C153.123 93.514 153.64 93.0941 154.16 92.6756L153.533 91.8966C154.055 91.4762 154.581 91.0572 155.109 90.6395L155.729 91.424C156.248 91.014 156.769 90.6054 157.294 90.198L156.681 89.4082C157.202 89.0035 157.726 88.6001 158.253 88.198L158.86 88.993C159.384 88.5926 159.912 88.1936 160.442 87.7959L159.842 86.9959C160.375 86.5965 160.91 86.1985 161.448 85.8019L162.041 86.6069C162.577 86.2119 163.116 85.8182 163.658 85.4259L163.071 84.6161C163.615 84.2222 164.161 83.8297 164.711 83.4386L165.291 84.2532C165.826 83.8721 166.364 83.4922 166.904 83.1138L166.331 82.2946C166.872 81.9156 167.416 81.5378 167.963 81.1615L168.53 81.9851C169.074 81.6102 169.621 81.2366 170.171 80.8644L169.61 80.0364C170.162 79.6627 170.717 79.2903 171.273 78.9194L171.828 79.7516C172.383 79.3821 172.94 79.0138 173.5 78.647L172.952 77.8105C173.513 77.4431 174.076 77.077 174.642 76.7122L175.184 77.5528C175.736 77.1972 176.29 76.843 176.846 76.49L176.311 75.6455C176.869 75.2913 177.43 74.9384 177.994 74.5868L178.523 75.4351C179.084 75.0848 179.648 74.7358 180.214 74.3882L179.691 73.536C180.259 73.1871 180.83 72.8395 181.402 72.4933L181.92 73.3492C182.49 73.0042 183.064 72.6605 183.639 72.3182L183.128 71.4587C183.704 71.1163 184.282 70.7752 184.862 70.4355L185.367 71.2986C185.934 70.9668 186.503 70.6363 187.075 70.3071L186.575 69.4406C187.149 69.1103 187.724 68.7813 188.302 68.4536L188.795 69.3233C189.371 68.9968 189.949 68.6715 190.529 68.3475L190.041 67.4744C190.623 67.1494 191.208 66.8257 191.794 66.5033L192.276 67.3796C192.86 67.0583 193.447 66.7383 194.036 66.4197L193.56 65.5402C194.15 65.2209 194.742 64.9029 195.336 64.5862L195.806 65.4688C196.386 65.1599 196.968 64.8523 197.552 64.5459L197.087 63.6604C197.673 63.3531 198.261 63.0471 198.851 62.7424L199.31 63.6308C199.898 63.3271 200.488 63.0247 201.08 62.7235L200.626 61.8322C201.22 61.5302 201.816 61.2294 202.414 60.93L202.862 61.8241C203.458 61.5256 204.056 61.2284 204.656 60.9326L204.213 60.0357C204.815 59.739 205.419 59.4435 206.025 59.1494L206.462 60.049C207.055 59.761 207.65 59.4743 208.247 59.1889L207.816 58.2867C208.412 58.0015 209.01 57.7177 209.611 57.4351L210.036 58.3399C210.635 58.0581 211.235 57.7777 211.837 57.4986L211.417 56.5914C212.02 56.3114 212.626 56.0328 213.234 55.7554L213.649 56.6651C214.255 56.3886 214.862 56.1134 215.472 55.8395L215.062 54.9274C215.673 54.6527 216.286 54.3794 216.901 54.1073L217.305 55.0218C217.913 54.7531 218.522 54.4857 219.133 54.2195L218.733 53.3028C219.339 53.039 219.946 52.7765 220.555 52.5152L220.949 53.4342C221.556 53.1737 222.165 52.9145 222.776 52.6566L222.387 51.7354C222.999 51.4768 223.613 51.2194 224.229 50.9634L224.613 51.8867C225.227 51.6314 225.842 51.3773 226.46 51.1246L226.081 50.1991C226.7 49.9457 227.321 49.6936 227.943 49.4428L228.317 50.3703C228.938 50.1202 229.56 49.8713 230.184 49.6238L229.815 48.6943C230.429 48.4508 231.045 48.2086 231.662 47.9677L232.025 48.8992C232.64 48.6592 233.256 48.4204 233.874 48.1829L233.516 47.2495C234.135 47.0114 234.756 46.7746 235.379 46.5391L235.733 47.4744C236.354 47.2395 236.976 47.0058 237.6 46.7735L237.251 45.8363C237.877 45.6034 238.504 45.3717 239.133 45.1414L239.477 46.0803C240.104 45.8506 240.733 45.6221 241.363 45.395L241.024 44.4542C241.652 44.2279 242.281 44.0028 242.912 43.779L243.247 44.7215C243.868 44.5012 244.49 44.2822 245.114 44.0645L244.785 43.1203C245.41 42.9021 246.037 42.6851 246.666 42.4693L246.99 43.4151C247.617 43.2 248.245 42.986 248.875 42.7734L248.555 41.826C249.186 41.6128 249.819 41.4009 250.453 41.1903L250.768 42.1393C251.401 41.9293 252.035 41.7205 252.67 41.513L252.36 40.5624C252.997 40.3544 253.635 40.1477 254.275 39.9422L254.58 40.8944C255.212 40.6915 255.845 40.4899 256.479 40.2896L256.178 39.336C256.809 39.1369 257.441 38.9391 258.074 38.7425L258.371 39.6975C259.002 39.5014 259.635 39.3066 260.27 39.113L259.978 38.1565C260.614 37.9625 261.251 37.7697 261.889 37.5782L262.177 38.5361C262.814 38.345 263.452 38.1553 264.092 37.9668L263.809 37.0076C264.45 36.8186 265.092 36.631 265.736 36.4446L266.014 37.4052C266.656 37.2192 267.3 37.0346 267.944 36.8512L267.671 35.8894C268.309 35.7077 268.949 35.5273 269.591 35.3482L269.86 36.3113C270.495 36.1337 271.132 35.9573 271.771 35.7822L271.506 34.8179C272.146 34.6424 272.787 34.4681 273.429 34.2951L273.689 35.2607C274.33 35.0881 274.971 34.9168 275.614 34.7467L275.359 33.7799C276.003 33.6095 276.649 33.4403 277.296 33.2724L277.547 34.2403C278.192 34.0728 278.839 33.9065 279.487 33.7415L279.24 32.7725C279.889 32.6071 280.539 32.4431 281.191 32.2803L281.433 33.2505C282.076 33.0898 282.721 32.9304 283.366 32.7723L283.128 31.801C283.771 31.6435 284.415 31.4872 285.06 31.3321L285.293 32.3044C285.937 32.1498 286.582 31.9963 287.228 31.8441L286.998 30.8708C287.645 30.7183 288.294 30.567 288.943 30.417L289.168 31.3914C289.816 31.2417 290.465 31.0933 291.115 30.9462L290.895 29.9709C291.546 29.8234 292.199 29.6772 292.853 29.5323L293.069 30.5086C293.721 30.364 294.375 30.2207 295.029 30.0786L294.817 29.1014C295.468 28.9602 296.119 28.8203 296.772 28.6816L296.98 29.6598C297.626 29.5225 298.273 29.3865 298.921 29.2517L298.717 28.2726C299.367 28.1376 300.017 28.0037 300.668 27.8712L300.868 28.8511C301.518 28.7188 302.169 28.5878 302.821 28.458L302.626 27.4773C303.279 27.3472 303.933 27.2184 304.589 27.0909L304.78 28.0725C305.434 27.9452 306.089 27.8192 306.745 27.6945L306.558 26.7121C307.215 26.5871 307.874 26.4634 308.533 26.3409L308.716 27.3241C309.371 27.2024 310.027 27.082 310.684 26.9628L310.506 25.9788C311.157 25.8608 311.809 25.7439 312.462 25.6284L312.636 26.613C313.288 26.4977 313.94 26.3836 314.594 26.2708L314.424 25.2854C315.078 25.1723 315.734 25.0604 316.391 24.9498L316.557 25.936C317.212 25.8256 317.868 25.7165 318.525 25.6087L318.363 24.6219C319.021 24.5138 319.681 24.407 320.341 24.3015L320.499 25.2889C321.157 25.1836 321.817 25.0795 322.478 24.9767L322.324 23.9886C322.986 23.8856 323.649 23.7839 324.312 23.6834L324.462 24.6721C325.116 24.5732 325.77 24.4755 326.426 24.379L326.28 23.3896C326.936 23.2931 327.592 23.1979 328.25 23.1038L328.391 24.0937C329.047 23.9999 329.704 23.9073 330.362 23.816L330.224 22.8255C330.883 22.7339 331.543 22.6437 332.203 22.5546L332.337 23.5457C332.996 23.4568 333.656 23.3692 334.317 23.2829L334.188 22.2913C334.85 22.2048 335.513 22.1195 336.177 22.0355L336.303 23.0276C336.965 22.9438 337.628 22.8612 338.293 22.7799L338.171 21.7873C338.833 21.7064 339.495 21.6266 340.158 21.5481L340.276 22.5412C340.932 22.4635 341.589 22.3871 342.247 22.3119L342.133 21.3184C342.793 21.243 343.453 21.1689 344.113 21.096L344.223 22.09C344.882 22.0173 345.543 21.9458 346.204 21.8756L346.098 20.8812C346.76 20.8108 347.423 20.7417 348.087 20.6738L348.189 21.6686C348.851 21.6009 349.514 21.5344 350.178 21.4692L350.08 20.474C350.745 20.4086 351.411 20.3445 352.078 20.2817L352.172 21.2773C352.837 21.2146 353.503 21.1531 354.17 21.0929L354.08 20.097C354.74 20.0373 355.402 19.979 356.064 19.9218L356.15 20.9181C356.809 20.8612 357.469 20.8055 358.129 20.7511L358.047 19.7545C358.709 19.6999 359.372 19.6466 360.035 19.5946L360.113 20.5915C360.775 20.5396 361.438 20.4889 362.101 20.4394L362.026 19.4422C362.691 19.3926 363.356 19.3443 364.022 19.2973L364.093 20.2948C364.757 20.2478 365.422 20.2021 366.088 20.1577L366.022 19.1599C366.689 19.1154 367.357 19.0721 368.025 19.0301L368.088 20.0281C368.754 19.9862 369.42 19.9457 370.087 19.9063L370.029 18.9081C370.69 18.8691 371.352 18.8313 372.014 18.7948L372.069 19.7933C372.73 19.7568 373.392 19.7216 374.054 19.6877L374.003 18.689C374.667 18.655 375.331 18.6222 375.996 18.5906L376.043 19.5895C376.707 19.558 377.371 19.5278 378.036 19.4988L377.992 18.4998C378.658 18.4707 379.325 18.4429 379.992 18.4164L380.032 19.4156C380.698 19.3891 381.365 19.3639 382.032 19.3399L381.996 18.3405C382.664 18.3165 383.333 18.2937 384.003 18.2722L384.035 19.2717C384.7 19.2504 385.366 19.2302 386.032 19.2114L386.004 18.2118C386.666 18.193 387.329 18.1755 387.993 18.1592L388.017 19.1589C388.68 19.1427 389.343 19.1277 390.006 19.1139L389.985 18.1141C390.65 18.1003 391.315 18.0878 391.981 18.0765L391.998 19.0763C392.662 19.065 393.327 19.055 393.993 19.0462L393.98 18.0463C394.646 18.0375 395.314 18.03 395.982 18.0237L395.991 19.0236C396.658 19.0173 397.325 19.0123 397.992 19.0085L397.987 18.0085C398.656 18.0047 399.325 18.0022 399.995 18.0009L399.997 19.0009C400.331 19.0003 400.665 19 401 19C401.334 19 401.669 19.0003 402.003 19.0009L402.005 18.0009C402.675 18.0022 403.344 18.0047 404.013 18.0085L404.007 19.0085C404.675 19.0123 405.342 19.0173 406.009 19.0236L406.018 18.0236C406.686 18.0299 407.353 18.0375 408.02 18.0463L408.007 19.0462C408.672 19.055 409.337 19.065 410.002 19.0763L410.019 18.0765C410.685 18.0878 411.35 18.1003 412.015 18.1141L411.994 19.1139C412.657 19.1277 413.32 19.1427 413.982 19.1589L414.007 18.1592C414.67 18.1755 415.334 18.193 415.996 18.2118L415.968 19.2114C416.634 19.2302 417.3 19.2504 417.965 19.2717L417.997 18.2722C418.667 18.2937 419.336 18.3165 420.004 18.3405L419.968 19.3399C420.635 19.3639 421.302 19.3891 421.968 19.4156L422.008 18.4164C422.675 18.4429 423.341 18.4707 424.008 18.4997L423.964 19.4988C424.629 19.5278 425.293 19.558 425.957 19.5895L426.004 18.5906C426.669 18.6222 427.333 18.655 427.997 18.689L427.945 19.6877C428.608 19.7216 429.27 19.7568 429.931 19.7933L429.986 18.7948C430.648 18.8313 431.31 18.8691 431.971 18.908L431.912 19.9063C432.58 19.9456 433.246 19.9862 433.912 20.0281L433.975 19.0301C434.643 19.0721 435.311 19.1153 435.978 19.1599L435.912 20.1577C436.577 20.2021 437.243 20.2478 437.907 20.2948L437.978 19.2973C438.644 19.3443 439.309 19.3926 439.973 19.4422L439.899 20.4394C440.562 20.4889 441.225 20.5396 441.887 20.5915L441.965 19.5946C442.628 19.6466 443.291 19.6999 443.953 19.7545L443.871 20.7511C444.531 20.8055 445.191 20.8612 445.85 20.9181L445.936 19.9218C446.598 19.979 447.26 20.0373 447.92 20.097L447.83 21.0929C448.497 21.1531 449.163 21.2146 449.828 21.2773L449.922 20.2817C450.589 20.3445 451.255 20.4086 451.92 20.474L451.822 21.4692C452.486 21.5344 453.149 21.6009 453.811 21.6686L453.913 20.6738C454.577 20.7417 455.24 20.8108 455.902 20.8812L455.796 21.8756C456.457 21.9458 457.117 22.0173 457.777 22.09L457.887 21.096C458.547 21.1689 459.207 21.243 459.867 21.3184L459.753 22.3119C460.411 22.3871 461.068 22.4635 461.724 22.5412L461.842 21.5481C462.505 21.6266 463.167 21.7064 463.829 21.7873L463.707 22.7799C464.372 22.8612 465.035 22.9438 465.697 23.0276L465.823 22.0355C466.487 22.1195 467.15 22.2048 467.812 22.2913L467.683 23.2829C468.344 23.3692 469.004 23.4568 469.663 23.5457L469.797 22.5546C470.457 22.6437 471.117 22.7339 471.776 22.8255L471.638 23.816C472.296 23.9073 472.953 23.9999 473.609 24.0938L473.751 23.1038C474.408 23.1979 475.064 23.2931 475.72 23.3897L475.574 24.379C476.23 24.4755 476.884 24.5732 477.538 24.6721L477.688 23.6834C478.351 23.7839 479.014 23.8856 479.676 23.9886L479.522 24.9767C480.183 25.0795 480.843 25.1836 481.501 25.2889L481.659 24.3015C482.319 24.407 482.979 24.5138 483.637 24.6219L483.475 25.6087C484.132 25.7165 484.788 25.8256 485.443 25.936L485.61 24.9499C486.266 25.0605 486.922 25.1723 487.577 25.2854L487.406 26.2708C488.06 26.3836 488.712 26.4977 489.364 26.6131L489.538 25.6284C490.191 25.744 490.843 25.8608 491.494 25.9789L491.316 26.9628C491.973 27.082 492.629 27.2024 493.285 27.3241L493.467 26.341C494.126 26.4634 494.785 26.5871 495.442 26.7121L495.255 27.6945C495.911 27.8193 496.566 27.9452 497.22 28.0725L497.411 27.0909C498.067 27.2184 498.721 27.3472 499.375 27.4773L499.179 28.458C499.831 28.5878 500.482 28.7189 501.132 28.8511L501.332 27.8712C501.983 28.0038 502.634 28.1376 503.283 28.2727L503.079 29.2517C503.727 29.3865 504.374 29.5225 505.02 29.6598L505.228 28.6816C505.881 28.8203 506.533 28.9602 507.183 29.1014L506.971 30.0787C507.625 30.2207 508.279 30.3641 508.931 30.5086L509.147 29.5323C509.801 29.6773 510.454 29.8234 511.105 29.9709L510.885 30.9462C511.535 31.0934 512.184 31.2418 512.832 31.3914L513.057 30.4171C513.706 30.5671 514.355 30.7183 515.002 30.8709L514.773 31.8442C515.418 31.9964 516.063 32.1498 516.707 32.3045L516.94 31.3322C517.586 31.4872 518.229 31.6435 518.872 31.801L518.634 32.7723C519.28 32.9305 519.924 33.0899 520.567 33.2505L520.809 32.2803C521.461 32.4431 522.111 32.6072 522.76 32.7725L522.514 33.7416C523.161 33.9066 523.808 34.0728 524.453 34.2404L524.704 33.2724C525.351 33.4404 525.997 33.6095 526.642 33.78L526.386 34.7468C527.029 34.9168 527.671 35.0882 528.311 35.2607L528.571 34.2952C529.214 34.4682 529.855 34.6424 530.494 34.818L530.23 35.7823C530.868 35.9574 531.505 36.1338 532.141 36.3114L532.41 35.3483C533.051 35.5274 533.691 35.7078 534.33 35.8895L534.056 36.8513C534.701 37.0347 535.344 37.2193 535.986 37.4053L536.264 36.4447C536.908 36.6311 537.55 36.8187 538.191 37.0077L537.909 37.9669C538.548 38.1554 539.187 38.3451 539.824 38.5362L540.111 37.5783C540.749 37.7698 541.387 37.9626 542.022 38.1566L541.731 39.1131C542.365 39.3067 542.998 39.5015 543.63 39.6976L543.926 38.7426C544.559 38.9392 545.191 39.137 545.822 39.3361L545.521 40.2897C546.155 40.49 546.788 40.6916 547.42 40.8944L547.726 39.9423C548.365 40.1478 549.004 40.3545 549.641 40.5625L549.33 41.5131C549.965 41.7206 550.599 41.9294 551.232 42.1394L551.547 41.1904C552.181 41.401 552.814 41.6129 553.445 41.8261L553.125 42.7735C553.755 42.9861 554.383 43.2001 555.01 43.4152L555.335 42.4694C555.963 42.6852 556.59 42.9022 557.216 43.1204L556.886 44.0646C557.51 44.2823 558.133 44.5013 558.754 44.7216L559.088 43.7791C559.719 44.0029 560.348 44.228 560.976 44.4543L560.637 45.3951C561.268 45.6222 561.896 45.8507 562.523 46.0804L562.867 45.1415C563.496 45.3718 564.123 45.6035 564.749 45.8364L564.4 46.7736C565.024 47.0059 565.647 47.2396 566.268 47.4745L566.622 46.5392C567.244 46.7747 567.865 47.0115 568.485 47.2496L568.126 48.1831C568.744 48.4205 569.36 48.6593 569.975 48.8993L570.339 47.9678C570.956 48.2087 571.571 48.4509 572.185 48.6944L571.816 49.6239C572.44 49.8714 573.063 50.1203 573.683 50.3704L574.057 49.4429C574.68 49.6937 575.3 49.9458 575.919 50.1993L575.54 51.1247C576.158 51.3774 576.773 51.6315 577.388 51.8868L577.771 50.9635C578.387 51.2195 579.001 51.4769 579.614 51.7355L579.224 52.6567C579.835 52.9146 580.444 53.1739 581.051 53.4344L581.445 52.5153C582.054 52.7766 582.662 53.0391 583.267 53.3029L582.868 54.2197C583.479 54.4858 584.088 54.7532 584.695 55.0219L585.1 54.1074C585.714 54.3795 586.327 54.6529 586.939 54.9275L586.529 55.8397C587.138 56.1135 587.746 56.3888 588.351 56.6653L588.767 55.7556C589.374 56.0329 589.98 56.3115 590.584 56.5915L590.163 57.4987C590.765 57.7779 591.365 58.0583 591.964 58.34L592.39 57.4352C592.99 57.7178 593.588 58.0017 594.185 58.2868L593.753 59.189C594.35 59.4744 594.946 59.7612 595.539 60.0492L595.976 59.1496C596.581 59.4437 597.185 59.7391 597.787 60.0358L597.345 60.9327C597.945 61.2286 598.543 61.5258 599.139 61.8242L599.586 60.9301C600.184 61.2295 600.78 61.5303 601.374 61.8324L600.92 62.7237C601.512 63.0248 602.102 63.3272 602.69 63.631L603.149 62.7425C603.739 63.0472 604.327 63.3532 604.913 63.6605L604.448 64.5461C605.032 64.8524 605.614 65.16 606.194 65.4689L606.664 64.5864C607.258 64.903 607.851 65.221 608.441 65.5404L607.965 66.4198C608.554 66.7385 609.14 67.0585 609.725 67.3798L610.206 66.5035C610.793 66.8258 611.377 67.1495 611.959 67.4746L611.471 68.3477C612.052 68.6716 612.629 68.9969 613.205 69.3235L613.699 68.4537C614.276 68.7814 614.852 69.1104 615.425 69.4408L614.926 70.3072C615.497 70.6364 616.066 70.9669 616.633 71.2987L617.138 70.4357C617.719 70.7754 618.297 71.1165 618.872 71.4589L618.361 72.3184C618.937 72.6607 619.51 73.0043 620.081 73.3493L620.598 72.4935C621.171 72.8397 621.741 73.1873 622.309 73.5362L621.786 74.3883C622.352 74.736 622.916 75.085 623.477 75.4353L624.007 74.587C624.57 74.9385 625.131 75.2915 625.69 75.6457L625.154 76.4902C625.711 76.8431 626.265 77.1974 626.816 77.5529L627.358 76.7124C627.924 77.0771 628.487 77.4432 629.048 77.8107L628.5 78.6472C629.06 79.014 629.618 79.3822 630.172 79.7518L630.727 78.9195C631.284 79.2905 631.838 79.6628 632.39 80.0365L631.829 80.8645C632.379 81.2368 632.926 81.6104 633.47 81.9853L634.037 81.1616C634.584 81.538 635.128 81.9157 635.669 82.2948L635.096 83.114C635.636 83.4924 636.174 83.8722 636.71 84.2534L637.29 83.4388C637.839 83.8299 638.385 84.2224 638.929 84.6163L638.343 85.4261C638.884 85.8184 639.423 86.2121 639.959 86.6071L640.552 85.802C641.09 86.1987 641.626 86.5967 642.158 86.996L641.558 87.7961C642.089 88.1938 642.616 88.5928 643.141 88.9932L643.747 88.1982C644.274 88.6002 644.798 89.0036 645.32 89.4084L644.706 90.1982C645.231 90.6055 645.752 91.0142 646.271 91.4242L646.891 90.6397C647.419 91.0574 647.945 91.4764 648.467 91.8968L647.84 92.6757C648.36 93.0943 648.877 93.5142 649.391 93.9354L650.025 93.1621C650.541 93.5852 651.054 94.0097 651.564 94.4356L650.923 95.2032C651.431 95.6271 651.935 96.0524 652.437 96.479L653.085 95.7173C653.589 96.1459 654.089 96.5758 654.587 97.007L653.932 97.7628C654.438 98.2017 654.942 98.642 655.442 99.0836L656.104 98.3342C656.607 98.7791 657.108 99.2254 657.605 99.673L656.935 100.416C657.43 100.862 657.921 101.308 658.409 101.757L659.086 101.02C659.576 101.471 660.063 101.922 660.547 102.375L659.863 103.105C660.344 103.556 660.822 104.008 661.297 104.462L661.988 103.739C662.47 104.201 662.95 104.663 663.426 105.128L662.728 105.844C663.207 106.311 663.683 106.78 664.155 107.25L664.861 106.542C665.335 107.015 665.806 107.489 666.274 107.964L665.561 108.665C666.026 109.138 666.487 109.613 666.945 110.089L667.665 109.395C668.125 109.873 668.582 110.353 669.035 110.834L668.307 111.52C668.76 112.001 669.209 112.483 669.655 112.967L670.391 112.289C670.847 112.785 671.3 113.282 671.748 113.78L671.005 114.449C671.451 114.945 671.894 115.442 672.332 115.94L673.083 115.279C673.524 115.78 673.961 116.283 674.394 116.787L673.636 117.439C674.066 117.939 674.493 118.442 674.916 118.945L675.681 118.302C676.108 118.81 676.53 119.319 676.948 119.829L676.175 120.463C676.599 120.981 677.019 121.5 677.436 122.021L678.217 121.397C678.636 121.921 679.05 122.446 679.46 122.973L678.672 123.587C679.079 124.111 679.483 124.636 679.882 125.162L680.679 124.557C681.081 125.087 681.478 125.617 681.872 126.149L681.068 126.744C681.459 127.273 681.846 127.804 682.229 128.336L683.041 127.752C683.434 128.299 683.823 128.847 684.207 129.396L683.388 129.97C683.77 130.515 684.147 131.062 684.52 131.611L685.347 131.048C685.722 131.6 686.093 132.154 686.459 132.709L685.624 133.259C685.988 133.81 686.347 134.363 686.701 134.916L687.543 134.377C687.902 134.936 688.255 135.496 688.604 136.058L687.755 136.586C688.107 137.153 688.454 137.722 688.797 138.291L689.654 137.776C689.999 138.35 690.339 138.925 690.675 139.502L689.81 140.005C690.143 140.577 690.471 141.151 690.795 141.726L691.666 141.236C691.992 141.815 692.313 142.395 692.629 142.977L691.75 143.454C692.065 144.035 692.375 144.617 692.681 145.201L693.567 144.737C693.878 145.332 694.184 145.928 694.485 146.525L693.592 146.975C693.891 147.567 694.184 148.161 694.473 148.756L695.373 148.32C695.663 148.92 695.949 149.521 696.229 150.123L695.322 150.545C695.6 151.143 695.873 151.741 696.141 152.341L697.054 151.934C697.326 152.544 697.593 153.155 697.854 153.768L696.934 154.16C697.195 154.771 697.45 155.383 697.7 155.996L698.626 155.619C698.878 156.237 699.125 156.857 699.366 157.478L698.434 157.84C698.673 158.455 698.906 159.072 699.134 159.69L700.072 159.344C700.302 159.967 700.527 160.592 700.746 161.217L699.802 161.548C700.021 162.174 700.234 162.801 700.442 163.429L701.392 163.115C701.601 163.75 701.805 164.385 702.004 165.022L701.049 165.319C701.246 165.95 701.437 166.583 701.622 167.216L702.582 166.935C702.769 167.574 702.95 168.214 703.125 168.856L702.16 169.119C702.334 169.756 702.503 170.394 702.665 171.033L703.634 170.786C703.799 171.433 703.958 172.081 704.11 172.73L703.137 172.959C703.288 173.603 703.434 174.247 703.573 174.892L704.551 174.681C704.692 175.332 704.827 175.985 704.956 176.638L703.974 176.832C704.102 177.479 704.224 178.128 704.34 178.778L705.324 178.602C705.441 179.258 705.552 179.914 705.657 180.572L704.67 180.729C704.773 181.381 704.871 182.034 704.963 182.687L705.953 182.548C706.046 183.208 706.133 183.868 706.213 184.53L705.221 184.651C705.301 185.307 705.374 185.963 705.442 186.621L706.437 186.518C706.505 187.182 706.567 187.846 706.623 188.511L705.626 188.595C705.682 189.25 705.731 189.907 705.774 190.564L706.772 190.499C706.815 191.163 706.852 191.827 706.883 192.492L705.884 192.539C705.915 193.198 705.94 193.859 705.958 194.52L706.958 194.492Z" stroke="#BEFCFF" stroke-width="2" stroke-dasharray="2 2"/>
<rect y="168" width="191" height="58" rx="29" fill="#7DF9FF"/>
<rect x="612" y="168" width="191" height="58" rx="29" fill="#7DF9FF"/>
<rect x="257" y="153" width="289" height="88" rx="44" fill="#7DF9FF"/>
<path d="M52.1739 194.976C53.7419 195.163 54.9179 195.667 55.7019 196.488C56.4859 197.309 56.8779 198.392 56.8779 199.736C56.8779 201.36 56.2899 202.648 55.1139 203.6C53.9566 204.533 52.2766 205 50.0739 205H43.5779V185.96H49.9339C51.5952 185.96 52.8832 186.165 53.7979 186.576C54.6379 186.949 55.2726 187.5 55.7019 188.228C56.1499 188.956 56.3739 189.74 56.3739 190.58C56.3739 191.607 56.0099 192.531 55.2819 193.352C54.5726 194.155 53.5366 194.696 52.1739 194.976ZM47.6939 188.228V194.052H49.3459C50.3166 194.052 51.0259 193.819 51.4739 193.352C51.9406 192.867 52.1739 192.055 52.1739 190.916C52.1739 190.375 52.1086 189.917 51.9779 189.544C51.8659 189.171 51.6606 188.881 51.3619 188.676C50.9886 188.377 50.3819 188.228 49.5419 188.228H47.6939ZM49.5419 202.732C50.5872 202.732 51.3619 202.461 51.8659 201.92C52.3886 201.36 52.6499 200.483 52.6499 199.288C52.6499 198.187 52.3979 197.403 51.8939 196.936C51.4086 196.451 50.6246 196.208 49.5419 196.208H47.6939V202.732H49.5419ZM67.9329 202.62C67.4849 203.497 66.9435 204.141 66.3089 204.552C65.6742 204.963 64.7875 205.168 63.6489 205.168C62.2675 205.168 61.2595 204.832 60.6249 204.16C60.0089 203.488 59.7009 202.452 59.7009 201.052V190.804H63.7609V199.988C63.7609 200.996 63.8915 201.687 64.1529 202.06C64.4142 202.415 64.7969 202.592 65.3009 202.592C66.1035 202.592 66.7195 202.237 67.1489 201.528C67.5969 200.819 67.8209 199.867 67.8209 198.672V190.804H71.8809V205H68.4369L67.9329 202.62ZM87.5416 190.804L80.0936 211.496H76.6776C77.6109 209.555 78.3296 207.865 78.8336 206.428C78.9643 206.055 79.0296 205.672 79.0296 205.28C79.0296 204.757 78.8803 204.104 78.5816 203.32L73.8776 190.804H78.2456L80.6536 197.412L81.4656 200.632L82.2496 197.412L84.5736 190.804H87.5416ZM104.77 189.264C104.266 188.555 103.295 188.2 101.858 188.2C100.85 188.2 100.075 188.415 99.5337 188.844C98.9924 189.255 98.7217 189.861 98.7217 190.664C98.7217 191.224 98.8617 191.672 99.1417 192.008C99.4404 192.325 99.8137 192.577 100.262 192.764C100.728 192.932 101.484 193.165 102.53 193.464C103.874 193.819 104.947 194.192 105.75 194.584C106.571 194.976 107.215 195.545 107.682 196.292C108.167 197.02 108.41 198 108.41 199.232C108.41 201.285 107.775 202.807 106.506 203.796C105.236 204.785 103.538 205.28 101.41 205.28C99.263 205.28 97.583 204.795 96.3697 203.824C95.175 202.853 94.5777 201.444 94.5777 199.596C94.5777 199.428 94.5964 199.139 94.6337 198.728H97.1257C97.051 199.811 97.3217 200.753 97.9377 201.556C98.5537 202.359 99.6177 202.76 101.13 202.76C102.194 202.76 103.006 202.536 103.566 202.088C104.144 201.64 104.434 200.996 104.434 200.156C104.434 199.54 104.284 199.064 103.986 198.728C103.687 198.373 103.314 198.112 102.866 197.944C102.418 197.776 101.746 197.58 100.85 197.356C99.487 197.02 98.395 196.656 97.5737 196.264C96.7524 195.872 96.0897 195.312 95.5857 194.584C95.0817 193.837 94.8297 192.839 94.8297 191.588C94.8297 189.609 95.4364 188.135 96.6497 187.164C97.8817 186.175 99.4964 185.68 101.494 185.68C103.491 185.68 105.059 186.147 106.198 187.08C107.336 188.013 107.906 189.385 107.906 191.196C107.906 191.476 107.896 191.691 107.878 191.84H105.386C105.404 191.709 105.414 191.579 105.414 191.448C105.414 190.627 105.199 189.899 104.77 189.264ZM111.603 184.28H115.663V188.592H111.603V184.28ZM111.603 190.804H115.663V205H111.603V190.804ZM128.043 202.48C127.632 203.395 127.1 204.076 126.447 204.524C125.812 204.953 125.047 205.168 124.151 205.168C122.396 205.168 121.052 204.608 120.119 203.488C119.204 202.368 118.747 200.595 118.747 198.168C118.747 195.573 119.26 193.669 120.287 192.456C121.314 191.243 122.667 190.636 124.347 190.636C125.262 190.636 125.971 190.823 126.475 191.196C126.998 191.569 127.455 192.176 127.847 193.016V184.28H131.907V205H128.855L128.043 202.48ZM127.847 197.832C127.847 196.376 127.642 195.209 127.231 194.332C126.82 193.455 126.186 193.016 125.327 193.016C124.524 193.016 123.927 193.427 123.535 194.248C123.162 195.069 122.975 196.329 122.975 198.028C122.975 199.652 123.143 200.856 123.479 201.64C123.834 202.405 124.412 202.788 125.215 202.788C126.074 202.788 126.727 202.349 127.175 201.472C127.623 200.576 127.847 199.363 127.847 197.832ZM147.701 198.364H139.133C139.17 200.007 139.441 201.173 139.945 201.864C140.468 202.536 141.261 202.872 142.325 202.872C144.098 202.872 145.069 201.976 145.237 200.184L147.533 200.436C147.402 202.004 146.833 203.208 145.825 204.048C144.817 204.869 143.417 205.28 141.625 205.28C139.609 205.28 137.994 204.711 136.781 203.572C135.586 202.415 134.989 200.585 134.989 198.084C134.989 195.527 135.614 193.632 136.865 192.4C138.134 191.149 139.777 190.524 141.793 190.524C145.732 190.524 147.701 192.895 147.701 197.636V198.364ZM142.381 196.46C142.885 196.46 143.212 196.376 143.361 196.208C143.51 196.04 143.585 195.76 143.585 195.368C143.585 194.435 143.417 193.725 143.081 193.24C142.745 192.736 142.25 192.484 141.597 192.484C140.869 192.484 140.29 192.811 139.861 193.464C139.432 194.099 139.189 195.097 139.133 196.46H142.381Z" fill="#284B4B"/>
<path d="M664.797 189.264C664.293 188.555 663.322 188.2 661.885 188.2C660.877 188.2 660.102 188.415 659.561 188.844C659.02 189.255 658.749 189.861 658.749 190.664C658.749 191.224 658.889 191.672 659.169 192.008C659.468 192.325 659.841 192.577 660.289 192.764C660.756 192.932 661.512 193.165 662.557 193.464C663.901 193.819 664.974 194.192 665.777 194.584C666.598 194.976 667.242 195.545 667.709 196.292C668.194 197.02 668.437 198 668.437 199.232C668.437 201.285 667.802 202.807 666.533 203.796C665.264 204.785 663.565 205.28 661.437 205.28C659.29 205.28 657.61 204.795 656.397 203.824C655.202 202.853 654.605 201.444 654.605 199.596C654.605 199.428 654.624 199.139 654.661 198.728H657.153C657.078 199.811 657.349 200.753 657.965 201.556C658.581 202.359 659.645 202.76 661.157 202.76C662.221 202.76 663.033 202.536 663.593 202.088C664.172 201.64 664.461 200.996 664.461 200.156C664.461 199.54 664.312 199.064 664.013 198.728C663.714 198.373 663.341 198.112 662.893 197.944C662.445 197.776 661.773 197.58 660.877 197.356C659.514 197.02 658.422 196.656 657.601 196.264C656.78 195.872 656.117 195.312 655.613 194.584C655.109 193.837 654.857 192.839 654.857 191.588C654.857 189.609 655.464 188.135 656.677 187.164C657.909 186.175 659.524 185.68 661.521 185.68C663.518 185.68 665.086 186.147 666.225 187.08C667.364 188.013 667.933 189.385 667.933 191.196C667.933 191.476 667.924 191.691 667.905 191.84H665.413C665.432 191.709 665.441 191.579 665.441 191.448C665.441 190.627 665.226 189.899 664.797 189.264ZM683.502 198.364H674.934C674.971 200.007 675.242 201.173 675.746 201.864C676.269 202.536 677.062 202.872 678.126 202.872C679.899 202.872 680.87 201.976 681.038 200.184L683.334 200.436C683.203 202.004 682.634 203.208 681.626 204.048C680.618 204.869 679.218 205.28 677.426 205.28C675.41 205.28 673.795 204.711 672.582 203.572C671.387 202.415 670.79 200.585 670.79 198.084C670.79 195.527 671.415 193.632 672.666 192.4C673.935 191.149 675.578 190.524 677.594 190.524C681.533 190.524 683.502 192.895 683.502 197.636V198.364ZM678.182 196.46C678.686 196.46 679.013 196.376 679.162 196.208C679.311 196.04 679.386 195.76 679.386 195.368C679.386 194.435 679.218 193.725 678.882 193.24C678.546 192.736 678.051 192.484 677.398 192.484C676.67 192.484 676.091 192.811 675.662 193.464C675.233 194.099 674.99 195.097 674.934 196.46H678.182ZM686.614 184.28H690.674V205H686.614V184.28ZM694.571 184.28H698.631V205H694.571V184.28ZM717.735 189.264C717.231 188.555 716.26 188.2 714.823 188.2C713.815 188.2 713.04 188.415 712.499 188.844C711.957 189.255 711.687 189.861 711.687 190.664C711.687 191.224 711.827 191.672 712.107 192.008C712.405 192.325 712.779 192.577 713.227 192.764C713.693 192.932 714.449 193.165 715.495 193.464C716.839 193.819 717.912 194.192 718.715 194.584C719.536 194.976 720.18 195.545 720.647 196.292C721.132 197.02 721.375 198 721.375 199.232C721.375 201.285 720.74 202.807 719.471 203.796C718.201 204.785 716.503 205.28 714.375 205.28C712.228 205.28 710.548 204.795 709.335 203.824C708.14 202.853 707.543 201.444 707.543 199.596C707.543 199.428 707.561 199.139 707.599 198.728H710.091C710.016 199.811 710.287 200.753 710.903 201.556C711.519 202.359 712.583 202.76 714.095 202.76C715.159 202.76 715.971 202.536 716.531 202.088C717.109 201.64 717.399 200.996 717.399 200.156C717.399 199.54 717.249 199.064 716.951 198.728C716.652 198.373 716.279 198.112 715.831 197.944C715.383 197.776 714.711 197.58 713.815 197.356C712.452 197.02 711.36 196.656 710.539 196.264C709.717 195.872 709.055 195.312 708.551 194.584C708.047 193.837 707.795 192.839 707.795 191.588C707.795 189.609 708.401 188.135 709.615 187.164C710.847 186.175 712.461 185.68 714.459 185.68C716.456 185.68 718.024 186.147 719.163 187.08C720.301 188.013 720.871 189.385 720.871 191.196C720.871 191.476 720.861 191.691 720.843 191.84H718.351C718.369 191.709 718.379 191.579 718.379 191.448C718.379 190.627 718.164 189.899 717.735 189.264ZM724.567 184.28H728.627V188.592H724.567V184.28ZM724.567 190.804H728.627V205H724.567V190.804ZM741.008 202.48C740.597 203.395 740.065 204.076 739.412 204.524C738.777 204.953 738.012 205.168 737.116 205.168C735.361 205.168 734.017 204.608 733.084 203.488C732.169 202.368 731.712 200.595 731.712 198.168C731.712 195.573 732.225 193.669 733.252 192.456C734.278 191.243 735.632 190.636 737.312 190.636C738.226 190.636 738.936 190.823 739.44 191.196C739.962 191.569 740.42 192.176 740.812 193.016V184.28H744.872V205H741.82L741.008 202.48ZM740.812 197.832C740.812 196.376 740.606 195.209 740.196 194.332C739.785 193.455 739.15 193.016 738.292 193.016C737.489 193.016 736.892 193.427 736.5 194.248C736.126 195.069 735.94 196.329 735.94 198.028C735.94 199.652 736.108 200.856 736.444 201.64C736.798 202.405 737.377 202.788 738.18 202.788C739.038 202.788 739.692 202.349 740.14 201.472C740.588 200.576 740.812 199.363 740.812 197.832ZM760.666 198.364H752.098C752.135 200.007 752.406 201.173 752.91 201.864C753.433 202.536 754.226 202.872 755.29 202.872C757.063 202.872 758.034 201.976 758.202 200.184L760.498 200.436C760.367 202.004 759.798 203.208 758.79 204.048C757.782 204.869 756.382 205.28 754.59 205.28C752.574 205.28 750.959 204.711 749.746 203.572C748.551 202.415 747.954 200.585 747.954 198.084C747.954 195.527 748.579 193.632 749.83 192.4C751.099 191.149 752.742 190.524 754.758 190.524C758.697 190.524 760.666 192.895 760.666 197.636V198.364ZM755.346 196.46C755.85 196.46 756.177 196.376 756.326 196.208C756.475 196.04 756.55 195.76 756.55 195.368C756.55 194.435 756.382 193.725 756.046 193.24C755.71 192.736 755.215 192.484 754.562 192.484C753.834 192.484 753.255 192.811 752.826 193.464C752.397 194.099 752.154 195.097 752.098 196.46H755.346Z" fill="#284B4B"/>
<path d="M377.064 168.96V188H373.284V176.52L373.508 171.676L368.86 187.16H366.564L363.036 176.1L362 171.648L362.112 176.24V188H359.312V168.96H364.716L368.356 180.524L371.8 168.96H377.064ZM391.819 184.08C391.819 184.677 391.875 185.125 391.987 185.424C392.118 185.723 392.314 185.919 392.575 186.012C392.837 186.105 393.229 186.152 393.751 186.152V187.944C393.229 188.056 392.547 188.112 391.707 188.112C390.643 188.112 389.859 187.925 389.355 187.552C388.87 187.16 388.562 186.525 388.431 185.648H388.207C387.461 187.309 386.098 188.14 384.119 188.14C382.775 188.14 381.767 187.795 381.095 187.104C380.442 186.413 380.115 185.489 380.115 184.332C380.115 183.137 380.442 182.213 381.095 181.56C381.767 180.907 382.635 180.449 383.699 180.188C384.782 179.927 386.173 179.731 387.871 179.6V178.34C387.871 177.705 387.825 177.211 387.731 176.856C387.638 176.501 387.433 176.24 387.115 176.072C386.817 175.885 386.359 175.792 385.743 175.792C384.81 175.792 384.147 175.988 383.755 176.38C383.363 176.753 383.167 177.285 383.167 177.976C383.167 178.125 383.186 178.368 383.223 178.704H380.843C380.769 178.275 380.731 177.845 380.731 177.416C380.731 176.016 381.226 175.017 382.215 174.42C383.205 173.823 384.661 173.524 386.583 173.524C387.909 173.524 388.945 173.664 389.691 173.944C390.457 174.224 390.998 174.681 391.315 175.316C391.651 175.951 391.819 176.819 391.819 177.92V184.08ZM385.743 186.012C386.322 186.012 386.817 185.769 387.227 185.284C387.657 184.78 387.871 184.08 387.871 183.184V181.056C386.49 181.243 385.529 181.541 384.987 181.952C384.465 182.363 384.203 183.016 384.203 183.912C384.203 185.312 384.717 186.012 385.743 186.012ZM395.892 173.804H399.952V176.772C400.381 175.615 400.96 174.812 401.688 174.364C402.416 173.897 403.321 173.664 404.404 173.664V177.192C403.993 177.155 403.704 177.136 403.536 177.136C402.248 177.136 401.324 177.472 400.764 178.144C400.222 178.816 399.952 179.889 399.952 181.364V188H395.892V173.804ZM411.262 181.42H410.534V188H406.474V167.28H410.534V179.964H410.646C410.963 179.964 411.206 179.917 411.374 179.824C411.542 179.712 411.784 179.441 412.102 179.012L416.106 173.804H419.522L414.79 179.404L419.802 188H415.07L411.262 181.42ZM433.303 181.364H424.735C424.772 183.007 425.043 184.173 425.547 184.864C426.069 185.536 426.863 185.872 427.927 185.872C429.7 185.872 430.671 184.976 430.839 183.184L433.135 183.436C433.004 185.004 432.435 186.208 431.427 187.048C430.419 187.869 429.019 188.28 427.227 188.28C425.211 188.28 423.596 187.711 422.383 186.572C421.188 185.415 420.591 183.585 420.591 181.084C420.591 178.527 421.216 176.632 422.467 175.4C423.736 174.149 425.379 173.524 427.395 173.524C431.333 173.524 433.303 175.895 433.303 180.636V181.364ZM427.983 179.46C428.487 179.46 428.813 179.376 428.963 179.208C429.112 179.04 429.187 178.76 429.187 178.368C429.187 177.435 429.019 176.725 428.683 176.24C428.347 175.736 427.852 175.484 427.199 175.484C426.471 175.484 425.892 175.811 425.463 176.464C425.033 177.099 424.791 178.097 424.735 179.46H427.983ZM443.308 185.76C443.681 185.76 444.11 185.741 444.596 185.704V187.86C444.148 187.935 443.606 187.991 442.972 188.028C442.356 188.065 441.852 188.084 441.46 188.084C439.892 188.084 438.706 187.72 437.904 186.992C437.101 186.264 436.7 185.004 436.7 183.212V176.24H434.544V173.944H436.7V169.352H440.76V173.944H444.372V176.24H440.76V182.652C440.76 183.511 440.825 184.155 440.956 184.584C441.105 185.013 441.357 185.321 441.712 185.508C442.066 185.676 442.598 185.76 443.308 185.76ZM315.494 202.96H319.666V222H315.494V202.96ZM332.059 212.816C332.059 211.789 331.929 211.099 331.667 210.744C331.406 210.389 330.995 210.212 330.435 210.212C329.614 210.212 328.979 210.567 328.531 211.276C328.102 211.985 327.887 212.928 327.887 214.104V222H323.827V207.804H327.887V210.1C328.354 209.241 328.905 208.616 329.539 208.224C330.193 207.832 331.051 207.636 332.115 207.636C333.515 207.636 334.533 207.972 335.167 208.644C335.821 209.316 336.147 210.352 336.147 211.752V222H332.059V212.816ZM346.821 203.688C346.019 203.688 345.421 203.912 345.029 204.36C344.656 204.808 344.469 205.592 344.469 206.712V207.944H347.857V210.24H344.469V222H340.409V210.24H338.253V207.944H340.409V206.964C340.409 203.119 342.164 201.196 345.673 201.196C346.737 201.196 347.717 201.28 348.613 201.448V203.912C347.904 203.763 347.307 203.688 346.821 203.688ZM349.694 207.804H353.754V210.772C354.184 209.615 354.762 208.812 355.49 208.364C356.218 207.897 357.124 207.664 358.206 207.664V211.192C357.796 211.155 357.506 211.136 357.338 211.136C356.05 211.136 355.126 211.472 354.566 212.144C354.025 212.816 353.754 213.889 353.754 215.364V222H349.694V207.804ZM370.696 218.08C370.696 218.677 370.752 219.125 370.864 219.424C370.995 219.723 371.191 219.919 371.452 220.012C371.714 220.105 372.106 220.152 372.628 220.152V221.944C372.106 222.056 371.424 222.112 370.584 222.112C369.52 222.112 368.736 221.925 368.232 221.552C367.747 221.16 367.439 220.525 367.308 219.648H367.084C366.338 221.309 364.975 222.14 362.996 222.14C361.652 222.14 360.644 221.795 359.972 221.104C359.319 220.413 358.992 219.489 358.992 218.332C358.992 217.137 359.319 216.213 359.972 215.56C360.644 214.907 361.512 214.449 362.576 214.188C363.659 213.927 365.05 213.731 366.748 213.6V212.34C366.748 211.705 366.702 211.211 366.608 210.856C366.515 210.501 366.31 210.24 365.992 210.072C365.694 209.885 365.236 209.792 364.62 209.792C363.687 209.792 363.024 209.988 362.632 210.38C362.24 210.753 362.044 211.285 362.044 211.976C362.044 212.125 362.063 212.368 362.1 212.704H359.72C359.646 212.275 359.608 211.845 359.608 211.416C359.608 210.016 360.103 209.017 361.092 208.42C362.082 207.823 363.538 207.524 365.46 207.524C366.786 207.524 367.822 207.664 368.568 207.944C369.334 208.224 369.875 208.681 370.192 209.316C370.528 209.951 370.696 210.819 370.696 211.92V218.08ZM364.62 220.012C365.199 220.012 365.694 219.769 366.104 219.284C366.534 218.78 366.748 218.08 366.748 217.184V215.056C365.367 215.243 364.406 215.541 363.864 215.952C363.342 216.363 363.08 217.016 363.08 217.912C363.08 219.312 363.594 220.012 364.62 220.012ZM379.697 209.624C378.913 209.624 378.315 209.764 377.905 210.044C377.513 210.305 377.317 210.679 377.317 211.164C377.317 211.612 377.513 211.967 377.905 212.228C378.315 212.471 379.034 212.723 380.061 212.984C381.293 213.301 382.226 213.6 382.861 213.88C383.495 214.141 384.018 214.561 384.429 215.14C384.839 215.7 385.045 216.493 385.045 217.52C385.045 219.181 384.531 220.395 383.505 221.16C382.497 221.907 381.087 222.28 379.277 222.28C377.503 222.28 376.131 221.925 375.161 221.216C374.209 220.488 373.733 219.387 373.733 217.912L373.761 217.38H376.057C376.038 217.511 376.029 217.632 376.029 217.744C376.029 219.368 377.027 220.18 379.025 220.18C379.921 220.18 380.574 220.031 380.985 219.732C381.414 219.415 381.629 218.995 381.629 218.472C381.629 218.024 381.461 217.697 381.125 217.492C380.789 217.287 380.126 217.053 379.137 216.792C377.849 216.456 376.85 216.129 376.141 215.812C375.431 215.495 374.881 215.065 374.489 214.524C374.115 213.964 373.929 213.199 373.929 212.228C373.929 210.604 374.414 209.419 375.385 208.672C376.374 207.907 377.746 207.524 379.501 207.524C381.106 207.524 382.366 207.851 383.281 208.504C384.195 209.157 384.653 210.203 384.653 211.64L384.625 212.144H382.357C382.375 212.032 382.385 211.911 382.385 211.78C382.385 210.343 381.489 209.624 379.697 209.624ZM395.005 219.76C395.378 219.76 395.808 219.741 396.293 219.704V221.86C395.845 221.935 395.304 221.991 394.669 222.028C394.053 222.065 393.549 222.084 393.157 222.084C391.589 222.084 390.404 221.72 389.601 220.992C388.798 220.264 388.397 219.004 388.397 217.212V210.24H386.241V207.944H388.397V203.352H392.457V207.944H396.069V210.24H392.457V216.652C392.457 217.511 392.522 218.155 392.653 218.584C392.802 219.013 393.054 219.321 393.409 219.508C393.764 219.676 394.296 219.76 395.005 219.76ZM398.585 207.804H402.645V210.772C403.074 209.615 403.653 208.812 404.381 208.364C405.109 207.897 406.014 207.664 407.097 207.664V211.192C406.686 211.155 406.397 211.136 406.229 211.136C404.941 211.136 404.017 211.472 403.457 212.144C402.916 212.816 402.645 213.889 402.645 215.364V222H398.585V207.804ZM417.259 219.62C416.811 220.497 416.27 221.141 415.635 221.552C415 221.963 414.114 222.168 412.975 222.168C411.594 222.168 410.586 221.832 409.951 221.16C409.335 220.488 409.027 219.452 409.027 218.052V207.804H413.087V216.988C413.087 217.996 413.218 218.687 413.479 219.06C413.74 219.415 414.123 219.592 414.627 219.592C415.43 219.592 416.046 219.237 416.475 218.528C416.923 217.819 417.147 216.867 417.147 215.672V207.804H421.207V222H417.763L417.259 219.62ZM436.308 217.044C436.308 218.649 435.832 219.928 434.88 220.88C433.946 221.813 432.574 222.28 430.764 222.28C428.822 222.28 427.254 221.701 426.06 220.544C424.884 219.368 424.296 217.52 424.296 215C424.296 212.368 424.921 210.464 426.172 209.288C427.441 208.112 429.074 207.524 431.072 207.524C432.901 207.524 434.217 207.963 435.02 208.84C435.841 209.717 436.252 210.893 436.252 212.368C436.252 212.667 436.242 212.891 436.224 213.04H433.872C433.89 212.872 433.9 212.713 433.9 212.564C433.9 210.791 433.097 209.904 431.492 209.904C430.428 209.904 429.672 210.324 429.224 211.164C428.776 211.985 428.552 213.208 428.552 214.832C428.552 216.531 428.776 217.791 429.224 218.612C429.69 219.415 430.437 219.816 431.464 219.816C433.106 219.816 433.956 218.799 434.012 216.764L436.308 217.044ZM446.11 219.76C446.484 219.76 446.913 219.741 447.398 219.704V221.86C446.95 221.935 446.409 221.991 445.774 222.028C445.158 222.065 444.654 222.084 444.262 222.084C442.694 222.084 441.509 221.72 440.706 220.992C439.904 220.264 439.502 219.004 439.502 217.212V210.24H437.346V207.944H439.502V203.352H443.562V207.944H447.174V210.24H443.562V216.652C443.562 217.511 443.628 218.155 443.758 218.584C443.908 219.013 444.16 219.321 444.514 219.508C444.869 219.676 445.401 219.76 446.11 219.76ZM457.782 219.62C457.334 220.497 456.793 221.141 456.158 221.552C455.524 221.963 454.637 222.168 453.498 222.168C452.117 222.168 451.109 221.832 450.474 221.16C449.858 220.488 449.55 219.452 449.55 218.052V207.804H453.61V216.988C453.61 217.996 453.741 218.687 454.002 219.06C454.264 219.415 454.646 219.592 455.15 219.592C455.953 219.592 456.569 219.237 456.998 218.528C457.446 217.819 457.67 216.867 457.67 215.672V207.804H461.73V222H458.286L457.782 219.62ZM465.659 207.804H469.719V210.772C470.149 209.615 470.727 208.812 471.455 208.364C472.183 207.897 473.089 207.664 474.171 207.664V211.192C473.761 211.155 473.471 211.136 473.303 211.136C472.015 211.136 471.091 211.472 470.531 212.144C469.99 212.816 469.719 213.889 469.719 215.364V222H465.659V207.804ZM487.785 215.364H479.217C479.254 217.007 479.525 218.173 480.029 218.864C480.552 219.536 481.345 219.872 482.409 219.872C484.182 219.872 485.153 218.976 485.321 217.184L487.617 217.436C487.486 219.004 486.917 220.208 485.909 221.048C484.901 221.869 483.501 222.28 481.709 222.28C479.693 222.28 478.078 221.711 476.865 220.572C475.67 219.415 475.073 217.585 475.073 215.084C475.073 212.527 475.698 210.632 476.949 209.4C478.218 208.149 479.861 207.524 481.877 207.524C485.816 207.524 487.785 209.895 487.785 214.636V215.364ZM482.465 213.46C482.969 213.46 483.296 213.376 483.445 213.208C483.594 213.04 483.669 212.76 483.669 212.368C483.669 211.435 483.501 210.725 483.165 210.24C482.829 209.736 482.334 209.484 481.681 209.484C480.953 209.484 480.374 209.811 479.945 210.464C479.516 211.099 479.273 212.097 479.217 213.46H482.465Z" fill="#284B4B"/>
<rect x="281" width="241" height="54" rx="10" fill="#284B4B"/>
<rect x="281" y="340" width="241" height="54" rx="10" fill="#284B4B"/>
<path d="M327.774 12.364C329.09 12.98 330.112 13.974 330.84 15.346C331.596 16.69 331.974 18.23 331.974 19.966C331.974 22.822 331.022 24.992 329.118 26.476C327.242 27.96 324.792 28.702 321.768 28.702H318.618V40H312.36V11.44H321.684C324.484 11.44 326.514 11.748 327.774 12.364ZM321.306 24.838C324.162 24.838 325.59 23.116 325.59 19.672C325.59 17.824 325.156 16.55 324.288 15.85C323.672 15.402 322.79 15.178 321.642 15.178H318.618V24.838H321.306ZM350.908 34.12C350.908 35.016 350.992 35.688 351.16 36.136C351.356 36.584 351.65 36.878 352.042 37.018C352.434 37.158 353.022 37.228 353.806 37.228V39.916C353.022 40.084 352 40.168 350.74 40.168C349.144 40.168 347.968 39.888 347.212 39.328C346.484 38.74 346.022 37.788 345.826 36.472H345.49C344.37 38.964 342.326 40.21 339.358 40.21C337.342 40.21 335.83 39.692 334.822 38.656C333.842 37.62 333.352 36.234 333.352 34.498C333.352 32.706 333.842 31.32 334.822 30.34C335.83 29.36 337.132 28.674 338.728 28.282C340.352 27.89 342.438 27.596 344.986 27.4V25.51C344.986 24.558 344.916 23.816 344.776 23.284C344.636 22.752 344.328 22.36 343.852 22.108C343.404 21.828 342.718 21.688 341.794 21.688C340.394 21.688 339.4 21.982 338.812 22.57C338.224 23.13 337.93 23.928 337.93 24.964C337.93 25.188 337.958 25.552 338.014 26.056H334.444C334.332 25.412 334.276 24.768 334.276 24.124C334.276 22.024 335.018 20.526 336.502 19.63C337.986 18.734 340.17 18.286 343.054 18.286C345.042 18.286 346.596 18.496 347.716 18.916C348.864 19.336 349.676 20.022 350.152 20.974C350.656 21.926 350.908 23.228 350.908 24.88V34.12ZM341.794 37.018C342.662 37.018 343.404 36.654 344.02 35.926C344.664 35.17 344.986 34.12 344.986 32.776V29.584C342.914 29.864 341.472 30.312 340.66 30.928C339.876 31.544 339.484 32.524 339.484 33.868C339.484 35.968 340.254 37.018 341.794 37.018ZM374.122 18.706L362.95 49.744H357.826C359.226 46.832 360.304 44.298 361.06 42.142C361.256 41.582 361.354 41.008 361.354 40.42C361.354 39.636 361.13 38.656 360.682 37.48L353.626 18.706H360.178L363.79 28.618L365.008 33.448L366.184 28.618L369.67 18.706H374.122ZM401.809 18.454C403.909 18.454 405.421 18.958 406.345 19.966C407.297 20.974 407.773 22.528 407.773 24.628V40H401.641V26.224C401.641 24.684 401.445 23.648 401.053 23.116C400.689 22.584 400.101 22.318 399.289 22.318C398.085 22.318 397.147 22.85 396.475 23.914C395.831 24.95 395.509 26.364 395.509 28.156V40H389.377V25.888C389.377 24.852 389.279 24.082 389.083 23.578C388.915 23.046 388.663 22.71 388.327 22.57C388.019 22.402 387.585 22.318 387.025 22.318C385.821 22.318 384.883 22.85 384.211 23.914C383.567 24.978 383.245 26.392 383.245 28.156V40H377.155V18.706H383.245V22.15C383.945 20.89 384.771 19.966 385.723 19.378C386.703 18.762 387.963 18.454 389.503 18.454C391.183 18.454 392.485 18.776 393.409 19.42C394.333 20.064 394.949 21.03 395.257 22.318C396.097 20.946 397.021 19.966 398.029 19.378C399.065 18.762 400.325 18.454 401.809 18.454ZM431.262 30.046H418.41C418.466 32.51 418.872 34.26 419.628 35.296C420.412 36.304 421.602 36.808 423.198 36.808C425.858 36.808 427.314 35.464 427.566 32.776L431.01 33.154C430.814 35.506 429.96 37.312 428.448 38.572C426.936 39.804 424.836 40.42 422.148 40.42C419.124 40.42 416.702 39.566 414.882 37.858C413.09 36.122 412.194 33.378 412.194 29.626C412.194 25.79 413.132 22.948 415.008 21.1C416.912 19.224 419.376 18.286 422.4 18.286C428.308 18.286 431.262 21.842 431.262 28.954V30.046ZM423.282 27.19C424.038 27.19 424.528 27.064 424.752 26.812C424.976 26.56 425.088 26.14 425.088 25.552C425.088 24.152 424.836 23.088 424.332 22.36C423.828 21.604 423.086 21.226 422.106 21.226C421.014 21.226 420.146 21.716 419.502 22.696C418.858 23.648 418.494 25.146 418.41 27.19H423.282ZM447.991 26.224C447.991 24.684 447.795 23.648 447.403 23.116C447.011 22.584 446.395 22.318 445.555 22.318C444.323 22.318 443.371 22.85 442.699 23.914C442.055 24.978 441.733 26.392 441.733 28.156V40H435.643V18.706H441.733V22.15C442.433 20.862 443.259 19.924 444.211 19.336C445.191 18.748 446.479 18.454 448.075 18.454C450.175 18.454 451.701 18.958 452.653 19.966C453.633 20.974 454.123 22.528 454.123 24.628V40H447.991V26.224ZM470.386 36.64C470.946 36.64 471.59 36.612 472.318 36.556V39.79C471.646 39.902 470.834 39.986 469.882 40.042C468.958 40.098 468.202 40.126 467.614 40.126C465.262 40.126 463.484 39.58 462.28 38.488C461.076 37.396 460.474 35.506 460.474 32.818V22.36H457.24V18.916H460.474V12.028H466.564V18.916H471.982V22.36H466.564V31.978C466.564 33.266 466.662 34.232 466.858 34.876C467.082 35.52 467.46 35.982 467.992 36.262C468.524 36.514 469.322 36.64 470.386 36.64ZM483.148 21.436C481.972 21.436 481.076 21.646 480.46 22.066C479.872 22.458 479.578 23.018 479.578 23.746C479.578 24.418 479.872 24.95 480.46 25.342C481.076 25.706 482.154 26.084 483.694 26.476C485.542 26.952 486.942 27.4 487.894 27.82C488.846 28.212 489.63 28.842 490.246 29.71C490.862 30.55 491.17 31.74 491.17 33.28C491.17 35.772 490.4 37.592 488.86 38.74C487.348 39.86 485.234 40.42 482.518 40.42C479.858 40.42 477.8 39.888 476.344 38.824C474.916 37.732 474.202 36.08 474.202 33.868L474.244 33.07H477.688C477.66 33.266 477.646 33.448 477.646 33.616C477.646 36.052 479.144 37.27 482.14 37.27C483.484 37.27 484.464 37.046 485.08 36.598C485.724 36.122 486.046 35.492 486.046 34.708C486.046 34.036 485.794 33.546 485.29 33.238C484.786 32.93 483.792 32.58 482.308 32.188C480.376 31.684 478.878 31.194 477.814 30.718C476.75 30.242 475.924 29.598 475.336 28.786C474.776 27.946 474.496 26.798 474.496 25.342C474.496 22.906 475.224 21.128 476.68 20.008C478.164 18.86 480.222 18.286 482.854 18.286C485.262 18.286 487.152 18.776 488.524 19.756C489.896 20.736 490.582 22.304 490.582 24.46L490.54 25.216H487.138C487.166 25.048 487.18 24.866 487.18 24.67C487.18 22.514 485.836 21.436 483.148 21.436Z" fill="#7DF9FF"/>
<path d="M327.774 352.364C329.09 352.98 330.112 353.974 330.84 355.346C331.596 356.69 331.974 358.23 331.974 359.966C331.974 362.822 331.022 364.992 329.118 366.476C327.242 367.96 324.792 368.702 321.768 368.702H318.618V380H312.36V351.44H321.684C324.484 351.44 326.514 351.748 327.774 352.364ZM321.306 364.838C324.162 364.838 325.59 363.116 325.59 359.672C325.59 357.824 325.156 356.55 324.288 355.85C323.672 355.402 322.79 355.178 321.642 355.178H318.618V364.838H321.306ZM350.908 374.12C350.908 375.016 350.992 375.688 351.16 376.136C351.356 376.584 351.65 376.878 352.042 377.018C352.434 377.158 353.022 377.228 353.806 377.228V379.916C353.022 380.084 352 380.168 350.74 380.168C349.144 380.168 347.968 379.888 347.212 379.328C346.484 378.74 346.022 377.788 345.826 376.472H345.49C344.37 378.964 342.326 380.21 339.358 380.21C337.342 380.21 335.83 379.692 334.822 378.656C333.842 377.62 333.352 376.234 333.352 374.498C333.352 372.706 333.842 371.32 334.822 370.34C335.83 369.36 337.132 368.674 338.728 368.282C340.352 367.89 342.438 367.596 344.986 367.4V365.51C344.986 364.558 344.916 363.816 344.776 363.284C344.636 362.752 344.328 362.36 343.852 362.108C343.404 361.828 342.718 361.688 341.794 361.688C340.394 361.688 339.4 361.982 338.812 362.57C338.224 363.13 337.93 363.928 337.93 364.964C337.93 365.188 337.958 365.552 338.014 366.056H334.444C334.332 365.412 334.276 364.768 334.276 364.124C334.276 362.024 335.018 360.526 336.502 359.63C337.986 358.734 340.17 358.286 343.054 358.286C345.042 358.286 346.596 358.496 347.716 358.916C348.864 359.336 349.676 360.022 350.152 360.974C350.656 361.926 350.908 363.228 350.908 364.88V374.12ZM341.794 377.018C342.662 377.018 343.404 376.654 344.02 375.926C344.664 375.17 344.986 374.12 344.986 372.776V369.584C342.914 369.864 341.472 370.312 340.66 370.928C339.876 371.544 339.484 372.524 339.484 373.868C339.484 375.968 340.254 377.018 341.794 377.018ZM374.122 358.706L362.95 389.744H357.826C359.226 386.832 360.304 384.298 361.06 382.142C361.256 381.582 361.354 381.008 361.354 380.42C361.354 379.636 361.13 378.656 360.682 377.48L353.626 358.706H360.178L363.79 368.618L365.008 373.448L366.184 368.618L369.67 358.706H374.122ZM401.809 358.454C403.909 358.454 405.421 358.958 406.345 359.966C407.297 360.974 407.773 362.528 407.773 364.628V380H401.641V366.224C401.641 364.684 401.445 363.648 401.053 363.116C400.689 362.584 400.101 362.318 399.289 362.318C398.085 362.318 397.147 362.85 396.475 363.914C395.831 364.95 395.509 366.364 395.509 368.156V380H389.377V365.888C389.377 364.852 389.279 364.082 389.083 363.578C388.915 363.046 388.663 362.71 388.327 362.57C388.019 362.402 387.585 362.318 387.025 362.318C385.821 362.318 384.883 362.85 384.211 363.914C383.567 364.978 383.245 366.392 383.245 368.156V380H377.155V358.706H383.245V362.15C383.945 360.89 384.771 359.966 385.723 359.378C386.703 358.762 387.963 358.454 389.503 358.454C391.183 358.454 392.485 358.776 393.409 359.42C394.333 360.064 394.949 361.03 395.257 362.318C396.097 360.946 397.021 359.966 398.029 359.378C399.065 358.762 400.325 358.454 401.809 358.454ZM431.262 370.046H418.41C418.466 372.51 418.872 374.26 419.628 375.296C420.412 376.304 421.602 376.808 423.198 376.808C425.858 376.808 427.314 375.464 427.566 372.776L431.01 373.154C430.814 375.506 429.96 377.312 428.448 378.572C426.936 379.804 424.836 380.42 422.148 380.42C419.124 380.42 416.702 379.566 414.882 377.858C413.09 376.122 412.194 373.378 412.194 369.626C412.194 365.79 413.132 362.948 415.008 361.1C416.912 359.224 419.376 358.286 422.4 358.286C428.308 358.286 431.262 361.842 431.262 368.954V370.046ZM423.282 367.19C424.038 367.19 424.528 367.064 424.752 366.812C424.976 366.56 425.088 366.14 425.088 365.552C425.088 364.152 424.836 363.088 424.332 362.36C423.828 361.604 423.086 361.226 422.106 361.226C421.014 361.226 420.146 361.716 419.502 362.696C418.858 363.648 418.494 365.146 418.41 367.19H423.282ZM447.991 366.224C447.991 364.684 447.795 363.648 447.403 363.116C447.011 362.584 446.395 362.318 445.555 362.318C444.323 362.318 443.371 362.85 442.699 363.914C442.055 364.978 441.733 366.392 441.733 368.156V380H435.643V358.706H441.733V362.15C442.433 360.862 443.259 359.924 444.211 359.336C445.191 358.748 446.479 358.454 448.075 358.454C450.175 358.454 451.701 358.958 452.653 359.966C453.633 360.974 454.123 362.528 454.123 364.628V380H447.991V366.224ZM470.386 376.64C470.946 376.64 471.59 376.612 472.318 376.556V379.79C471.646 379.902 470.834 379.986 469.882 380.042C468.958 380.098 468.202 380.126 467.614 380.126C465.262 380.126 463.484 379.58 462.28 378.488C461.076 377.396 460.474 375.506 460.474 372.818V362.36H457.24V358.916H460.474V352.028H466.564V358.916H471.982V362.36H466.564V371.978C466.564 373.266 466.662 374.232 466.858 374.876C467.082 375.52 467.46 375.982 467.992 376.262C468.524 376.514 469.322 376.64 470.386 376.64ZM483.148 361.436C481.972 361.436 481.076 361.646 480.46 362.066C479.872 362.458 479.578 363.018 479.578 363.746C479.578 364.418 479.872 364.95 480.46 365.342C481.076 365.706 482.154 366.084 483.694 366.476C485.542 366.952 486.942 367.4 487.894 367.82C488.846 368.212 489.63 368.842 490.246 369.71C490.862 370.55 491.17 371.74 491.17 373.28C491.17 375.772 490.4 377.592 488.86 378.74C487.348 379.86 485.234 380.42 482.518 380.42C479.858 380.42 477.8 379.888 476.344 378.824C474.916 377.732 474.202 376.08 474.202 373.868L474.244 373.07H477.688C477.66 373.266 477.646 373.448 477.646 373.616C477.646 376.052 479.144 377.27 482.14 377.27C483.484 377.27 484.464 377.046 485.08 376.598C485.724 376.122 486.046 375.492 486.046 374.708C486.046 374.036 485.794 373.546 485.29 373.238C484.786 372.93 483.792 372.58 482.308 372.188C480.376 371.684 478.878 371.194 477.814 370.718C476.75 370.242 475.924 369.598 475.336 368.786C474.776 367.946 474.496 366.798 474.496 365.342C474.496 362.906 475.224 361.128 476.68 360.008C478.164 358.86 480.222 358.286 482.854 358.286C485.262 358.286 487.152 358.776 488.524 359.756C489.896 360.736 490.582 362.304 490.582 364.46L490.54 365.216H487.138C487.166 365.048 487.18 364.866 487.18 364.67C487.18 362.514 485.836 361.436 483.148 361.436Z" fill="#7DF9FF"/>
<line x1="256" y1="198" x2="192" y2="198" stroke="#BEFCFF" stroke-width="2" stroke-dasharray="2 2"/>
<line x1="201.707" y1="187.707" x2="191.707" y2="197.707" stroke="#BEFCFF" stroke-width="2" stroke-dasharray="2 2"/>
<line y1="-1" x2="14.1421" y2="-1" transform="matrix(-0.707107 -0.707107 -0.707107 0.707107 201 207)" stroke="#BEFCFF" stroke-width="2" stroke-dasharray="2 2"/>
<line x1="93.4835" y1="144.741" x2="99.719" y2="168.013" stroke="#BEFCFF" stroke-width="2" stroke-dasharray="2 2"/>
<line y1="-1" x2="24.0923" y2="-1" transform="matrix(-0.965926 0.258819 0.258819 0.965926 122.025 162.036)" stroke="#BEFCFF" stroke-width="2" stroke-dasharray="2 2"/>
<line x1="119.82" y1="239.322" x2="98.9558" y2="227.275" stroke="#BEFCFF" stroke-width="2" stroke-dasharray="2 2"/>
<line y1="-1" x2="24.0923" y2="-1" transform="matrix(0.5 -0.866025 -0.866025 -0.5 87.4082 247.274)" stroke="#BEFCFF" stroke-width="2" stroke-dasharray="2 2"/>
<line x1="710.103" y1="249.923" x2="701.609" y2="227.378" stroke="#BEFCFF" stroke-width="2" stroke-dasharray="2 2"/>
<line y1="-1" x2="24.0923" y2="-1" transform="matrix(0.935779 -0.352586 -0.352586 -0.935779 680 235.52)" stroke="#BEFCFF" stroke-width="2" stroke-dasharray="2 2"/>
<line x1="245.293" y1="206.293" x2="255.293" y2="196.293" stroke="#BEFCFF" stroke-width="2" stroke-dasharray="2 2"/>
<line y1="-1" x2="14.1421" y2="-1" transform="matrix(0.707107 0.707107 0.707107 -0.707107 246 187)" stroke="#BEFCFF" stroke-width="2" stroke-dasharray="2 2"/>
<line x1="611" y1="198" x2="547" y2="198" stroke="#BEFCFF" stroke-width="2" stroke-dasharray="2 2"/>
<line x1="556.707" y1="187.707" x2="546.707" y2="197.707" stroke="#BEFCFF" stroke-width="2" stroke-dasharray="2 2"/>
<line y1="-1" x2="14.1421" y2="-1" transform="matrix(-0.707107 -0.707107 -0.707107 0.707107 556 207)" stroke="#BEFCFF" stroke-width="2" stroke-dasharray="2 2"/>
<line x1="600.293" y1="206.293" x2="610.293" y2="196.293" stroke="#BEFCFF" stroke-width="2" stroke-dasharray="2 2"/>
<line y1="-1" x2="14.1421" y2="-1" transform="matrix(0.707107 0.707107 0.707107 -0.707107 601 187)" stroke="#BEFCFF" stroke-width="2" stroke-dasharray="2 2"/>
</svg>
