<svg width="19" height="20" viewBox="0 0 19 20" fill="none" xmlns="http://www.w3.org/2000/svg">
<path d="M13.7147 2.5C14.3209 2.5 14.9023 2.76339 15.3309 3.23223C15.7596 3.70107 16.0004 4.33696 16.0004 5V15C16.0004 15.663 15.7596 16.2989 15.3309 16.7678C14.9023 17.2366 14.3209 17.5 13.7147 17.5H4.57185C3.96564 17.5 3.38426 17.2366 2.9556 16.7678C2.52695 16.2989 2.28613 15.663 2.28613 15V5C2.28613 4.33696 2.52695 3.70107 2.9556 3.23223C3.38426 2.76339 3.96564 2.5 4.57185 2.5H13.7147ZM13.7147 4.16667H4.57185C4.36978 4.16667 4.17598 4.25446 4.0331 4.41074C3.89021 4.56702 3.80994 4.77899 3.80994 5V15C3.80994 15.221 3.89021 15.433 4.0331 15.5893C4.17598 15.7455 4.36978 15.8333 4.57185 15.8333H13.7147C13.9168 15.8333 14.1106 15.7455 14.2535 15.5893C14.3963 15.433 14.4766 15.221 14.4766 15V5C14.4766 4.77899 14.3963 4.56702 14.2535 4.41074C14.1106 4.25446 13.9168 4.16667 13.7147 4.16667ZM6.09566 8.33333C6.28227 8.33336 6.46239 8.4083 6.60185 8.54393C6.7413 8.67956 6.83039 8.86646 6.85223 9.06917L6.85756 9.16667V13.3333C6.85735 13.5457 6.78299 13.75 6.64968 13.9045C6.51637 14.0589 6.33417 14.1519 6.14031 14.1643C5.94645 14.1768 5.75556 14.1078 5.60664 13.9714C5.45773 13.8351 5.36202 13.6417 5.33909 13.4308L5.33375 13.3333V9.16667C5.33375 8.94565 5.41402 8.73369 5.55691 8.57741C5.69979 8.42113 5.89359 8.33333 6.09566 8.33333ZM8.38137 7.5C8.55981 7.49997 8.73259 7.56844 8.8696 7.69347C9.00661 7.8185 9.09915 7.99216 9.13109 8.18417C9.28455 8.08723 9.44304 8.00014 9.60575 7.92333C10.1139 7.68583 10.8751 7.555 11.5623 7.79083C11.9227 7.91583 12.2846 8.14917 12.5528 8.54667C12.7928 8.90083 12.9223 9.33167 12.9482 9.81583L12.9528 10V13.3333C12.9526 13.5457 12.8782 13.75 12.7449 13.9045C12.6116 14.0589 12.4294 14.1519 12.2355 14.1643C12.0417 14.1768 11.8508 14.1078 11.7019 13.9714C11.553 13.8351 11.4573 13.6417 11.4343 13.4308L11.429 13.3333V10C11.429 9.725 11.368 9.59667 11.3284 9.5375C11.2715 9.46022 11.1931 9.40524 11.1052 9.38083C10.84 9.28917 10.4583 9.3375 10.2046 9.45583C9.82366 9.63417 9.47471 9.91417 9.23699 10.1733L9.14328 10.2833V13.3333C9.14306 13.5457 9.0687 13.75 8.93539 13.9045C8.80208 14.0589 8.61988 14.1519 8.42602 14.1643C8.23216 14.1768 8.04127 14.1078 7.89236 13.9714C7.74344 13.8351 7.64774 13.6417 7.6248 13.4308L7.61947 13.3333V8.33333C7.61947 8.11232 7.69974 7.90036 7.84262 7.74408C7.98551 7.5878 8.1793 7.5 8.38137 7.5ZM6.09566 5.83333C6.29773 5.83333 6.49152 5.92113 6.63441 6.07741C6.77729 6.23369 6.85756 6.44565 6.85756 6.66667C6.85756 6.88768 6.77729 7.09964 6.63441 7.25592C6.49152 7.4122 6.29773 7.5 6.09566 7.5C5.89359 7.5 5.69979 7.4122 5.55691 7.25592C5.41402 7.09964 5.33375 6.88768 5.33375 6.66667C5.33375 6.44565 5.41402 6.23369 5.55691 6.07741C5.69979 5.92113 5.89359 5.83333 6.09566 5.83333Z" fill="#7DF9FF"/>
</svg>
