<svg width="14" height="18" viewBox="0 0 14 18" fill="none" xmlns="http://www.w3.org/2000/svg">
<path d="M11.7137 0C12.3199 0 12.9013 0.263505 13.33 0.732546C13.7586 1.20159 13.9994 1.83774 13.9994 2.50107V12.5053C13.9994 13.1687 13.7586 13.8048 13.33 14.2739C12.9013 14.7429 12.3199 15.0064 11.7137 15.0064H2.57087C1.96466 15.0064 1.38328 14.7429 0.954627 14.2739C0.525972 13.8048 0.285156 13.1687 0.285156 12.5053V2.50107C0.285156 1.83774 0.525972 1.20159 0.954627 0.732546C1.38328 0.263505 1.96466 0 2.57087 0H11.7137ZM11.7137 1.66738H2.57087C2.3688 1.66738 2.17501 1.75521 2.03212 1.91156C1.88924 2.06791 1.80897 2.27996 1.80897 2.50107V12.5053C1.80897 12.7264 1.88924 12.9385 2.03212 13.0948C2.17501 13.2512 2.3688 13.339 2.57087 13.339H11.7137C11.9158 13.339 12.1096 13.2512 12.2525 13.0948C12.3954 12.9385 12.4756 12.7264 12.4756 12.5053V2.50107C12.4756 2.27996 12.3954 2.06791 12.2525 1.91156C12.1096 1.75521 11.9158 1.66738 11.7137 1.66738ZM4.09468 5.83582C4.2813 5.83585 4.46141 5.91082 4.60087 6.04651C4.74032 6.1822 4.82942 6.36918 4.85125 6.57197L4.85659 6.66951V10.838C4.85637 11.0505 4.78201 11.2548 4.6487 11.4093C4.51539 11.5639 4.33319 11.6568 4.13933 11.6693C3.94547 11.6817 3.75458 11.6127 3.60567 11.4763C3.45675 11.34 3.36105 11.1465 3.33811 10.9355L3.33278 10.838V6.66951C3.33278 6.44841 3.41305 6.23635 3.55593 6.08001C3.69882 5.92366 3.89261 5.83582 4.09468 5.83582ZM6.38039 5.00214C6.55883 5.00211 6.73161 5.0706 6.86862 5.19569C7.00563 5.32077 7.09817 5.4945 7.13011 5.68659C7.28358 5.58962 7.44207 5.50249 7.60478 5.42565C8.11297 5.18805 8.87411 5.05716 9.56135 5.29309C9.92173 5.41815 10.2836 5.65158 10.5518 6.04925C10.7918 6.40357 10.9213 6.83458 10.9473 7.31896L10.9518 7.5032V10.838C10.9516 11.0505 10.8772 11.2548 10.7439 11.4093C10.6106 11.5639 10.4284 11.6568 10.2346 11.6693C10.0407 11.6817 9.84982 11.6127 9.7009 11.4763C9.55199 11.34 9.45628 11.1465 9.43335 10.9355L9.42801 10.838V7.5032C9.42801 7.22809 9.36706 7.0997 9.32744 7.04051C9.2705 6.96319 9.19216 6.90819 9.1042 6.88377C8.83906 6.79207 8.45735 6.84042 8.20363 6.9588C7.82268 7.13721 7.47373 7.41733 7.23601 7.67661L7.1423 7.78666V10.838C7.14208 11.0505 7.06773 11.2548 6.93442 11.4093C6.80111 11.5639 6.61891 11.6568 6.42505 11.6693C6.23119 11.6817 6.0403 11.6127 5.89138 11.4763C5.74246 11.34 5.64676 11.1465 5.62382 10.9355L5.61849 10.838V5.83582C5.61849 5.61472 5.69876 5.40266 5.84165 5.24632C5.98453 5.08997 6.17833 5.00214 6.38039 5.00214ZM4.09468 3.33476C4.29675 3.33476 4.49054 3.42259 4.63343 3.57894C4.77631 3.73529 4.85659 3.94734 4.85659 4.16845C4.85659 4.38955 4.77631 4.60161 4.63343 4.75795C4.49054 4.9143 4.29675 5.00214 4.09468 5.00214C3.89261 5.00214 3.69882 4.9143 3.55593 4.75795C3.41305 4.60161 3.33278 4.38955 3.33278 4.16845C3.33278 3.94734 3.41305 3.73529 3.55593 3.57894C3.69882 3.42259 3.89261 3.33476 4.09468 3.33476Z" fill="#D4FDFF"/>
</svg>
