<svg width="803" height="403" viewBox="0 0 803 403" fill="none" xmlns="http://www.w3.org/2000/svg">
<path d="M706.958 194.492C706.977 195.159 706.989 195.827 706.995 196.496L705.995 196.505C705.998 196.837 706 197.168 706 197.5C706 197.832 705.998 198.163 705.995 198.495L706.995 198.504C706.989 199.173 706.977 199.841 706.958 200.508L705.958 200.48C705.94 201.141 705.915 201.801 705.884 202.461L706.883 202.507C706.852 203.173 706.815 203.837 706.772 204.501L705.774 204.436C705.731 205.093 705.682 205.75 705.627 206.405L706.623 206.489C706.567 207.154 706.505 207.818 706.437 208.481L705.442 208.379C705.374 209.037 705.301 209.693 705.221 210.349L706.214 210.47C706.133 211.131 706.046 211.792 705.954 212.452L704.963 212.313C704.871 212.966 704.773 213.619 704.67 214.27L705.657 214.428C705.552 215.086 705.441 215.742 705.324 216.398L704.34 216.222C704.224 216.872 704.102 217.52 703.974 218.168L704.956 218.361C704.827 219.015 704.692 219.667 704.551 220.319L703.573 220.107C703.434 220.753 703.288 221.397 703.137 222.04L704.11 222.27C703.958 222.919 703.799 223.567 703.634 224.214L702.665 223.967C702.503 224.606 702.334 225.244 702.16 225.88L703.125 226.144C702.95 226.785 702.769 227.426 702.582 228.065L701.622 227.784C701.437 228.417 701.246 229.049 701.049 229.681L702.004 229.978C701.806 230.615 701.602 231.25 701.392 231.884L700.442 231.57C700.234 232.199 700.021 232.826 699.802 233.452L700.746 233.783C700.527 234.408 700.302 235.033 700.072 235.656L699.134 235.31C698.906 235.928 698.673 236.545 698.434 237.16L699.366 237.522C699.125 238.143 698.878 238.762 698.626 239.381L697.7 239.003C697.451 239.617 697.195 240.229 696.935 240.84L697.854 241.232C697.593 241.845 697.326 242.456 697.054 243.066L696.141 242.659C695.873 243.258 695.6 243.857 695.322 244.455L696.229 244.877C695.949 245.479 695.663 246.08 695.373 246.68L694.473 246.244C694.184 246.839 693.891 247.433 693.592 248.025L694.485 248.475C694.184 249.072 693.878 249.668 693.567 250.263L692.681 249.799C692.375 250.383 692.065 250.965 691.75 251.546L692.629 252.023C692.313 252.605 691.992 253.185 691.666 253.764L690.795 253.274C690.471 253.849 690.143 254.423 689.81 254.995L690.675 255.498C690.339 256.075 689.999 256.65 689.654 257.224L688.797 256.709C688.454 257.278 688.107 257.847 687.755 258.414L688.604 258.942C688.255 259.504 687.902 260.064 687.543 260.623L686.701 260.084C686.467 260.45 686.23 260.816 685.991 261.182C685.869 261.368 685.747 261.554 685.624 261.741L686.459 262.291C686.093 262.846 685.722 263.4 685.347 263.952L684.52 263.389C684.147 263.938 683.77 264.485 683.388 265.031L684.207 265.604C683.823 266.153 683.434 266.701 683.041 267.248L682.229 266.664C681.846 267.196 681.459 267.727 681.067 268.256L681.872 268.851C681.478 269.383 681.081 269.914 680.679 270.443L679.882 269.838C679.483 270.364 679.079 270.889 678.672 271.413L679.46 272.027C679.05 272.554 678.635 273.079 678.217 273.603L677.436 272.979C677.019 273.5 676.599 274.019 676.174 274.537L676.948 275.171C676.53 275.681 676.108 276.19 675.681 276.698L674.915 276.055C674.493 276.558 674.066 277.061 673.635 277.562L674.394 278.213C673.961 278.717 673.524 279.22 673.083 279.721L672.332 279.06C671.894 279.558 671.451 280.055 671.005 280.551L671.748 281.22C671.299 281.718 670.847 282.215 670.39 282.711L669.655 282.033C669.209 282.517 668.76 282.999 668.307 283.48L669.035 284.166C668.582 284.647 668.125 285.127 667.665 285.605L666.945 284.912C666.487 285.387 666.025 285.862 665.56 286.335L666.274 287.036C665.806 287.511 665.335 287.985 664.86 288.458L664.155 287.75C663.683 288.22 663.207 288.689 662.727 289.157L663.426 289.872C662.95 290.337 662.47 290.8 661.987 291.261L661.296 290.538C660.822 290.992 660.344 291.444 659.863 291.895L660.547 292.625C660.063 293.078 659.576 293.53 659.085 293.98L658.409 293.244C658.181 293.453 657.953 293.662 657.723 293.87C657.462 294.109 657.199 294.347 656.935 294.584L657.604 295.327C657.107 295.775 656.607 296.221 656.104 296.666L655.441 295.917C654.942 296.358 654.438 296.798 653.932 297.237L654.587 297.993C654.089 298.424 653.588 298.854 653.084 299.283L652.437 298.521C651.935 298.948 651.43 299.373 650.923 299.797L651.564 300.565C651.054 300.99 650.541 301.415 650.024 301.838L649.39 301.065C648.877 301.486 648.36 301.906 647.84 302.324L648.467 303.103C647.945 303.524 647.419 303.943 646.891 304.36L646.271 303.576C645.752 303.986 645.231 304.395 644.706 304.802L645.319 305.592C644.798 305.997 644.274 306.4 643.747 306.802L643.141 306.007C642.616 306.407 642.088 306.806 641.558 307.204L642.158 308.004C641.625 308.404 641.09 308.802 640.552 309.198L639.959 308.393C639.423 308.788 638.884 309.182 638.342 309.574L638.929 310.384C638.385 310.778 637.839 311.17 637.289 311.561L636.709 310.747C636.174 311.128 635.636 311.508 635.096 311.886L635.669 312.705C635.128 313.084 634.584 313.462 634.037 313.839L633.47 313.015C632.926 313.39 632.379 313.763 631.829 314.136L632.39 314.964C631.838 315.337 631.284 315.71 630.727 316.081L630.172 315.248C629.617 315.618 629.06 315.986 628.5 316.353L629.048 317.189C628.487 317.557 627.924 317.923 627.358 318.288L626.816 317.447C626.264 317.803 625.71 318.157 625.154 318.51L625.689 319.354C625.131 319.709 624.57 320.062 624.006 320.413L623.477 319.565C622.916 319.915 622.352 320.264 621.786 320.612L622.309 321.464C621.741 321.813 621.17 322.16 620.598 322.507L620.08 321.651C619.51 321.996 618.936 322.339 618.361 322.682L618.872 323.541C618.296 323.884 617.718 324.225 617.138 324.564L616.633 323.701C616.066 324.033 615.497 324.364 614.925 324.693L615.425 325.559C614.851 325.89 614.276 326.219 613.698 326.546L613.205 325.677C612.945 325.824 612.685 325.971 612.424 326.118C612.107 326.297 611.789 326.475 611.471 326.652L611.959 327.526C611.377 327.851 610.792 328.174 610.206 328.497L609.724 327.62C609.14 327.942 608.553 328.262 607.964 328.58L608.44 329.46C607.85 329.779 607.258 330.097 606.664 330.414L606.194 329.531C605.614 329.84 605.032 330.148 604.448 330.454L604.913 331.34C604.327 331.647 603.739 331.953 603.149 332.258L602.69 331.369C602.102 331.673 601.512 331.975 600.92 332.276L601.374 333.168C600.78 333.47 600.184 333.771 599.586 334.07L599.138 333.176C598.542 333.474 597.944 333.772 597.344 334.067L597.787 334.964C597.185 335.261 596.581 335.556 595.975 335.851L595.539 334.951C594.945 335.239 594.35 335.526 593.753 335.811L594.184 336.713C593.588 336.998 592.99 337.282 592.389 337.565L591.964 336.66C591.365 336.942 590.765 337.222 590.163 337.501L590.583 338.409C589.98 338.689 589.374 338.967 588.766 339.245L588.351 338.335C587.745 338.611 587.138 338.887 586.528 339.16L586.938 340.073C586.327 340.347 585.714 340.621 585.099 340.893L584.695 339.978C584.087 340.247 583.478 340.514 582.867 340.78L583.267 341.697C582.661 341.961 582.054 342.224 581.445 342.485L581.051 341.566C580.722 341.707 580.392 341.848 580.061 341.989C579.783 342.107 579.504 342.225 579.224 342.343L579.613 343.265C579.001 343.523 578.387 343.781 577.771 344.037L577.387 343.113C576.773 343.369 576.158 343.623 575.54 343.875L575.919 344.801C575.3 345.054 574.679 345.306 574.057 345.557L573.683 344.63C573.062 344.88 572.44 345.129 571.816 345.376L572.185 346.306C571.571 346.549 570.955 346.791 570.338 347.032L569.975 346.101C569.36 346.341 568.744 346.58 568.126 346.817L568.484 347.75C567.865 347.989 567.244 348.225 566.621 348.461L566.267 347.526C565.646 347.761 565.024 347.994 564.4 348.227L564.749 349.164C564.123 349.397 563.496 349.628 562.867 349.859L562.523 348.92C561.896 349.149 561.267 349.378 560.637 349.605L560.976 350.546C560.348 350.772 559.719 350.997 559.088 351.221L558.753 350.279C558.132 350.499 557.51 350.718 556.886 350.935L557.215 351.88C556.59 352.098 555.963 352.315 555.334 352.531L555.01 351.585C554.733 351.68 554.456 351.775 554.178 351.869C553.828 351.989 553.476 352.108 553.125 352.227L553.445 353.174C552.814 353.387 552.181 353.599 551.547 353.81L551.232 352.861C550.599 353.071 549.965 353.28 549.33 353.487L549.64 354.438C549.003 354.646 548.365 354.852 547.725 355.058L547.42 354.106C546.788 354.309 546.155 354.51 545.521 354.71L545.822 355.664C545.191 355.863 544.559 356.061 543.926 356.258L543.629 355.302C542.998 355.499 542.365 355.693 541.73 355.887L542.022 356.843C541.386 357.037 540.749 357.23 540.111 357.422L539.823 356.464C539.186 356.655 538.548 356.845 537.909 357.033L538.191 357.992C537.55 358.181 536.908 358.369 536.264 358.555L535.986 357.595C535.344 357.781 534.7 357.965 534.056 358.149L534.329 359.111C533.691 359.292 533.051 359.473 532.409 359.652L532.14 358.689C531.743 358.8 531.345 358.91 530.946 359.02C530.708 359.086 530.469 359.152 530.229 359.218L530.494 360.182C529.854 360.358 529.213 360.532 528.571 360.705L528.311 359.739C527.67 359.912 527.029 360.083 526.386 360.253L526.641 361.22C525.997 361.391 525.351 361.56 524.704 361.728L524.453 360.76C523.808 360.927 523.161 361.093 522.513 361.258L522.76 362.228C522.111 362.393 521.461 362.557 520.809 362.72L520.567 361.75C520.198 361.842 519.829 361.933 519.459 362.025C519.184 362.093 518.909 362.16 518.634 362.228L518.872 363.199C518.229 363.357 517.585 363.513 516.94 363.668L516.707 362.696C516.063 362.85 515.418 363.004 514.772 363.156L515.002 364.129C514.355 364.282 513.706 364.433 513.057 364.583L512.832 363.609C512.184 363.758 511.535 363.907 510.885 364.054L511.105 365.029C510.454 365.177 509.801 365.323 509.147 365.468L508.931 364.491C508.279 364.636 507.625 364.779 506.971 364.921L507.183 365.899C506.532 366.04 505.881 366.18 505.228 366.318L505.02 365.34C504.374 365.478 503.727 365.614 503.079 365.748L503.283 366.727C502.633 366.862 501.983 366.996 501.332 367.129L501.132 366.149C500.482 366.281 499.831 366.412 499.179 366.542L499.374 367.523C498.721 367.653 498.067 367.782 497.411 367.909L497.22 366.928C496.566 367.055 495.911 367.181 495.255 367.306L495.442 368.288C494.785 368.413 494.126 368.537 493.467 368.659L493.284 367.676C492.923 367.743 492.562 367.81 492.2 367.876C491.905 367.93 491.611 367.984 491.316 368.037L491.494 369.021C490.843 369.139 490.191 369.256 489.538 369.372L489.364 368.387C489.044 368.444 488.724 368.5 488.403 368.556C488.071 368.614 487.739 368.672 487.406 368.729L487.576 369.715C486.922 369.828 486.266 369.94 485.609 370.05L485.443 369.064C484.788 369.174 484.132 369.283 483.475 369.391L483.637 370.378C482.979 370.486 482.319 370.593 481.659 370.699L481.501 369.711C480.843 369.816 480.183 369.92 479.522 370.023L479.676 371.011C479.014 371.114 478.351 371.216 477.688 371.317L477.538 370.328C476.884 370.427 476.23 370.525 475.574 370.621L475.72 371.61C475.064 371.707 474.408 371.802 473.75 371.896L473.609 370.906C473.294 370.951 472.98 370.996 472.665 371.04C472.323 371.089 471.981 371.137 471.638 371.184L471.776 372.175C471.117 372.266 470.457 372.356 469.797 372.445L469.663 371.454C469.004 371.543 468.344 371.631 467.683 371.717L467.812 372.709C467.15 372.795 466.487 372.88 465.823 372.964L465.697 371.972C465.035 372.056 464.372 372.139 463.707 372.22L463.829 373.213C463.167 373.294 462.505 373.373 461.842 373.452L461.724 372.459C461.068 372.536 460.411 372.613 459.753 372.688L459.867 373.682C459.207 373.757 458.547 373.831 457.887 373.904L457.777 372.91C457.117 372.983 456.457 373.054 455.796 373.124L455.902 374.119C455.24 374.189 454.577 374.258 453.913 374.326L453.811 373.331C453.149 373.399 452.486 373.466 451.822 373.531L451.92 374.526C451.255 374.591 450.589 374.655 449.922 374.718L449.828 373.723C449.163 373.785 448.497 373.847 447.83 373.907L447.92 374.903C447.26 374.963 446.598 375.021 445.936 375.078L445.85 374.082C445.584 374.105 445.318 374.128 445.052 374.15C444.658 374.184 444.265 374.216 443.871 374.249L443.953 375.246C443.291 375.3 442.628 375.353 441.965 375.405L441.887 374.408C441.581 374.433 441.274 374.456 440.967 374.48C440.611 374.507 440.255 374.534 439.899 374.561L439.974 375.558C439.309 375.607 438.644 375.656 437.978 375.703L437.907 374.705C437.243 374.752 436.578 374.798 435.912 374.842L435.978 375.84C435.311 375.885 434.643 375.928 433.975 375.97L433.912 374.972C433.246 375.014 432.58 375.054 431.913 375.094L431.971 376.092C431.31 376.131 430.648 376.169 429.986 376.205L429.931 375.207C429.643 375.223 429.356 375.238 429.068 375.254C428.694 375.274 428.32 375.293 427.946 375.312L427.997 376.311C427.333 376.345 426.669 376.378 426.004 376.409L425.957 375.41C425.293 375.442 424.629 375.472 423.964 375.501L424.008 376.5C423.342 376.529 422.675 376.557 422.008 376.584L421.968 375.584C421.302 375.611 420.635 375.636 419.968 375.66L420.004 376.659C419.336 376.683 418.667 376.706 417.997 376.728L417.965 375.728C417.3 375.75 416.634 375.77 415.968 375.789L415.996 376.788C415.334 376.807 414.671 376.824 414.007 376.841L413.983 375.841C413.733 375.847 413.484 375.853 413.234 375.859C412.821 375.868 412.408 375.878 411.994 375.886L412.015 376.886C411.35 376.9 410.685 376.912 410.019 376.924L410.002 375.924C409.338 375.935 408.673 375.945 408.007 375.954L408.02 376.954C407.354 376.963 406.686 376.97 406.018 376.976L406.009 375.976C405.342 375.983 404.675 375.988 404.008 375.991L404.013 376.991C403.344 376.995 402.675 376.998 402.005 376.999L402.003 375.999C401.669 376 401.335 376 401 376C400.666 376 400.331 376 399.997 375.999L399.995 376.999C399.325 376.998 398.656 376.995 397.987 376.991L397.993 375.991C397.325 375.988 396.658 375.983 395.991 375.976L395.982 376.976C395.314 376.97 394.647 376.963 393.98 376.954L393.993 375.954C393.327 375.945 392.662 375.935 391.998 375.924L391.981 376.924C391.315 376.912 390.65 376.9 389.985 376.886L390.006 375.886C389.343 375.872 388.68 375.857 388.018 375.841L387.993 376.841C387.329 376.824 386.666 376.807 386.004 376.788L386.032 375.789C385.366 375.77 384.7 375.75 384.035 375.728L384.003 376.728C383.333 376.706 382.664 376.684 381.996 376.659L382.032 375.66C381.365 375.636 380.698 375.611 380.032 375.584L379.992 376.584C379.325 376.557 378.659 376.529 377.992 376.5L378.036 375.501C377.371 375.472 376.707 375.442 376.043 375.41L375.996 376.409C375.331 376.378 374.667 376.345 374.003 376.311L374.054 375.312C373.392 375.278 372.73 375.243 372.069 375.207L372.014 376.205C371.352 376.169 370.69 376.131 370.029 376.092L370.087 375.094C369.42 375.054 368.754 375.014 368.088 374.972L368.025 375.97C367.357 375.928 366.689 375.885 366.022 375.84L366.088 374.842C365.422 374.798 364.757 374.752 364.093 374.705L364.022 375.703C363.356 375.656 362.691 375.607 362.026 375.558L362.101 374.561C361.438 374.511 360.775 374.46 360.113 374.408L360.035 375.405C359.372 375.353 358.709 375.3 358.047 375.246L358.129 374.249C357.469 374.194 356.809 374.139 356.15 374.082L356.064 375.078C355.402 375.021 354.74 374.963 354.08 374.903L354.17 373.907C353.503 373.847 352.837 373.785 352.172 373.723L352.078 374.718C351.411 374.655 350.745 374.591 350.08 374.526L350.178 373.531C349.514 373.466 348.851 373.399 348.189 373.331L348.087 374.326C347.423 374.258 346.76 374.189 346.098 374.119L346.204 373.124C345.543 373.054 344.882 372.983 344.223 372.91L344.113 373.904C343.453 373.831 342.793 373.757 342.133 373.682L342.247 372.688C341.98 372.658 341.713 372.627 341.446 372.596C341.055 372.551 340.665 372.505 340.276 372.459L340.158 373.452C339.495 373.373 338.833 373.294 338.171 373.213L338.293 372.22C338.02 372.187 337.748 372.153 337.476 372.119C337.085 372.071 336.694 372.022 336.303 371.972L336.177 372.964C335.513 372.88 334.85 372.795 334.188 372.709L334.317 371.717C333.656 371.631 332.996 371.543 332.337 371.454L332.203 372.445C331.543 372.356 330.883 372.266 330.224 372.175L330.362 371.184C329.704 371.093 329.047 371 328.391 370.906L328.249 371.896C327.592 371.802 326.936 371.707 326.28 371.61L326.426 370.621C325.77 370.525 325.116 370.427 324.462 370.328L324.312 371.317C323.649 371.216 322.986 371.114 322.324 371.011L322.478 370.023C321.817 369.92 321.157 369.816 320.499 369.711L320.341 370.699C319.681 370.593 319.021 370.486 318.363 370.378L318.525 369.391C317.868 369.283 317.212 369.174 316.556 369.064L316.39 370.05C315.734 369.94 315.078 369.828 314.423 369.715L314.594 368.729C314.238 368.668 313.883 368.606 313.528 368.544C313.231 368.492 312.933 368.44 312.636 368.387L312.462 369.372C311.809 369.256 311.157 369.139 310.506 369.021L310.684 368.037C310.027 367.918 309.371 367.798 308.715 367.676L308.533 368.659C307.874 368.537 307.215 368.413 306.558 368.288L306.745 367.305C306.089 367.181 305.434 367.055 304.78 366.927L304.589 367.909C303.933 367.782 303.279 367.653 302.625 367.523L302.821 366.542C302.517 366.481 302.213 366.421 301.909 366.36C301.562 366.29 301.214 366.219 300.868 366.149L300.668 367.129C300.017 366.996 299.366 366.862 298.717 366.727L298.921 365.748C298.272 365.613 297.625 365.477 296.979 365.34L296.772 366.318C296.119 366.18 295.467 366.04 294.817 365.899L295.029 364.921C294.375 364.779 293.721 364.636 293.069 364.491L292.853 365.468C292.199 365.323 291.546 365.177 290.895 365.029L291.115 364.054C290.465 363.907 289.816 363.758 289.168 363.609L288.943 364.583C288.294 364.433 287.645 364.282 286.998 364.129L287.227 363.156C286.582 363.004 285.937 362.85 285.293 362.695L285.06 363.668C284.414 363.513 283.77 363.356 283.128 363.199L283.366 362.228C282.72 362.07 282.076 361.91 281.433 361.749L281.191 362.72C280.539 362.557 279.889 362.393 279.24 362.227L279.486 361.258C278.839 361.093 278.192 360.927 277.547 360.76L277.295 361.728C276.649 361.56 276.003 361.39 275.358 361.22L275.614 360.253C274.971 360.083 274.329 359.912 273.689 359.739L273.428 360.705C272.786 360.532 272.145 360.358 271.506 360.182L271.77 359.218C271.132 359.043 270.495 358.866 269.859 358.689L269.59 359.652C268.949 359.473 268.309 359.292 267.67 359.111L267.944 358.149C267.299 357.965 266.656 357.781 266.014 357.595L265.736 358.555C265.092 358.369 264.45 358.181 263.808 357.992L264.091 357.033C263.452 356.845 262.813 356.655 262.176 356.464L261.889 357.422C261.251 357.23 260.613 357.037 259.978 356.843L260.269 355.887C259.635 355.693 259.002 355.498 258.37 355.302L258.074 356.257C257.441 356.061 256.809 355.863 256.178 355.664L256.479 354.71C255.845 354.51 255.212 354.308 254.58 354.106L254.274 355.058C253.635 354.852 252.996 354.646 252.359 354.438L252.67 353.487C252.035 353.279 251.401 353.071 250.768 352.861L250.453 353.81C249.819 353.599 249.186 353.387 248.555 353.174L248.875 352.227C248.245 352.014 247.617 351.8 246.99 351.585L246.665 352.531C246.037 352.315 245.41 352.098 244.784 351.88L245.114 350.935C244.49 350.718 243.867 350.499 243.246 350.278L242.912 351.221C242.281 350.997 241.652 350.772 241.024 350.546L241.363 349.605C240.732 349.378 240.104 349.149 239.477 348.92L239.133 349.859C238.504 349.628 237.877 349.397 237.251 349.164L237.6 348.226C236.976 347.994 236.353 347.76 235.732 347.526L235.378 348.461C234.756 348.225 234.135 347.988 233.515 347.75L233.874 346.817C233.256 346.579 232.64 346.341 232.025 346.101L231.661 347.032C231.044 346.791 230.429 346.549 229.815 346.306L230.184 345.376C229.56 345.129 228.937 344.88 228.317 344.63L227.943 345.557C227.32 345.306 226.7 345.054 226.081 344.801L226.46 343.875C225.842 343.623 225.226 343.368 224.612 343.113L224.228 344.036C223.613 343.78 222.999 343.523 222.386 343.264L222.776 342.343C222.165 342.085 221.556 341.826 220.949 341.566L220.554 342.485C219.946 342.223 219.338 341.961 218.733 341.697L219.132 340.78C218.521 340.514 217.912 340.247 217.305 339.978L216.9 340.893C216.286 340.621 215.673 340.347 215.061 340.072L215.471 339.16C214.862 338.886 214.254 338.611 213.649 338.335L213.233 339.244C212.626 338.967 212.02 338.688 211.416 338.409L211.837 337.501C211.235 337.222 210.635 336.942 210.036 336.66L209.61 337.565C209.01 337.282 208.412 336.998 207.815 336.713L208.247 335.811C207.65 335.526 207.054 335.239 206.461 334.951L206.024 335.85C205.419 335.556 204.815 335.261 204.213 334.964L204.655 334.067C204.055 333.771 203.457 333.474 202.861 333.176L202.414 334.07C201.816 333.77 201.22 333.47 200.626 333.168L201.079 332.276C200.488 331.975 199.898 331.673 199.31 331.369L198.851 332.257C198.261 331.953 197.673 331.647 197.087 331.339L197.552 330.454C196.968 330.148 196.386 329.84 195.806 329.531L195.336 330.414C194.742 330.097 194.149 329.779 193.559 329.46L194.035 328.58C193.446 328.262 192.86 327.942 192.275 327.62L191.794 328.497C191.207 328.174 190.623 327.85 190.041 327.525L190.529 326.652C189.948 326.328 189.371 326.003 188.795 325.676L188.301 326.546C187.724 326.219 187.148 325.89 186.575 325.559L187.074 324.693C186.503 324.364 185.934 324.033 185.367 323.701L184.862 324.564C184.282 324.225 183.703 323.884 183.128 323.541L183.639 322.682C183.063 322.339 182.49 321.996 181.919 321.651L181.402 322.507C180.829 322.16 180.259 321.813 179.691 321.464L180.214 320.612C179.648 320.264 179.084 319.915 178.523 319.565L177.993 320.413C177.43 320.061 176.869 319.709 176.31 319.354L176.846 318.51C176.289 318.157 175.735 317.803 175.184 317.447L174.642 318.288C174.076 317.923 173.513 317.557 172.952 317.189L173.5 316.353C172.94 315.986 172.382 315.618 171.828 315.248L171.273 316.08C170.716 315.709 170.162 315.337 169.61 314.963L170.171 314.135C169.621 313.763 169.074 313.39 168.53 313.015L167.963 313.838C167.416 313.462 166.872 313.084 166.331 312.705L166.904 311.886C166.364 311.508 165.826 311.128 165.29 310.747L164.71 311.561C164.161 311.17 163.615 310.778 163.071 310.384L163.657 309.574C163.116 309.182 162.577 308.788 162.041 308.393L161.448 309.198C160.91 308.801 160.374 308.403 159.842 308.004L160.442 307.204C159.911 306.806 159.384 306.407 158.859 306.007L158.253 306.802C157.726 306.4 157.202 305.996 156.68 305.592L157.294 304.802C156.769 304.394 156.248 303.986 155.729 303.576L155.109 304.36C154.581 303.943 154.055 303.524 153.533 303.103L154.16 302.324C153.64 301.906 153.123 301.486 152.609 301.065L151.975 301.838C151.459 301.415 150.946 300.99 150.436 300.564L151.077 299.797C150.569 299.373 150.065 298.948 149.563 298.521L148.915 299.283C148.411 298.854 147.911 298.424 147.413 297.993L148.068 297.237C147.562 296.798 147.058 296.358 146.558 295.916L145.896 296.666C145.393 296.221 144.892 295.775 144.395 295.327L145.065 294.584C144.57 294.138 144.079 293.692 143.591 293.243L142.914 293.98C142.424 293.529 141.937 293.078 141.453 292.625L142.137 291.895C141.656 291.444 141.178 290.992 140.703 290.538L140.012 291.261C139.53 290.799 139.05 290.337 138.574 289.872L139.272 289.156C138.793 288.689 138.317 288.22 137.845 287.75L137.139 288.458C136.665 287.985 136.194 287.511 135.726 287.036L136.439 286.335C135.974 285.862 135.513 285.387 135.055 284.911L134.335 285.605C133.874 285.127 133.418 284.647 132.965 284.166L133.693 283.48C133.24 282.999 132.791 282.517 132.345 282.033L131.609 282.711C131.153 282.215 130.7 281.718 130.252 281.22L130.995 280.551C130.549 280.055 130.106 279.558 129.668 279.06L128.917 279.721C128.476 279.22 128.039 278.717 127.606 278.213L128.364 277.561C127.934 277.061 127.507 276.558 127.084 276.055L126.319 276.698C125.892 276.19 125.47 275.681 125.052 275.171L125.825 274.537C125.401 274.019 124.981 273.5 124.564 272.979L123.783 273.603C123.364 273.079 122.95 272.554 122.54 272.027L123.328 271.413C122.921 270.889 122.517 270.364 122.118 269.838L121.321 270.443C120.919 269.913 120.522 269.383 120.128 268.851L120.933 268.256C120.541 267.727 120.154 267.196 119.771 266.664L118.959 267.248C118.566 266.701 118.177 266.153 117.793 265.604L118.612 265.03C118.23 264.485 117.853 263.938 117.48 263.389L116.653 263.952C116.278 263.4 115.907 262.846 115.541 262.291L116.376 261.741C116.012 261.19 115.653 260.637 115.299 260.084L114.457 260.623C114.098 260.064 113.745 259.504 113.396 258.942L114.245 258.414C113.893 257.847 113.546 257.278 113.203 256.709L112.346 257.224C112.001 256.65 111.661 256.075 111.325 255.498L112.19 254.995C111.857 254.423 111.529 253.849 111.205 253.274L110.334 253.764C110.008 253.185 109.687 252.605 109.371 252.023L110.25 251.546C109.935 250.965 109.625 250.383 109.319 249.799L108.433 250.263C108.122 249.668 107.816 249.072 107.515 248.475L108.408 248.025C108.109 247.433 107.816 246.839 107.527 246.244L106.627 246.68C106.337 246.08 106.051 245.479 105.771 244.877L106.678 244.455C106.4 243.857 106.127 243.259 105.859 242.659L104.946 243.066C104.674 242.456 104.407 241.845 104.146 241.232L105.066 240.84C104.805 240.229 104.55 239.617 104.3 239.004L103.374 239.381C103.122 238.763 102.875 238.143 102.634 237.522L103.566 237.16C103.327 236.545 103.094 235.928 102.866 235.31L101.928 235.656C101.698 235.033 101.473 234.408 101.254 233.783L102.198 233.452C101.979 232.826 101.766 232.199 101.558 231.571L100.608 231.885C100.399 231.25 100.194 230.615 99.9961 229.978L100.951 229.681C100.754 229.05 100.563 228.417 100.378 227.784L99.4183 228.065C99.2314 227.426 99.0503 226.786 98.875 226.144L99.8396 225.881C99.6655 225.244 99.4973 224.606 99.3348 223.967L98.3656 224.214C98.2011 223.567 98.0424 222.919 97.8897 222.27L98.8631 222.041C98.7117 221.397 98.5662 220.753 98.4266 220.108L97.4492 220.319C97.3084 219.668 97.1734 219.015 97.0445 218.362L98.0256 218.168C97.8978 217.521 97.776 216.872 97.6601 216.222L96.6756 216.398C96.5587 215.742 96.4478 215.086 96.3429 214.428L97.3304 214.271C97.2265 213.619 97.1286 212.966 97.0367 212.313L96.0465 212.452C95.9537 211.792 95.8671 211.132 95.7865 210.47L96.7792 210.349C96.6994 209.693 96.6257 209.037 96.558 208.379L95.5633 208.482C95.4951 207.818 95.433 207.154 95.377 206.489L96.3735 206.405C96.3184 205.75 96.2693 205.093 96.2263 204.436L95.2285 204.501C95.1851 203.837 95.1478 203.173 95.1168 202.508L96.1157 202.461C96.0849 201.802 96.0602 201.141 96.0417 200.48L95.0421 200.508C95.0234 199.841 95.0109 199.173 95.0047 198.504L96.0046 198.495C96.0015 198.163 96 197.832 96 197.5C96 197.168 96.0015 196.837 96.0046 196.505L95.0047 196.496C95.0109 195.827 95.0234 195.159 95.0421 194.492L96.0417 194.52C96.0602 193.859 96.0849 193.199 96.1157 192.539L95.1168 192.493C95.1478 191.827 95.1851 191.163 95.2285 190.499L96.2263 190.564C96.2693 189.907 96.3184 189.25 96.3735 188.595L95.377 188.511C95.4329 187.846 95.495 187.182 95.5633 186.519L96.558 186.621C96.6257 185.963 96.6994 185.307 96.7792 184.651L95.7865 184.53C95.8671 183.869 95.9537 183.208 96.0465 182.548L97.0367 182.687C97.1286 182.034 97.2265 181.381 97.3304 180.73L96.3429 180.572C96.4478 179.914 96.5587 179.258 96.6756 178.602L97.6601 178.778C97.7759 178.128 97.8978 177.48 98.0255 176.832L97.0445 176.639C97.1734 175.985 97.3083 175.333 97.4492 174.681L98.4266 174.893C98.5662 174.247 98.7117 173.603 98.8631 172.96L97.8896 172.73C98.0424 172.081 98.201 171.433 98.3656 170.786L99.3347 171.033C99.4972 170.394 99.6655 169.756 99.8396 169.12L98.875 168.856C99.0503 168.215 99.2314 167.574 99.4182 166.936L100.378 167.216C100.563 166.583 100.754 165.951 100.951 165.319L99.9961 165.022C100.194 164.385 100.399 163.75 100.608 163.116L101.558 163.43C101.766 162.801 101.979 162.174 102.198 161.548L101.254 161.217C101.473 160.592 101.698 159.967 101.928 159.344L102.866 159.69C103.094 159.072 103.327 158.455 103.566 157.84L102.634 157.478C102.875 156.857 103.122 156.238 103.374 155.619L104.3 155.997C104.55 155.383 104.805 154.771 105.065 154.16L104.146 153.768C104.407 153.155 104.674 152.544 104.946 151.934L105.859 152.341C106.127 151.742 106.4 151.143 106.678 150.545L105.771 150.123C106.051 149.521 106.337 148.92 106.627 148.32L107.527 148.756C107.816 148.161 108.109 147.567 108.408 146.975L107.515 146.525C107.816 145.928 108.122 145.332 108.433 144.737L109.319 145.201C109.625 144.618 109.935 144.035 110.25 143.454L109.371 142.977C109.687 142.395 110.008 141.815 110.334 141.236L111.205 141.726C111.529 141.151 111.857 140.577 112.19 140.005L111.325 139.502C111.661 138.925 112.001 138.35 112.346 137.776L113.203 138.291C113.546 137.722 113.893 137.153 114.245 136.586L113.396 136.058C113.745 135.496 114.098 134.936 114.457 134.377L115.299 134.916C115.653 134.363 116.012 133.81 116.376 133.259L115.541 132.709C115.907 132.154 116.278 131.6 116.653 131.048L117.48 131.611C117.853 131.062 118.23 130.515 118.612 129.969L117.793 129.396C118.177 128.847 118.566 128.299 118.959 127.752L119.771 128.336C120.154 127.804 120.541 127.273 120.933 126.744L120.128 126.149C120.522 125.617 120.919 125.086 121.321 124.557L122.118 125.162C122.517 124.636 122.921 124.111 123.329 123.587L122.54 122.973C122.95 122.446 123.365 121.921 123.783 121.397L124.564 122.021C124.981 121.5 125.401 120.981 125.825 120.463L125.052 119.829C125.47 119.319 125.892 118.81 126.319 118.302L127.085 118.945C127.507 118.442 127.934 117.939 128.364 117.438L127.606 116.787C128.039 116.283 128.476 115.78 128.917 115.279L129.668 115.94C130.106 115.442 130.549 114.945 130.995 114.449L130.252 113.78C130.7 113.282 131.153 112.785 131.61 112.289L132.345 112.967C132.791 112.483 133.24 112.001 133.693 111.52L132.965 110.834C133.418 110.353 133.875 109.873 134.335 109.395L135.055 110.088C135.513 109.613 135.975 109.138 136.44 108.665L135.726 107.964C136.194 107.489 136.665 107.015 137.14 106.542L137.845 107.25C138.317 106.78 138.793 106.311 139.273 105.843L138.574 105.128C139.05 104.663 139.53 104.2 140.013 103.739L140.704 104.462C141.178 104.008 141.656 103.556 142.137 103.105L141.454 102.375C141.937 101.922 142.424 101.47 142.915 101.02L143.591 101.756C144.079 101.308 144.57 100.861 145.065 100.416L144.396 99.6729C144.893 99.2252 145.393 98.7789 145.896 98.334L146.559 99.0835C147.058 98.6418 147.562 98.2015 148.068 97.7626L147.413 97.0069C147.911 96.5756 148.412 96.1457 148.916 95.7171L149.563 96.4788C150.065 96.0522 150.57 95.627 151.077 95.203L150.436 94.4354C150.946 94.0096 151.459 93.585 151.976 93.1619L152.61 93.9352C153.123 93.514 153.64 93.0941 154.16 92.6756L153.533 91.8966C154.055 91.4762 154.581 91.0572 155.109 90.6395L155.729 91.424C156.248 91.014 156.769 90.6054 157.294 90.198L156.681 89.4082C157.202 89.0035 157.726 88.6001 158.253 88.198L158.86 88.993C159.384 88.5926 159.912 88.1936 160.442 87.7959L159.842 86.9959C160.375 86.5965 160.91 86.1985 161.448 85.8019L162.041 86.6069C162.577 86.2119 163.116 85.8182 163.658 85.4259L163.071 84.6161C163.615 84.2222 164.161 83.8297 164.711 83.4386L165.291 84.2532C165.826 83.8721 166.364 83.4922 166.904 83.1138L166.331 82.2946C166.872 81.9156 167.416 81.5378 167.963 81.1615L168.53 81.9851C169.074 81.6102 169.621 81.2366 170.171 80.8644L169.61 80.0364C170.162 79.6627 170.717 79.2903 171.273 78.9194L171.828 79.7516C172.383 79.3821 172.94 79.0138 173.5 78.647L172.952 77.8105C173.513 77.4431 174.076 77.077 174.642 76.7122L175.184 77.5528C175.736 77.1972 176.29 76.843 176.846 76.49L176.311 75.6455C176.869 75.2913 177.43 74.9384 177.994 74.5868L178.523 75.4351C179.084 75.0848 179.648 74.7358 180.214 74.3882L179.691 73.536C180.259 73.1871 180.83 72.8395 181.402 72.4933L181.92 73.3492C182.49 73.0042 183.064 72.6605 183.639 72.3182L183.128 71.4587C183.704 71.1163 184.282 70.7752 184.862 70.4355L185.367 71.2986C185.934 70.9668 186.503 70.6363 187.075 70.3071L186.575 69.4406C187.149 69.1103 187.724 68.7813 188.302 68.4536L188.795 69.3233C189.371 68.9968 189.949 68.6715 190.529 68.3475L190.041 67.4744C190.623 67.1494 191.208 66.8257 191.794 66.5033L192.276 67.3796C192.86 67.0583 193.447 66.7383 194.036 66.4197L193.56 65.5402C194.15 65.2209 194.742 64.9029 195.336 64.5862L195.806 65.4688C196.386 65.1599 196.968 64.8523 197.552 64.5459L197.087 63.6604C197.673 63.3531 198.261 63.0471 198.851 62.7424L199.31 63.6308C199.898 63.3271 200.488 63.0247 201.08 62.7235L200.626 61.8322C201.22 61.5302 201.816 61.2294 202.414 60.93L202.862 61.8241C203.458 61.5256 204.056 61.2284 204.656 60.9326L204.213 60.0357C204.815 59.739 205.419 59.4435 206.025 59.1494L206.462 60.049C207.055 59.761 207.65 59.4743 208.247 59.1889L207.816 58.2867C208.412 58.0015 209.01 57.7177 209.611 57.4351L210.036 58.3399C210.635 58.0581 211.235 57.7777 211.837 57.4986L211.417 56.5914C212.02 56.3114 212.626 56.0328 213.234 55.7554L213.649 56.6651C214.255 56.3886 214.862 56.1134 215.472 55.8395L215.062 54.9274C215.673 54.6527 216.286 54.3794 216.901 54.1073L217.305 55.0218C217.913 54.7531 218.522 54.4857 219.133 54.2195L218.733 53.3028C219.339 53.039 219.946 52.7765 220.555 52.5152L220.949 53.4342C221.556 53.1737 222.165 52.9145 222.776 52.6566L222.387 51.7354C222.999 51.4768 223.613 51.2194 224.229 50.9634L224.613 51.8867C225.227 51.6314 225.842 51.3773 226.46 51.1246L226.081 50.1991C226.7 49.9457 227.321 49.6936 227.943 49.4428L228.317 50.3703C228.938 50.1202 229.56 49.8713 230.184 49.6238L229.815 48.6943C230.429 48.4508 231.045 48.2086 231.662 47.9677L232.025 48.8992C232.64 48.6592 233.256 48.4204 233.874 48.1829L233.516 47.2495C234.135 47.0114 234.756 46.7746 235.379 46.5391L235.733 47.4744C236.354 47.2395 236.976 47.0058 237.6 46.7735L237.251 45.8363C237.877 45.6034 238.504 45.3717 239.133 45.1414L239.477 46.0803C240.104 45.8506 240.733 45.6221 241.363 45.395L241.024 44.4542C241.652 44.2279 242.281 44.0028 242.912 43.779L243.247 44.7215C243.868 44.5012 244.49 44.2822 245.114 44.0645L244.785 43.1203C245.41 42.9021 246.037 42.6851 246.666 42.4693L246.99 43.4151C247.617 43.2 248.245 42.986 248.875 42.7734L248.555 41.826C249.186 41.6128 249.819 41.4009 250.453 41.1903L250.768 42.1393C251.401 41.9293 252.035 41.7205 252.67 41.513L252.36 40.5624C252.997 40.3544 253.635 40.1477 254.275 39.9422L254.58 40.8944C255.212 40.6915 255.845 40.4899 256.479 40.2896L256.178 39.336C256.809 39.1369 257.441 38.9391 258.074 38.7425L258.371 39.6975C259.002 39.5014 259.635 39.3066 260.27 39.113L259.978 38.1565C260.614 37.9625 261.251 37.7697 261.889 37.5782L262.177 38.5361C262.814 38.345 263.452 38.1553 264.092 37.9668L263.809 37.0076C264.45 36.8186 265.092 36.631 265.736 36.4446L266.014 37.4052C266.656 37.2192 267.3 37.0346 267.944 36.8512L267.671 35.8894C268.309 35.7077 268.949 35.5273 269.591 35.3482L269.86 36.3113C270.495 36.1337 271.132 35.9573 271.771 35.7822L271.506 34.8179C272.146 34.6424 272.787 34.4681 273.429 34.2951L273.689 35.2607C274.33 35.0881 274.971 34.9168 275.614 34.7467L275.359 33.7799C276.003 33.6095 276.649 33.4403 277.296 33.2724L277.547 34.2403C278.192 34.0728 278.839 33.9065 279.487 33.7415L279.24 32.7725C279.889 32.6071 280.539 32.4431 281.191 32.2803L281.433 33.2505C282.076 33.0898 282.721 32.9304 283.366 32.7723L283.128 31.801C283.771 31.6435 284.415 31.4872 285.06 31.3321L285.293 32.3044C285.937 32.1498 286.582 31.9963 287.228 31.8441L286.998 30.8708C287.645 30.7183 288.294 30.567 288.943 30.417L289.168 31.3914C289.816 31.2417 290.465 31.0933 291.115 30.9462L290.895 29.9709C291.546 29.8234 292.199 29.6772 292.853 29.5323L293.069 30.5086C293.721 30.364 294.375 30.2207 295.029 30.0786L294.817 29.1014C295.468 28.9602 296.119 28.8203 296.772 28.6816L296.98 29.6598C297.626 29.5225 298.273 29.3865 298.921 29.2517L298.717 28.2726C299.367 28.1376 300.017 28.0037 300.668 27.8712L300.868 28.8511C301.518 28.7188 302.169 28.5878 302.821 28.458L302.626 27.4773C303.279 27.3472 303.933 27.2184 304.589 27.0909L304.78 28.0725C305.434 27.9452 306.089 27.8192 306.745 27.6945L306.558 26.7121C307.215 26.5871 307.874 26.4634 308.533 26.3409L308.716 27.3241C309.371 27.2024 310.027 27.082 310.684 26.9628L310.506 25.9788C311.157 25.8608 311.809 25.7439 312.462 25.6284L312.636 26.613C313.288 26.4977 313.94 26.3836 314.594 26.2708L314.424 25.2854C315.078 25.1723 315.734 25.0604 316.391 24.9498L316.557 25.936C317.212 25.8256 317.868 25.7165 318.525 25.6087L318.363 24.6219C319.021 24.5138 319.681 24.407 320.341 24.3015L320.499 25.2889C321.157 25.1836 321.817 25.0795 322.478 24.9767L322.324 23.9886C322.986 23.8856 323.649 23.7839 324.312 23.6834L324.462 24.6721C325.116 24.5732 325.77 24.4755 326.426 24.379L326.28 23.3896C326.936 23.2931 327.592 23.1979 328.25 23.1038L328.391 24.0937C329.047 23.9999 329.704 23.9073 330.362 23.816L330.224 22.8255C330.883 22.7339 331.543 22.6437 332.203 22.5546L332.337 23.5457C332.996 23.4568 333.656 23.3692 334.317 23.2829L334.188 22.2913C334.85 22.2048 335.513 22.1195 336.177 22.0355L336.303 23.0276C336.965 22.9438 337.628 22.8612 338.293 22.7799L338.171 21.7873C338.833 21.7064 339.495 21.6266 340.158 21.5481L340.276 22.5412C340.932 22.4635 341.589 22.3871 342.247 22.3119L342.133 21.3184C342.793 21.243 343.453 21.1689 344.113 21.096L344.223 22.09C344.882 22.0173 345.543 21.9458 346.204 21.8756L346.098 20.8812C346.76 20.8108 347.423 20.7417 348.087 20.6738L348.189 21.6686C348.851 21.6009 349.514 21.5344 350.178 21.4692L350.08 20.474C350.745 20.4086 351.411 20.3445 352.078 20.2817L352.172 21.2773C352.837 21.2146 353.503 21.1531 354.17 21.0929L354.08 20.097C354.74 20.0373 355.402 19.979 356.064 19.9218L356.15 20.9181C356.809 20.8612 357.469 20.8055 358.129 20.7511L358.047 19.7545C358.709 19.6999 359.372 19.6466 360.035 19.5946L360.113 20.5915C360.775 20.5396 361.438 20.4889 362.101 20.4394L362.026 19.4422C362.691 19.3926 363.356 19.3443 364.022 19.2973L364.093 20.2948C364.757 20.2478 365.422 20.2021 366.088 20.1577L366.022 19.1599C366.689 19.1154 367.357 19.0721 368.025 19.0301L368.088 20.0281C368.754 19.9862 369.42 19.9457 370.087 19.9063L370.029 18.9081C370.69 18.8691 371.352 18.8313 372.014 18.7948L372.069 19.7933C372.73 19.7568 373.392 19.7216 374.054 19.6877L374.003 18.689C374.667 18.655 375.331 18.6222 375.996 18.5906L376.043 19.5895C376.707 19.558 377.371 19.5278 378.036 19.4988L377.992 18.4998C378.658 18.4707 379.325 18.4429 379.992 18.4164L380.032 19.4156C380.698 19.3891 381.365 19.3639 382.032 19.3399L381.996 18.3405C382.664 18.3165 383.333 18.2937 384.003 18.2722L384.035 19.2717C384.7 19.2504 385.366 19.2302 386.032 19.2114L386.004 18.2118C386.666 18.193 387.329 18.1755 387.993 18.1592L388.017 19.1589C388.68 19.1427 389.343 19.1277 390.006 19.1139L389.985 18.1141C390.65 18.1003 391.315 18.0878 391.981 18.0765L391.998 19.0763C392.662 19.065 393.327 19.055 393.993 19.0462L393.98 18.0463C394.646 18.0375 395.314 18.03 395.982 18.0237L395.991 19.0236C396.658 19.0173 397.325 19.0123 397.992 19.0085L397.987 18.0085C398.656 18.0047 399.325 18.0022 399.995 18.0009L399.997 19.0009C400.331 19.0003 400.665 19 401 19C401.334 19 401.669 19.0003 402.003 19.0009L402.005 18.0009C402.675 18.0022 403.344 18.0047 404.013 18.0085L404.007 19.0085C404.675 19.0123 405.342 19.0173 406.009 19.0236L406.018 18.0236C406.686 18.0299 407.353 18.0375 408.02 18.0463L408.007 19.0462C408.672 19.055 409.337 19.065 410.002 19.0763L410.019 18.0765C410.685 18.0878 411.35 18.1003 412.015 18.1141L411.994 19.1139C412.657 19.1277 413.32 19.1427 413.982 19.1589L414.007 18.1592C414.67 18.1755 415.334 18.193 415.996 18.2118L415.968 19.2114C416.634 19.2302 417.3 19.2504 417.965 19.2717L417.997 18.2722C418.667 18.2937 419.336 18.3165 420.004 18.3405L419.968 19.3399C420.635 19.3639 421.302 19.3891 421.968 19.4156L422.008 18.4164C422.675 18.4429 423.341 18.4707 424.008 18.4997L423.964 19.4988C424.629 19.5278 425.293 19.558 425.957 19.5895L426.004 18.5906C426.669 18.6222 427.333 18.655 427.997 18.689L427.945 19.6877C428.608 19.7216 429.27 19.7568 429.931 19.7933L429.986 18.7948C430.648 18.8313 431.31 18.8691 431.971 18.908L431.912 19.9063C432.58 19.9456 433.246 19.9862 433.912 20.0281L433.975 19.0301C434.643 19.0721 435.311 19.1153 435.978 19.1599L435.912 20.1577C436.577 20.2021 437.243 20.2478 437.907 20.2948L437.978 19.2973C438.644 19.3443 439.309 19.3926 439.973 19.4422L439.899 20.4394C440.562 20.4889 441.225 20.5396 441.887 20.5915L441.965 19.5946C442.628 19.6466 443.291 19.6999 443.953 19.7545L443.871 20.7511C444.531 20.8055 445.191 20.8612 445.85 20.9181L445.936 19.9218C446.598 19.979 447.26 20.0373 447.92 20.097L447.83 21.0929C448.497 21.1531 449.163 21.2146 449.828 21.2773L449.922 20.2817C450.589 20.3445 451.255 20.4086 451.92 20.474L451.822 21.4692C452.486 21.5344 453.149 21.6009 453.811 21.6686L453.913 20.6738C454.577 20.7417 455.24 20.8108 455.902 20.8812L455.796 21.8756C456.457 21.9458 457.117 22.0173 457.777 22.09L457.887 21.096C458.547 21.1689 459.207 21.243 459.867 21.3184L459.753 22.3119C460.411 22.3871 461.068 22.4635 461.724 22.5412L461.842 21.5481C462.505 21.6266 463.167 21.7064 463.829 21.7873L463.707 22.7799C464.372 22.8612 465.035 22.9438 465.697 23.0276L465.823 22.0355C466.487 22.1195 467.15 22.2048 467.812 22.2913L467.683 23.2829C468.344 23.3692 469.004 23.4568 469.663 23.5457L469.797 22.5546C470.457 22.6437 471.117 22.7339 471.776 22.8255L471.638 23.816C472.296 23.9073 472.953 23.9999 473.609 24.0938L473.751 23.1038C474.408 23.1979 475.064 23.2931 475.72 23.3897L475.574 24.379C476.23 24.4755 476.884 24.5732 477.538 24.6721L477.688 23.6834C478.351 23.7839 479.014 23.8856 479.676 23.9886L479.522 24.9767C480.183 25.0795 480.843 25.1836 481.501 25.2889L481.659 24.3015C482.319 24.407 482.979 24.5138 483.637 24.6219L483.475 25.6087C484.132 25.7165 484.788 25.8256 485.443 25.936L485.61 24.9499C486.266 25.0605 486.922 25.1723 487.577 25.2854L487.406 26.2708C488.06 26.3836 488.712 26.4977 489.364 26.6131L489.538 25.6284C490.191 25.744 490.843 25.8608 491.494 25.9789L491.316 26.9628C491.973 27.082 492.629 27.2024 493.285 27.3241L493.467 26.341C494.126 26.4634 494.785 26.5871 495.442 26.7121L495.255 27.6945C495.911 27.8193 496.566 27.9452 497.22 28.0725L497.411 27.0909C498.067 27.2184 498.721 27.3472 499.375 27.4773L499.179 28.458C499.831 28.5878 500.482 28.7189 501.132 28.8511L501.332 27.8712C501.983 28.0038 502.634 28.1376 503.283 28.2727L503.079 29.2517C503.727 29.3865 504.374 29.5225 505.02 29.6598L505.228 28.6816C505.881 28.8203 506.533 28.9602 507.183 29.1014L506.971 30.0787C507.625 30.2207 508.279 30.3641 508.931 30.5086L509.147 29.5323C509.801 29.6773 510.454 29.8234 511.105 29.9709L510.885 30.9462C511.535 31.0934 512.184 31.2418 512.832 31.3914L513.057 30.4171C513.706 30.5671 514.355 30.7183 515.002 30.8709L514.773 31.8442C515.418 31.9964 516.063 32.1498 516.707 32.3045L516.94 31.3322C517.586 31.4872 518.229 31.6435 518.872 31.801L518.634 32.7723C519.28 32.9305 519.924 33.0899 520.567 33.2505L520.809 32.2803C521.461 32.4431 522.111 32.6072 522.76 32.7725L522.514 33.7416C523.161 33.9066 523.808 34.0728 524.453 34.2404L524.704 33.2724C525.351 33.4404 525.997 33.6095 526.642 33.78L526.386 34.7468C527.029 34.9168 527.671 35.0882 528.311 35.2607L528.571 34.2952C529.214 34.4682 529.855 34.6424 530.494 34.818L530.23 35.7823C530.868 35.9574 531.505 36.1338 532.141 36.3114L532.41 35.3483C533.051 35.5274 533.691 35.7078 534.33 35.8895L534.056 36.8513C534.701 37.0347 535.344 37.2193 535.986 37.4053L536.264 36.4447C536.908 36.6311 537.55 36.8187 538.191 37.0077L537.909 37.9669C538.548 38.1554 539.187 38.3451 539.824 38.5362L540.111 37.5783C540.749 37.7698 541.387 37.9626 542.022 38.1566L541.731 39.1131C542.365 39.3067 542.998 39.5015 543.63 39.6976L543.926 38.7426C544.559 38.9392 545.191 39.137 545.822 39.3361L545.521 40.2897C546.155 40.49 546.788 40.6916 547.42 40.8944L547.726 39.9423C548.365 40.1478 549.004 40.3545 549.641 40.5625L549.33 41.5131C549.965 41.7206 550.599 41.9294 551.232 42.1394L551.547 41.1904C552.181 41.401 552.814 41.6129 553.445 41.8261L553.125 42.7735C553.755 42.9861 554.383 43.2001 555.01 43.4152L555.335 42.4694C555.963 42.6852 556.59 42.9022 557.216 43.1204L556.886 44.0646C557.51 44.2823 558.133 44.5013 558.754 44.7216L559.088 43.7791C559.719 44.0029 560.348 44.228 560.976 44.4543L560.637 45.3951C561.268 45.6222 561.896 45.8507 562.523 46.0804L562.867 45.1415C563.496 45.3718 564.123 45.6035 564.749 45.8364L564.4 46.7736C565.024 47.0059 565.647 47.2396 566.268 47.4745L566.622 46.5392C567.244 46.7747 567.865 47.0115 568.485 47.2496L568.126 48.1831C568.744 48.4205 569.36 48.6593 569.975 48.8993L570.339 47.9678C570.956 48.2087 571.571 48.4509 572.185 48.6944L571.816 49.6239C572.44 49.8714 573.063 50.1203 573.683 50.3704L574.057 49.4429C574.68 49.6937 575.3 49.9458 575.919 50.1993L575.54 51.1247C576.158 51.3774 576.773 51.6315 577.388 51.8868L577.771 50.9635C578.387 51.2195 579.001 51.4769 579.614 51.7355L579.224 52.6567C579.835 52.9146 580.444 53.1739 581.051 53.4344L581.445 52.5153C582.054 52.7766 582.662 53.0391 583.267 53.3029L582.868 54.2197C583.479 54.4858 584.088 54.7532 584.695 55.0219L585.1 54.1074C585.714 54.3795 586.327 54.6529 586.939 54.9275L586.529 55.8397C587.138 56.1135 587.746 56.3888 588.351 56.6653L588.767 55.7556C589.374 56.0329 589.98 56.3115 590.584 56.5915L590.163 57.4987C590.765 57.7779 591.365 58.0583 591.964 58.34L592.39 57.4352C592.99 57.7178 593.588 58.0017 594.185 58.2868L593.753 59.189C594.35 59.4744 594.946 59.7612 595.539 60.0492L595.976 59.1496C596.581 59.4437 597.185 59.7391 597.787 60.0358L597.345 60.9327C597.945 61.2286 598.543 61.5258 599.139 61.8242L599.586 60.9301C600.184 61.2295 600.78 61.5303 601.374 61.8324L600.92 62.7237C601.512 63.0248 602.102 63.3272 602.69 63.631L603.149 62.7425C603.739 63.0472 604.327 63.3532 604.913 63.6605L604.448 64.5461C605.032 64.8524 605.614 65.16 606.194 65.4689L606.664 64.5864C607.258 64.903 607.851 65.221 608.441 65.5404L607.965 66.4198C608.554 66.7385 609.14 67.0585 609.725 67.3798L610.206 66.5035C610.793 66.8258 611.377 67.1495 611.959 67.4746L611.471 68.3477C612.052 68.6716 612.629 68.9969 613.205 69.3235L613.699 68.4537C614.276 68.7814 614.852 69.1104 615.425 69.4408L614.926 70.3072C615.497 70.6364 616.066 70.9669 616.633 71.2987L617.138 70.4357C617.719 70.7754 618.297 71.1165 618.872 71.4589L618.361 72.3184C618.937 72.6607 619.51 73.0043 620.081 73.3493L620.598 72.4935C621.171 72.8397 621.741 73.1873 622.309 73.5362L621.786 74.3883C622.352 74.736 622.916 75.085 623.477 75.4353L624.007 74.587C624.57 74.9385 625.131 75.2915 625.69 75.6457L625.154 76.4902C625.711 76.8431 626.265 77.1974 626.816 77.5529L627.358 76.7124C627.924 77.0771 628.487 77.4432 629.048 77.8107L628.5 78.6472C629.06 79.014 629.618 79.3822 630.172 79.7518L630.727 78.9195C631.284 79.2905 631.838 79.6628 632.39 80.0365L631.829 80.8645C632.379 81.2368 632.926 81.6104 633.47 81.9853L634.037 81.1616C634.584 81.538 635.128 81.9157 635.669 82.2948L635.096 83.114C635.636 83.4924 636.174 83.8722 636.71 84.2534L637.29 83.4388C637.839 83.8299 638.385 84.2224 638.929 84.6163L638.343 85.4261C638.884 85.8184 639.423 86.2121 639.959 86.6071L640.552 85.802C641.09 86.1987 641.626 86.5967 642.158 86.996L641.558 87.7961C642.089 88.1938 642.616 88.5928 643.141 88.9932L643.747 88.1982C644.274 88.6002 644.798 89.0036 645.32 89.4084L644.706 90.1982C645.231 90.6055 645.752 91.0142 646.271 91.4242L646.891 90.6397C647.419 91.0574 647.945 91.4764 648.467 91.8968L647.84 92.6757C648.36 93.0943 648.877 93.5142 649.391 93.9354L650.025 93.1621C650.541 93.5852 651.054 94.0097 651.564 94.4356L650.923 95.2032C651.431 95.6271 651.935 96.0524 652.437 96.479L653.085 95.7173C653.589 96.1459 654.089 96.5758 654.587 97.007L653.932 97.7628C654.438 98.2017 654.942 98.642 655.442 99.0836L656.104 98.3342C656.607 98.7791 657.108 99.2254 657.605 99.673L656.935 100.416C657.43 100.862 657.921 101.308 658.409 101.757L659.086 101.02C659.576 101.471 660.063 101.922 660.547 102.375L659.863 103.105C660.344 103.556 660.822 104.008 661.297 104.462L661.988 103.739C662.47 104.201 662.95 104.663 663.426 105.128L662.728 105.844C663.207 106.311 663.683 106.78 664.155 107.25L664.861 106.542C665.335 107.015 665.806 107.489 666.274 107.964L665.561 108.665C666.026 109.138 666.487 109.613 666.945 110.089L667.665 109.395C668.125 109.873 668.582 110.353 669.035 110.834L668.307 111.52C668.76 112.001 669.209 112.483 669.655 112.967L670.391 112.289C670.847 112.785 671.3 113.282 671.748 113.78L671.005 114.449C671.451 114.945 671.894 115.442 672.332 115.94L673.083 115.279C673.524 115.78 673.961 116.283 674.394 116.787L673.636 117.439C674.066 117.939 674.493 118.442 674.916 118.945L675.681 118.302C676.108 118.81 676.53 119.319 676.948 119.829L676.175 120.463C676.599 120.981 677.019 121.5 677.436 122.021L678.217 121.397C678.636 121.921 679.05 122.446 679.46 122.973L678.672 123.587C679.079 124.111 679.483 124.636 679.882 125.162L680.679 124.557C681.081 125.087 681.478 125.617 681.872 126.149L681.068 126.744C681.459 127.273 681.846 127.804 682.229 128.336L683.041 127.752C683.434 128.299 683.823 128.847 684.207 129.396L683.388 129.97C683.77 130.515 684.147 131.062 684.52 131.611L685.347 131.048C685.722 131.6 686.093 132.154 686.459 132.709L685.624 133.259C685.988 133.81 686.347 134.363 686.701 134.916L687.543 134.377C687.902 134.936 688.255 135.496 688.604 136.058L687.755 136.586C688.107 137.153 688.454 137.722 688.797 138.291L689.654 137.776C689.999 138.35 690.339 138.925 690.675 139.502L689.81 140.005C690.143 140.577 690.471 141.151 690.795 141.726L691.666 141.236C691.992 141.815 692.313 142.395 692.629 142.977L691.75 143.454C692.065 144.035 692.375 144.617 692.681 145.201L693.567 144.737C693.878 145.332 694.184 145.928 694.485 146.525L693.592 146.975C693.891 147.567 694.184 148.161 694.473 148.756L695.373 148.32C695.663 148.92 695.949 149.521 696.229 150.123L695.322 150.545C695.6 151.143 695.873 151.741 696.141 152.341L697.054 151.934C697.326 152.544 697.593 153.155 697.854 153.768L696.934 154.16C697.195 154.771 697.45 155.383 697.7 155.996L698.626 155.619C698.878 156.237 699.125 156.857 699.366 157.478L698.434 157.84C698.673 158.455 698.906 159.072 699.134 159.69L700.072 159.344C700.302 159.967 700.527 160.592 700.746 161.217L699.802 161.548C700.021 162.174 700.234 162.801 700.442 163.429L701.392 163.115C701.601 163.75 701.805 164.385 702.004 165.022L701.049 165.319C701.246 165.95 701.437 166.583 701.622 167.216L702.582 166.935C702.769 167.574 702.95 168.214 703.125 168.856L702.16 169.119C702.334 169.756 702.503 170.394 702.665 171.033L703.634 170.786C703.799 171.433 703.958 172.081 704.11 172.73L703.137 172.959C703.288 173.603 703.434 174.247 703.573 174.892L704.551 174.681C704.692 175.332 704.827 175.985 704.956 176.638L703.974 176.832C704.102 177.479 704.224 178.128 704.34 178.778L705.324 178.602C705.441 179.258 705.552 179.914 705.657 180.572L704.67 180.729C704.773 181.381 704.871 182.034 704.963 182.687L705.953 182.548C706.046 183.208 706.133 183.868 706.213 184.53L705.221 184.651C705.301 185.307 705.374 185.963 705.442 186.621L706.437 186.518C706.505 187.182 706.567 187.846 706.623 188.511L705.626 188.595C705.682 189.25 705.731 189.907 705.774 190.564L706.772 190.499C706.815 191.163 706.852 191.827 706.883 192.492L705.884 192.539C705.915 193.198 705.94 193.859 705.958 194.52L706.958 194.492Z" stroke="#D4FDFF" stroke-width="2" stroke-dasharray="2 2"/>
<rect y="168" width="191" height="58" rx="29" fill="#7DF9FF"/>
<rect x="612" y="168" width="191" height="58" rx="29" fill="#7DF9FF"/>
<rect x="257" y="153" width="289" height="88" rx="44" fill="#7DF9FF"/>
<path d="M47.6149 195.26C49.2949 195.46 50.5549 196 51.3949 196.88C52.2349 197.76 52.6549 198.92 52.6549 200.36C52.6549 202.1 52.0249 203.48 50.7649 204.5C49.5249 205.5 47.7249 206 45.3649 206H38.4049V185.6H45.2149C46.9949 185.6 48.3749 185.82 49.3549 186.26C50.2549 186.66 50.9349 187.25 51.3949 188.03C51.8749 188.81 52.1149 189.65 52.1149 190.55C52.1149 191.65 51.7249 192.64 50.9449 193.52C50.1849 194.38 49.0749 194.96 47.6149 195.26ZM42.8149 188.03V194.27H44.5849C45.6249 194.27 46.3849 194.02 46.8649 193.52C47.3649 193 47.6149 192.13 47.6149 190.91C47.6149 190.33 47.5449 189.84 47.4049 189.44C47.2849 189.04 47.0649 188.73 46.7449 188.51C46.3449 188.19 45.6949 188.03 44.7949 188.03H42.8149ZM44.7949 203.57C45.9149 203.57 46.7449 203.28 47.2849 202.7C47.8449 202.1 48.1249 201.16 48.1249 199.88C48.1249 198.7 47.8549 197.86 47.3149 197.36C46.7949 196.84 45.9549 196.58 44.7949 196.58H42.8149V203.57H44.7949ZM64.4995 203.45C64.0195 204.39 63.4395 205.08 62.7595 205.52C62.0795 205.96 61.1295 206.18 59.9095 206.18C58.4295 206.18 57.3495 205.82 56.6695 205.1C56.0095 204.38 55.6795 203.27 55.6795 201.77V190.79H60.0295V200.63C60.0295 201.71 60.1695 202.45 60.4495 202.85C60.7295 203.23 61.1395 203.42 61.6795 203.42C62.5395 203.42 63.1995 203.04 63.6595 202.28C64.1395 201.52 64.3795 200.5 64.3795 199.22V190.79H68.7295V206H65.0395L64.4995 203.45ZM85.5089 190.79L77.5289 212.96H73.8689C74.8689 210.88 75.6389 209.07 76.1789 207.53C76.3189 207.13 76.3889 206.72 76.3889 206.3C76.3889 205.74 76.2289 205.04 75.9089 204.2L70.8689 190.79H75.5489L78.1289 197.87L78.9989 201.32L79.8389 197.87L82.3289 190.79H85.5089ZM103.968 189.14C103.428 188.38 102.388 188 100.848 188C99.7675 188 98.9375 188.23 98.3575 188.69C97.7775 189.13 97.4875 189.78 97.4875 190.64C97.4875 191.24 97.6375 191.72 97.9375 192.08C98.2575 192.42 98.6575 192.69 99.1375 192.89C99.6375 193.07 100.448 193.32 101.568 193.64C103.008 194.02 104.158 194.42 105.018 194.84C105.898 195.26 106.588 195.87 107.088 196.67C107.608 197.45 107.868 198.5 107.868 199.82C107.868 202.02 107.188 203.65 105.828 204.71C104.468 205.77 102.648 206.3 100.368 206.3C98.0675 206.3 96.2675 205.78 94.9675 204.74C93.6875 203.7 93.0475 202.19 93.0475 200.21C93.0475 200.03 93.0675 199.72 93.1075 199.28H95.7775C95.6975 200.44 95.9875 201.45 96.6475 202.31C97.3075 203.17 98.4475 203.6 100.068 203.6C101.208 203.6 102.078 203.36 102.678 202.88C103.298 202.4 103.608 201.71 103.608 200.81C103.608 200.15 103.448 199.64 103.128 199.28C102.808 198.9 102.408 198.62 101.928 198.44C101.448 198.26 100.728 198.05 99.7675 197.81C98.3075 197.45 97.1375 197.06 96.2575 196.64C95.3775 196.22 94.6675 195.62 94.1275 194.84C93.5875 194.04 93.3175 192.97 93.3175 191.63C93.3175 189.51 93.9675 187.93 95.2675 186.89C96.5875 185.83 98.3175 185.3 100.458 185.3C102.598 185.3 104.278 185.8 105.498 186.8C106.718 187.8 107.328 189.27 107.328 191.21C107.328 191.51 107.318 191.74 107.298 191.9H104.628C104.648 191.76 104.658 191.62 104.658 191.48C104.658 190.6 104.428 189.82 103.968 189.14ZM111.288 183.8H115.638V188.42H111.288V183.8ZM111.288 190.79H115.638V206H111.288V190.79ZM128.903 203.3C128.463 204.28 127.893 205.01 127.193 205.49C126.513 205.95 125.693 206.18 124.733 206.18C122.853 206.18 121.413 205.58 120.413 204.38C119.433 203.18 118.943 201.28 118.943 198.68C118.943 195.9 119.493 193.86 120.593 192.56C121.693 191.26 123.143 190.61 124.943 190.61C125.923 190.61 126.683 190.81 127.223 191.21C127.783 191.61 128.273 192.26 128.693 193.16V183.8H133.043V206H129.773L128.903 203.3ZM128.693 198.32C128.693 196.76 128.473 195.51 128.033 194.57C127.593 193.63 126.913 193.16 125.993 193.16C125.133 193.16 124.493 193.6 124.073 194.48C123.673 195.36 123.473 196.71 123.473 198.53C123.473 200.27 123.653 201.56 124.013 202.4C124.393 203.22 125.013 203.63 125.873 203.63C126.793 203.63 127.493 203.16 127.973 202.22C128.453 201.26 128.693 199.96 128.693 198.32ZM149.966 198.89H140.786C140.826 200.65 141.116 201.9 141.656 202.64C142.216 203.36 143.066 203.72 144.206 203.72C146.106 203.72 147.146 202.76 147.326 200.84L149.786 201.11C149.646 202.79 149.036 204.08 147.956 204.98C146.876 205.86 145.376 206.3 143.456 206.3C141.296 206.3 139.566 205.69 138.266 204.47C136.986 203.23 136.346 201.27 136.346 198.59C136.346 195.85 137.016 193.82 138.356 192.5C139.716 191.16 141.476 190.49 143.636 190.49C147.856 190.49 149.966 193.03 149.966 198.11V198.89ZM144.266 196.85C144.806 196.85 145.156 196.76 145.316 196.58C145.476 196.4 145.556 196.1 145.556 195.68C145.556 194.68 145.376 193.92 145.016 193.4C144.656 192.86 144.126 192.59 143.426 192.59C142.646 192.59 142.026 192.94 141.566 193.64C141.106 194.32 140.846 195.39 140.786 196.85H144.266Z" fill="#284B4B"/>
<path d="M661.247 190.14C660.707 189.38 659.667 189 658.127 189C657.047 189 656.217 189.23 655.637 189.69C655.057 190.13 654.767 190.78 654.767 191.64C654.767 192.24 654.917 192.72 655.217 193.08C655.537 193.42 655.937 193.69 656.417 193.89C656.917 194.07 657.727 194.32 658.847 194.64C660.287 195.02 661.437 195.42 662.297 195.84C663.177 196.26 663.867 196.87 664.367 197.67C664.887 198.45 665.147 199.5 665.147 200.82C665.147 203.02 664.467 204.65 663.107 205.71C661.747 206.77 659.927 207.3 657.647 207.3C655.347 207.3 653.547 206.78 652.247 205.74C650.967 204.7 650.327 203.19 650.327 201.21C650.327 201.03 650.347 200.72 650.387 200.28H653.057C652.977 201.44 653.267 202.45 653.927 203.31C654.587 204.17 655.727 204.6 657.347 204.6C658.487 204.6 659.357 204.36 659.957 203.88C660.577 203.4 660.887 202.71 660.887 201.81C660.887 201.15 660.727 200.64 660.407 200.28C660.087 199.9 659.687 199.62 659.207 199.44C658.727 199.26 658.007 199.05 657.047 198.81C655.587 198.45 654.417 198.06 653.537 197.64C652.657 197.22 651.947 196.62 651.407 195.84C650.867 195.04 650.597 193.97 650.597 192.63C650.597 190.51 651.247 188.93 652.547 187.89C653.867 186.83 655.597 186.3 657.737 186.3C659.877 186.3 661.557 186.8 662.777 187.8C663.997 188.8 664.607 190.27 664.607 192.21C664.607 192.51 664.597 192.74 664.577 192.9H661.907C661.927 192.76 661.937 192.62 661.937 192.48C661.937 191.6 661.707 190.82 661.247 190.14ZM681.288 199.89H672.108C672.148 201.65 672.438 202.9 672.978 203.64C673.538 204.36 674.388 204.72 675.528 204.72C677.428 204.72 678.468 203.76 678.648 201.84L681.108 202.11C680.968 203.79 680.358 205.08 679.278 205.98C678.198 206.86 676.698 207.3 674.778 207.3C672.618 207.3 670.888 206.69 669.588 205.47C668.308 204.23 667.668 202.27 667.668 199.59C667.668 196.85 668.338 194.82 669.678 193.5C671.038 192.16 672.798 191.49 674.958 191.49C679.178 191.49 681.288 194.03 681.288 199.11V199.89ZM675.588 197.85C676.128 197.85 676.478 197.76 676.638 197.58C676.798 197.4 676.878 197.1 676.878 196.68C676.878 195.68 676.698 194.92 676.338 194.4C675.978 193.86 675.448 193.59 674.748 193.59C673.968 193.59 673.348 193.94 672.888 194.64C672.428 195.32 672.168 196.39 672.108 197.85H675.588ZM684.622 184.8H688.972V207H684.622V184.8ZM693.148 184.8H697.498V207H693.148V184.8ZM717.966 190.14C717.426 189.38 716.386 189 714.846 189C713.766 189 712.936 189.23 712.356 189.69C711.776 190.13 711.486 190.78 711.486 191.64C711.486 192.24 711.636 192.72 711.936 193.08C712.256 193.42 712.656 193.69 713.136 193.89C713.636 194.07 714.446 194.32 715.566 194.64C717.006 195.02 718.156 195.42 719.016 195.84C719.896 196.26 720.586 196.87 721.086 197.67C721.606 198.45 721.866 199.5 721.866 200.82C721.866 203.02 721.186 204.65 719.826 205.71C718.466 206.77 716.646 207.3 714.366 207.3C712.066 207.3 710.266 206.78 708.966 205.74C707.686 204.7 707.046 203.19 707.046 201.21C707.046 201.03 707.066 200.72 707.106 200.28H709.776C709.696 201.44 709.986 202.45 710.646 203.31C711.306 204.17 712.446 204.6 714.066 204.6C715.206 204.6 716.076 204.36 716.676 203.88C717.296 203.4 717.606 202.71 717.606 201.81C717.606 201.15 717.446 200.64 717.126 200.28C716.806 199.9 716.406 199.62 715.926 199.44C715.446 199.26 714.726 199.05 713.766 198.81C712.306 198.45 711.136 198.06 710.256 197.64C709.376 197.22 708.666 196.62 708.126 195.84C707.586 195.04 707.316 193.97 707.316 192.63C707.316 190.51 707.966 188.93 709.266 187.89C710.586 186.83 712.316 186.3 714.456 186.3C716.596 186.3 718.276 186.8 719.496 187.8C720.716 188.8 721.326 190.27 721.326 192.21C721.326 192.51 721.316 192.74 721.296 192.9H718.626C718.646 192.76 718.656 192.62 718.656 192.48C718.656 191.6 718.426 190.82 717.966 190.14ZM725.287 184.8H729.637V189.42H725.287V184.8ZM725.287 191.79H729.637V207H725.287V191.79ZM742.901 204.3C742.461 205.28 741.891 206.01 741.191 206.49C740.511 206.95 739.691 207.18 738.731 207.18C736.851 207.18 735.411 206.58 734.411 205.38C733.431 204.18 732.941 202.28 732.941 199.68C732.941 196.9 733.491 194.86 734.591 193.56C735.691 192.26 737.141 191.61 738.941 191.61C739.921 191.61 740.681 191.81 741.221 192.21C741.781 192.61 742.271 193.26 742.691 194.16V184.8H747.041V207H743.771L742.901 204.3ZM742.691 199.32C742.691 197.76 742.471 196.51 742.031 195.57C741.591 194.63 740.911 194.16 739.991 194.16C739.131 194.16 738.491 194.6 738.071 195.48C737.671 196.36 737.471 197.71 737.471 199.53C737.471 201.27 737.651 202.56 738.011 203.4C738.391 204.22 739.011 204.63 739.871 204.63C740.791 204.63 741.491 204.16 741.971 203.22C742.451 202.26 742.691 200.96 742.691 199.32ZM763.964 199.89H754.784C754.824 201.65 755.114 202.9 755.654 203.64C756.214 204.36 757.064 204.72 758.204 204.72C760.104 204.72 761.144 203.76 761.324 201.84L763.784 202.11C763.644 203.79 763.034 205.08 761.954 205.98C760.874 206.86 759.374 207.3 757.454 207.3C755.294 207.3 753.564 206.69 752.264 205.47C750.984 204.23 750.344 202.27 750.344 199.59C750.344 196.85 751.014 194.82 752.354 193.5C753.714 192.16 755.474 191.49 757.634 191.49C761.854 191.49 763.964 194.03 763.964 199.11V199.89ZM758.264 197.85C758.804 197.85 759.154 197.76 759.314 197.58C759.474 197.4 759.554 197.1 759.554 196.68C759.554 195.68 759.374 194.92 759.014 194.4C758.654 193.86 758.124 193.59 757.424 193.59C756.644 193.59 756.024 193.94 755.564 194.64C755.104 195.32 754.844 196.39 754.784 197.85H758.264Z" fill="#284B4B"/>
<path d="M375.855 166.6V187H371.805V174.7L372.045 169.51L367.065 186.1H364.605L360.825 174.25L359.715 169.48L359.835 174.4V187H356.835V166.6H362.625L366.525 178.99L370.215 166.6H375.855ZM391.664 182.8C391.664 183.44 391.724 183.92 391.844 184.24C391.984 184.56 392.194 184.77 392.474 184.87C392.754 184.97 393.174 185.02 393.734 185.02V186.94C393.174 187.06 392.444 187.12 391.544 187.12C390.404 187.12 389.564 186.92 389.024 186.52C388.504 186.1 388.174 185.42 388.034 184.48H387.794C386.994 186.26 385.534 187.15 383.414 187.15C381.974 187.15 380.894 186.78 380.174 186.04C379.474 185.3 379.124 184.31 379.124 183.07C379.124 181.79 379.474 180.8 380.174 180.1C380.894 179.4 381.824 178.91 382.964 178.63C384.124 178.35 385.614 178.14 387.434 178V176.65C387.434 175.97 387.384 175.44 387.284 175.06C387.184 174.68 386.964 174.4 386.624 174.22C386.304 174.02 385.814 173.92 385.154 173.92C384.154 173.92 383.444 174.13 383.024 174.55C382.604 174.95 382.394 175.52 382.394 176.26C382.394 176.42 382.414 176.68 382.454 177.04H379.904C379.824 176.58 379.784 176.12 379.784 175.66C379.784 174.16 380.314 173.09 381.374 172.45C382.434 171.81 383.994 171.49 386.054 171.49C387.474 171.49 388.584 171.64 389.384 171.94C390.204 172.24 390.784 172.73 391.124 173.41C391.484 174.09 391.664 175.02 391.664 176.2V182.8ZM385.154 184.87C385.774 184.87 386.304 184.61 386.744 184.09C387.204 183.55 387.434 182.8 387.434 181.84V179.56C385.954 179.76 384.924 180.08 384.344 180.52C383.784 180.96 383.504 181.66 383.504 182.62C383.504 184.12 384.054 184.87 385.154 184.87ZM396.027 171.79H400.377V174.97C400.837 173.73 401.457 172.87 402.237 172.39C403.017 171.89 403.987 171.64 405.147 171.64V175.42C404.707 175.38 404.397 175.36 404.217 175.36C402.837 175.36 401.847 175.72 401.247 176.44C400.667 177.16 400.377 178.31 400.377 179.89V187H396.027V171.79ZM412.495 179.95H411.715V187H407.365V164.8H411.715V178.39H411.835C412.175 178.39 412.435 178.34 412.615 178.24C412.795 178.12 413.055 177.83 413.395 177.37L417.685 171.79H421.345L416.275 177.79L421.645 187H416.575L412.495 179.95ZM436.11 179.89H426.93C426.97 181.65 427.26 182.9 427.8 183.64C428.36 184.36 429.21 184.72 430.35 184.72C432.25 184.72 433.29 183.76 433.47 181.84L435.93 182.11C435.79 183.79 435.18 185.08 434.1 185.98C433.02 186.86 431.52 187.3 429.6 187.3C427.44 187.3 425.71 186.69 424.41 185.47C423.13 184.23 422.49 182.27 422.49 179.59C422.49 176.85 423.16 174.82 424.5 173.5C425.86 172.16 427.62 171.49 429.78 171.49C434 171.49 436.11 174.03 436.11 179.11V179.89ZM430.41 177.85C430.95 177.85 431.3 177.76 431.46 177.58C431.62 177.4 431.7 177.1 431.7 176.68C431.7 175.68 431.52 174.92 431.16 174.4C430.8 173.86 430.27 173.59 429.57 173.59C428.79 173.59 428.17 173.94 427.71 174.64C427.25 175.32 426.99 176.39 426.93 177.85H430.41ZM446.83 184.6C447.23 184.6 447.69 184.58 448.21 184.54V186.85C447.73 186.93 447.15 186.99 446.47 187.03C445.81 187.07 445.27 187.09 444.85 187.09C443.17 187.09 441.9 186.7 441.04 185.92C440.18 185.14 439.75 183.79 439.75 181.87V174.4H437.44V171.94H439.75V167.02H444.1V171.94H447.97V174.4H444.1V181.27C444.1 182.19 444.17 182.88 444.31 183.34C444.47 183.8 444.74 184.13 445.12 184.33C445.5 184.51 446.07 184.6 446.83 184.6ZM309.886 196.6H314.356V217H309.886V196.6ZM327.635 207.16C327.635 206.06 327.495 205.32 327.215 204.94C326.935 204.56 326.495 204.37 325.895 204.37C325.015 204.37 324.335 204.75 323.855 205.51C323.395 206.27 323.165 207.28 323.165 208.54V217H318.815V201.79H323.165V204.25C323.665 203.33 324.255 202.66 324.935 202.24C325.635 201.82 326.555 201.61 327.695 201.61C329.195 201.61 330.285 201.97 330.965 202.69C331.665 203.41 332.015 204.52 332.015 206.02V217H327.635V207.16ZM343.451 197.38C342.591 197.38 341.951 197.62 341.531 198.1C341.131 198.58 340.931 199.42 340.931 200.62V201.94H344.561V204.4H340.931V217H336.581V204.4H334.271V201.94H336.581V200.89C336.581 196.77 338.461 194.71 342.221 194.71C343.361 194.71 344.411 194.8 345.371 194.98V197.62C344.611 197.46 343.971 197.38 343.451 197.38ZM346.53 201.79H350.88V204.97C351.34 203.73 351.96 202.87 352.74 202.39C353.52 201.89 354.49 201.64 355.65 201.64V205.42C355.21 205.38 354.9 205.36 354.72 205.36C353.34 205.36 352.35 205.72 351.75 206.44C351.17 207.16 350.88 208.31 350.88 209.89V217H346.53V201.79ZM369.032 212.8C369.032 213.44 369.092 213.92 369.212 214.24C369.352 214.56 369.562 214.77 369.842 214.87C370.122 214.97 370.542 215.02 371.102 215.02V216.94C370.542 217.06 369.812 217.12 368.912 217.12C367.772 217.12 366.932 216.92 366.392 216.52C365.872 216.1 365.542 215.42 365.402 214.48H365.162C364.362 216.26 362.902 217.15 360.782 217.15C359.342 217.15 358.262 216.78 357.542 216.04C356.842 215.3 356.492 214.31 356.492 213.07C356.492 211.79 356.842 210.8 357.542 210.1C358.262 209.4 359.192 208.91 360.332 208.63C361.492 208.35 362.982 208.14 364.802 208V206.65C364.802 205.97 364.752 205.44 364.652 205.06C364.552 204.68 364.332 204.4 363.992 204.22C363.672 204.02 363.182 203.92 362.522 203.92C361.522 203.92 360.812 204.13 360.392 204.55C359.972 204.95 359.762 205.52 359.762 206.26C359.762 206.42 359.782 206.68 359.822 207.04H357.272C357.192 206.58 357.152 206.12 357.152 205.66C357.152 204.16 357.682 203.09 358.742 202.45C359.802 201.81 361.362 201.49 363.422 201.49C364.842 201.49 365.952 201.64 366.752 201.94C367.572 202.24 368.152 202.73 368.492 203.41C368.852 204.09 369.032 205.02 369.032 206.2V212.8ZM362.522 214.87C363.142 214.87 363.672 214.61 364.112 214.09C364.572 213.55 364.802 212.8 364.802 211.84V209.56C363.322 209.76 362.292 210.08 361.712 210.52C361.152 210.96 360.872 211.66 360.872 212.62C360.872 214.12 361.422 214.87 362.522 214.87ZM378.675 203.74C377.835 203.74 377.195 203.89 376.755 204.19C376.335 204.47 376.125 204.87 376.125 205.39C376.125 205.87 376.335 206.25 376.755 206.53C377.195 206.79 377.965 207.06 379.065 207.34C380.385 207.68 381.385 208 382.065 208.3C382.745 208.58 383.305 209.03 383.745 209.65C384.185 210.25 384.405 211.1 384.405 212.2C384.405 213.98 383.855 215.28 382.755 216.1C381.675 216.9 380.165 217.3 378.225 217.3C376.325 217.3 374.855 216.92 373.815 216.16C372.795 215.38 372.285 214.2 372.285 212.62L372.315 212.05H374.775C374.755 212.19 374.745 212.32 374.745 212.44C374.745 214.18 375.815 215.05 377.955 215.05C378.915 215.05 379.615 214.89 380.055 214.57C380.515 214.23 380.745 213.78 380.745 213.22C380.745 212.74 380.565 212.39 380.205 212.17C379.845 211.95 379.135 211.7 378.075 211.42C376.695 211.06 375.625 210.71 374.865 210.37C374.105 210.03 373.515 209.57 373.095 208.99C372.695 208.39 372.495 207.57 372.495 206.53C372.495 204.79 373.015 203.52 374.055 202.72C375.115 201.9 376.585 201.49 378.465 201.49C380.185 201.49 381.535 201.84 382.515 202.54C383.495 203.24 383.985 204.36 383.985 205.9L383.955 206.44H381.525C381.545 206.32 381.555 206.19 381.555 206.05C381.555 204.51 380.595 203.74 378.675 203.74ZM395.077 214.6C395.477 214.6 395.937 214.58 396.457 214.54V216.85C395.977 216.93 395.397 216.99 394.717 217.03C394.057 217.07 393.517 217.09 393.097 217.09C391.417 217.09 390.147 216.7 389.287 215.92C388.427 215.14 387.997 213.79 387.997 211.87V204.4H385.687V201.94H387.997V197.02H392.347V201.94H396.217V204.4H392.347V211.27C392.347 212.19 392.417 212.88 392.557 213.34C392.717 213.8 392.987 214.13 393.367 214.33C393.747 214.51 394.317 214.6 395.077 214.6ZM398.913 201.79H403.263V204.97C403.723 203.73 404.343 202.87 405.123 202.39C405.903 201.89 406.873 201.64 408.033 201.64V205.42C407.593 205.38 407.283 205.36 407.103 205.36C405.723 205.36 404.733 205.72 404.133 206.44C403.553 207.16 403.263 208.31 403.263 209.89V217H398.913V201.79ZM418.92 214.45C418.44 215.39 417.86 216.08 417.18 216.52C416.5 216.96 415.55 217.18 414.33 217.18C412.85 217.18 411.77 216.82 411.09 216.1C410.43 215.38 410.1 214.27 410.1 212.77V201.79H414.45V211.63C414.45 212.71 414.59 213.45 414.87 213.85C415.15 214.23 415.56 214.42 416.1 214.42C416.96 214.42 417.62 214.04 418.08 213.28C418.56 212.52 418.8 211.5 418.8 210.22V201.79H423.15V217H419.46L418.92 214.45ZM439.33 211.69C439.33 213.41 438.82 214.78 437.8 215.8C436.8 216.8 435.33 217.3 433.39 217.3C431.31 217.3 429.63 216.68 428.35 215.44C427.09 214.18 426.46 212.2 426.46 209.5C426.46 206.68 427.13 204.64 428.47 203.38C429.83 202.12 431.58 201.49 433.72 201.49C435.68 201.49 437.09 201.96 437.95 202.9C438.83 203.84 439.27 205.1 439.27 206.68C439.27 207 439.26 207.24 439.24 207.4H436.72C436.74 207.22 436.75 207.05 436.75 206.89C436.75 204.99 435.89 204.04 434.17 204.04C433.03 204.04 432.22 204.49 431.74 205.39C431.26 206.27 431.02 207.58 431.02 209.32C431.02 211.14 431.26 212.49 431.74 213.37C432.24 214.23 433.04 214.66 434.14 214.66C435.9 214.66 436.81 213.57 436.87 211.39L439.33 211.69ZM449.833 214.6C450.233 214.6 450.693 214.58 451.213 214.54V216.85C450.733 216.93 450.153 216.99 449.473 217.03C448.813 217.07 448.273 217.09 447.853 217.09C446.173 217.09 444.903 216.7 444.043 215.92C443.183 215.14 442.753 213.79 442.753 211.87V204.4H440.443V201.94H442.753V197.02H447.103V201.94H450.973V204.4H447.103V211.27C447.103 212.19 447.173 212.88 447.313 213.34C447.473 213.8 447.743 214.13 448.123 214.33C448.503 214.51 449.073 214.6 449.833 214.6ZM462.338 214.45C461.858 215.39 461.278 216.08 460.598 216.52C459.918 216.96 458.968 217.18 457.748 217.18C456.268 217.18 455.188 216.82 454.508 216.1C453.848 215.38 453.518 214.27 453.518 212.77V201.79H457.868V211.63C457.868 212.71 458.008 213.45 458.288 213.85C458.568 214.23 458.978 214.42 459.518 214.42C460.378 214.42 461.038 214.04 461.498 213.28C461.978 212.52 462.218 211.5 462.218 210.22V201.79H466.568V217H462.878L462.338 214.45ZM470.778 201.79H475.128V204.97C475.588 203.73 476.208 202.87 476.988 202.39C477.768 201.89 478.738 201.64 479.898 201.64V205.42C479.458 205.38 479.148 205.36 478.968 205.36C477.588 205.36 476.598 205.72 475.998 206.44C475.418 207.16 475.128 208.31 475.128 209.89V217H470.778V201.79ZM494.484 209.89H485.304C485.344 211.65 485.634 212.9 486.174 213.64C486.734 214.36 487.584 214.72 488.724 214.72C490.624 214.72 491.664 213.76 491.844 211.84L494.304 212.11C494.164 213.79 493.554 215.08 492.474 215.98C491.394 216.86 489.894 217.3 487.974 217.3C485.814 217.3 484.084 216.69 482.784 215.47C481.504 214.23 480.864 212.27 480.864 209.59C480.864 206.85 481.534 204.82 482.874 203.5C484.234 202.16 485.994 201.49 488.154 201.49C492.374 201.49 494.484 204.03 494.484 209.11V209.89ZM488.784 207.85C489.324 207.85 489.674 207.76 489.834 207.58C489.994 207.4 490.074 207.1 490.074 206.68C490.074 205.68 489.894 204.92 489.534 204.4C489.174 203.86 488.644 203.59 487.944 203.59C487.164 203.59 486.544 203.94 486.084 204.64C485.624 205.32 485.364 206.39 485.304 207.85H488.784Z" fill="#284B4B"/>
<rect x="322" width="159" height="54" rx="10" fill="#284B4B"/>
<rect x="322" y="349" width="159" height="54" rx="10" fill="#284B4B"/>
<path d="M348.41 16.26C349.35 16.7 350.08 17.41 350.6 18.39C351.14 19.35 351.41 20.45 351.41 21.69C351.41 23.73 350.73 25.28 349.37 26.34C348.03 27.4 346.28 27.93 344.12 27.93H341.87V36H337.4V15.6H344.06C346.06 15.6 347.51 15.82 348.41 16.26ZM343.79 25.17C345.83 25.17 346.85 23.94 346.85 21.48C346.85 20.16 346.54 19.25 345.92 18.75C345.48 18.43 344.85 18.27 344.03 18.27H341.87V25.17H343.79ZM364.934 31.8C364.934 32.44 364.994 32.92 365.114 33.24C365.254 33.56 365.464 33.77 365.744 33.87C366.024 33.97 366.444 34.02 367.004 34.02V35.94C366.444 36.06 365.714 36.12 364.814 36.12C363.674 36.12 362.834 35.92 362.294 35.52C361.774 35.1 361.444 34.42 361.304 33.48H361.064C360.264 35.26 358.804 36.15 356.684 36.15C355.244 36.15 354.164 35.78 353.444 35.04C352.744 34.3 352.394 33.31 352.394 32.07C352.394 30.79 352.744 29.8 353.444 29.1C354.164 28.4 355.094 27.91 356.234 27.63C357.394 27.35 358.884 27.14 360.704 27V25.65C360.704 24.97 360.654 24.44 360.554 24.06C360.454 23.68 360.234 23.4 359.894 23.22C359.574 23.02 359.084 22.92 358.424 22.92C357.424 22.92 356.714 23.13 356.294 23.55C355.874 23.95 355.664 24.52 355.664 25.26C355.664 25.42 355.684 25.68 355.724 26.04H353.174C353.094 25.58 353.054 25.12 353.054 24.66C353.054 23.16 353.584 22.09 354.644 21.45C355.704 20.81 357.264 20.49 359.324 20.49C360.744 20.49 361.854 20.64 362.654 20.94C363.474 21.24 364.054 21.73 364.394 22.41C364.754 23.09 364.934 24.02 364.934 25.2V31.8ZM358.424 33.87C359.044 33.87 359.574 33.61 360.014 33.09C360.474 32.55 360.704 31.8 360.704 30.84V28.56C359.224 28.76 358.194 29.08 357.614 29.52C357.054 29.96 356.774 30.66 356.774 31.62C356.774 33.12 357.324 33.87 358.424 33.87ZM381.516 20.79L373.536 42.96H369.876C370.876 40.88 371.646 39.07 372.186 37.53C372.326 37.13 372.396 36.72 372.396 36.3C372.396 35.74 372.236 35.04 371.916 34.2L366.876 20.79H371.556L374.136 27.87L375.006 31.32L375.846 27.87L378.336 20.79H381.516ZM401.292 20.61C402.792 20.61 403.872 20.97 404.532 21.69C405.212 22.41 405.552 23.52 405.552 25.02V36H401.172V26.16C401.172 25.06 401.032 24.32 400.752 23.94C400.492 23.56 400.072 23.37 399.492 23.37C398.632 23.37 397.962 23.75 397.482 24.51C397.022 25.25 396.792 26.26 396.792 27.54V36H392.412V25.92C392.412 25.18 392.342 24.63 392.202 24.27C392.082 23.89 391.902 23.65 391.662 23.55C391.442 23.43 391.132 23.37 390.732 23.37C389.872 23.37 389.202 23.75 388.722 24.51C388.262 25.27 388.032 26.28 388.032 27.54V36H383.682V20.79H388.032V23.25C388.532 22.35 389.122 21.69 389.802 21.27C390.502 20.83 391.402 20.61 392.502 20.61C393.702 20.61 394.632 20.84 395.292 21.3C395.952 21.76 396.392 22.45 396.612 23.37C397.212 22.39 397.872 21.69 398.592 21.27C399.332 20.83 400.232 20.61 401.292 20.61ZM422.33 28.89H413.15C413.19 30.65 413.48 31.9 414.02 32.64C414.58 33.36 415.43 33.72 416.57 33.72C418.47 33.72 419.51 32.76 419.69 30.84L422.15 31.11C422.01 32.79 421.4 34.08 420.32 34.98C419.24 35.86 417.74 36.3 415.82 36.3C413.66 36.3 411.93 35.69 410.63 34.47C409.35 33.23 408.71 31.27 408.71 28.59C408.71 25.85 409.38 23.82 410.72 22.5C412.08 21.16 413.84 20.49 416 20.49C420.22 20.49 422.33 23.03 422.33 28.11V28.89ZM416.63 26.85C417.17 26.85 417.52 26.76 417.68 26.58C417.84 26.4 417.92 26.1 417.92 25.68C417.92 24.68 417.74 23.92 417.38 23.4C417.02 22.86 416.49 22.59 415.79 22.59C415.01 22.59 414.39 22.94 413.93 23.64C413.47 24.32 413.21 25.39 413.15 26.85H416.63ZM434.279 26.16C434.279 25.06 434.139 24.32 433.859 23.94C433.579 23.56 433.139 23.37 432.539 23.37C431.659 23.37 430.979 23.75 430.499 24.51C430.039 25.27 429.809 26.28 429.809 27.54V36H425.459V20.79H429.809V23.25C430.309 22.33 430.899 21.66 431.579 21.24C432.279 20.82 433.199 20.61 434.339 20.61C435.839 20.61 436.929 20.97 437.609 21.69C438.309 22.41 438.659 23.52 438.659 25.02V36H434.279V26.16ZM450.276 33.6C450.676 33.6 451.136 33.58 451.656 33.54V35.85C451.176 35.93 450.596 35.99 449.916 36.03C449.256 36.07 448.716 36.09 448.296 36.09C446.616 36.09 445.346 35.7 444.486 34.92C443.626 34.14 443.196 32.79 443.196 30.87V23.4H440.886V20.94H443.196V16.02H447.546V20.94H451.416V23.4H447.546V30.27C447.546 31.19 447.616 31.88 447.756 32.34C447.916 32.8 448.186 33.13 448.566 33.33C448.946 33.51 449.516 33.6 450.276 33.6ZM459.392 22.74C458.552 22.74 457.912 22.89 457.472 23.19C457.052 23.47 456.842 23.87 456.842 24.39C456.842 24.87 457.052 25.25 457.472 25.53C457.912 25.79 458.682 26.06 459.782 26.34C461.102 26.68 462.102 27 462.782 27.3C463.462 27.58 464.022 28.03 464.462 28.65C464.902 29.25 465.122 30.1 465.122 31.2C465.122 32.98 464.572 34.28 463.472 35.1C462.392 35.9 460.882 36.3 458.942 36.3C457.042 36.3 455.572 35.92 454.532 35.16C453.512 34.38 453.002 33.2 453.002 31.62L453.032 31.05H455.492C455.472 31.19 455.462 31.32 455.462 31.44C455.462 33.18 456.532 34.05 458.672 34.05C459.632 34.05 460.332 33.89 460.772 33.57C461.232 33.23 461.462 32.78 461.462 32.22C461.462 31.74 461.282 31.39 460.922 31.17C460.562 30.95 459.852 30.7 458.792 30.42C457.412 30.06 456.342 29.71 455.582 29.37C454.822 29.03 454.232 28.57 453.812 27.99C453.412 27.39 453.212 26.57 453.212 25.53C453.212 23.79 453.732 22.52 454.772 21.72C455.832 20.9 457.302 20.49 459.182 20.49C460.902 20.49 462.252 20.84 463.232 21.54C464.212 22.24 464.702 23.36 464.702 24.9L464.672 25.44H462.242C462.262 25.32 462.272 25.19 462.272 25.05C462.272 23.51 461.312 22.74 459.392 22.74Z" fill="#7DF9FF"/>
<path d="M348.41 365.26C349.35 365.7 350.08 366.41 350.6 367.39C351.14 368.35 351.41 369.45 351.41 370.69C351.41 372.73 350.73 374.28 349.37 375.34C348.03 376.4 346.28 376.93 344.12 376.93H341.87V385H337.4V364.6H344.06C346.06 364.6 347.51 364.82 348.41 365.26ZM343.79 374.17C345.83 374.17 346.85 372.94 346.85 370.48C346.85 369.16 346.54 368.25 345.92 367.75C345.48 367.43 344.85 367.27 344.03 367.27H341.87V374.17H343.79ZM364.934 380.8C364.934 381.44 364.994 381.92 365.114 382.24C365.254 382.56 365.464 382.77 365.744 382.87C366.024 382.97 366.444 383.02 367.004 383.02V384.94C366.444 385.06 365.714 385.12 364.814 385.12C363.674 385.12 362.834 384.92 362.294 384.52C361.774 384.1 361.444 383.42 361.304 382.48H361.064C360.264 384.26 358.804 385.15 356.684 385.15C355.244 385.15 354.164 384.78 353.444 384.04C352.744 383.3 352.394 382.31 352.394 381.07C352.394 379.79 352.744 378.8 353.444 378.1C354.164 377.4 355.094 376.91 356.234 376.63C357.394 376.35 358.884 376.14 360.704 376V374.65C360.704 373.97 360.654 373.44 360.554 373.06C360.454 372.68 360.234 372.4 359.894 372.22C359.574 372.02 359.084 371.92 358.424 371.92C357.424 371.92 356.714 372.13 356.294 372.55C355.874 372.95 355.664 373.52 355.664 374.26C355.664 374.42 355.684 374.68 355.724 375.04H353.174C353.094 374.58 353.054 374.12 353.054 373.66C353.054 372.16 353.584 371.09 354.644 370.45C355.704 369.81 357.264 369.49 359.324 369.49C360.744 369.49 361.854 369.64 362.654 369.94C363.474 370.24 364.054 370.73 364.394 371.41C364.754 372.09 364.934 373.02 364.934 374.2V380.8ZM358.424 382.87C359.044 382.87 359.574 382.61 360.014 382.09C360.474 381.55 360.704 380.8 360.704 379.84V377.56C359.224 377.76 358.194 378.08 357.614 378.52C357.054 378.96 356.774 379.66 356.774 380.62C356.774 382.12 357.324 382.87 358.424 382.87ZM381.516 369.79L373.536 391.96H369.876C370.876 389.88 371.646 388.07 372.186 386.53C372.326 386.13 372.396 385.72 372.396 385.3C372.396 384.74 372.236 384.04 371.916 383.2L366.876 369.79H371.556L374.136 376.87L375.006 380.32L375.846 376.87L378.336 369.79H381.516ZM401.292 369.61C402.792 369.61 403.872 369.97 404.532 370.69C405.212 371.41 405.552 372.52 405.552 374.02V385H401.172V375.16C401.172 374.06 401.032 373.32 400.752 372.94C400.492 372.56 400.072 372.37 399.492 372.37C398.632 372.37 397.962 372.75 397.482 373.51C397.022 374.25 396.792 375.26 396.792 376.54V385H392.412V374.92C392.412 374.18 392.342 373.63 392.202 373.27C392.082 372.89 391.902 372.65 391.662 372.55C391.442 372.43 391.132 372.37 390.732 372.37C389.872 372.37 389.202 372.75 388.722 373.51C388.262 374.27 388.032 375.28 388.032 376.54V385H383.682V369.79H388.032V372.25C388.532 371.35 389.122 370.69 389.802 370.27C390.502 369.83 391.402 369.61 392.502 369.61C393.702 369.61 394.632 369.84 395.292 370.3C395.952 370.76 396.392 371.45 396.612 372.37C397.212 371.39 397.872 370.69 398.592 370.27C399.332 369.83 400.232 369.61 401.292 369.61ZM422.33 377.89H413.15C413.19 379.65 413.48 380.9 414.02 381.64C414.58 382.36 415.43 382.72 416.57 382.72C418.47 382.72 419.51 381.76 419.69 379.84L422.15 380.11C422.01 381.79 421.4 383.08 420.32 383.98C419.24 384.86 417.74 385.3 415.82 385.3C413.66 385.3 411.93 384.69 410.63 383.47C409.35 382.23 408.71 380.27 408.71 377.59C408.71 374.85 409.38 372.82 410.72 371.5C412.08 370.16 413.84 369.49 416 369.49C420.22 369.49 422.33 372.03 422.33 377.11V377.89ZM416.63 375.85C417.17 375.85 417.52 375.76 417.68 375.58C417.84 375.4 417.92 375.1 417.92 374.68C417.92 373.68 417.74 372.92 417.38 372.4C417.02 371.86 416.49 371.59 415.79 371.59C415.01 371.59 414.39 371.94 413.93 372.64C413.47 373.32 413.21 374.39 413.15 375.85H416.63ZM434.279 375.16C434.279 374.06 434.139 373.32 433.859 372.94C433.579 372.56 433.139 372.37 432.539 372.37C431.659 372.37 430.979 372.75 430.499 373.51C430.039 374.27 429.809 375.28 429.809 376.54V385H425.459V369.79H429.809V372.25C430.309 371.33 430.899 370.66 431.579 370.24C432.279 369.82 433.199 369.61 434.339 369.61C435.839 369.61 436.929 369.97 437.609 370.69C438.309 371.41 438.659 372.52 438.659 374.02V385H434.279V375.16ZM450.276 382.6C450.676 382.6 451.136 382.58 451.656 382.54V384.85C451.176 384.93 450.596 384.99 449.916 385.03C449.256 385.07 448.716 385.09 448.296 385.09C446.616 385.09 445.346 384.7 444.486 383.92C443.626 383.14 443.196 381.79 443.196 379.87V372.4H440.886V369.94H443.196V365.02H447.546V369.94H451.416V372.4H447.546V379.27C447.546 380.19 447.616 380.88 447.756 381.34C447.916 381.8 448.186 382.13 448.566 382.33C448.946 382.51 449.516 382.6 450.276 382.6ZM459.392 371.74C458.552 371.74 457.912 371.89 457.472 372.19C457.052 372.47 456.842 372.87 456.842 373.39C456.842 373.87 457.052 374.25 457.472 374.53C457.912 374.79 458.682 375.06 459.782 375.34C461.102 375.68 462.102 376 462.782 376.3C463.462 376.58 464.022 377.03 464.462 377.65C464.902 378.25 465.122 379.1 465.122 380.2C465.122 381.98 464.572 383.28 463.472 384.1C462.392 384.9 460.882 385.3 458.942 385.3C457.042 385.3 455.572 384.92 454.532 384.16C453.512 383.38 453.002 382.2 453.002 380.62L453.032 380.05H455.492C455.472 380.19 455.462 380.32 455.462 380.44C455.462 382.18 456.532 383.05 458.672 383.05C459.632 383.05 460.332 382.89 460.772 382.57C461.232 382.23 461.462 381.78 461.462 381.22C461.462 380.74 461.282 380.39 460.922 380.17C460.562 379.95 459.852 379.7 458.792 379.42C457.412 379.06 456.342 378.71 455.582 378.37C454.822 378.03 454.232 377.57 453.812 376.99C453.412 376.39 453.212 375.57 453.212 374.53C453.212 372.79 453.732 371.52 454.772 370.72C455.832 369.9 457.302 369.49 459.182 369.49C460.902 369.49 462.252 369.84 463.232 370.54C464.212 371.24 464.702 372.36 464.702 373.9L464.672 374.44H462.242C462.262 374.32 462.272 374.19 462.272 374.05C462.272 372.51 461.312 371.74 459.392 371.74Z" fill="#7DF9FF"/>
<line x1="256" y1="198" x2="192" y2="198" stroke="#BEFCFF" stroke-width="2" stroke-dasharray="2 2"/>
<line x1="201.707" y1="187.707" x2="191.707" y2="197.707" stroke="#BEFCFF" stroke-width="2" stroke-dasharray="2 2"/>
<line y1="-1" x2="14.1421" y2="-1" transform="matrix(-0.707107 -0.707107 -0.707107 0.707107 201 207)" stroke="#BEFCFF" stroke-width="2" stroke-dasharray="2 2"/>
<line x1="93.464" y1="144.741" x2="99.6995" y2="168.013" stroke="#BEFCFF" stroke-width="2" stroke-dasharray="2 2"/>
<line y1="-1" x2="24.0923" y2="-1" transform="matrix(-0.965926 0.258819 0.258819 0.965926 122.006 162.036)" stroke="#BEFCFF" stroke-width="2" stroke-dasharray="2 2"/>
<line x1="119.82" y1="239.322" x2="98.9558" y2="227.275" stroke="#BEFCFF" stroke-width="2" stroke-dasharray="2 2"/>
<line y1="-1" x2="24.0923" y2="-1" transform="matrix(0.5 -0.866025 -0.866025 -0.5 87.4082 247.273)" stroke="#BEFCFF" stroke-width="2" stroke-dasharray="2 2"/>
<line x1="710.101" y1="249.923" x2="701.607" y2="227.378" stroke="#BEFCFF" stroke-width="2" stroke-dasharray="2 2"/>
<line y1="-1" x2="24.0923" y2="-1" transform="matrix(0.935779 -0.352586 -0.352586 -0.935779 679.998 235.52)" stroke="#BEFCFF" stroke-width="2" stroke-dasharray="2 2"/>
<line x1="245.293" y1="206.293" x2="255.293" y2="196.293" stroke="#BEFCFF" stroke-width="2" stroke-dasharray="2 2"/>
<line y1="-1" x2="14.1421" y2="-1" transform="matrix(0.707107 0.707107 0.707107 -0.707107 246 187)" stroke="#BEFCFF" stroke-width="2" stroke-dasharray="2 2"/>
<line x1="611" y1="198" x2="547" y2="198" stroke="#BEFCFF" stroke-width="2" stroke-dasharray="2 2"/>
<line x1="556.707" y1="187.707" x2="546.707" y2="197.707" stroke="#BEFCFF" stroke-width="2" stroke-dasharray="2 2"/>
<line y1="-1" x2="14.1421" y2="-1" transform="matrix(-0.707107 -0.707107 -0.707107 0.707107 556 207)" stroke="#BEFCFF" stroke-width="2" stroke-dasharray="2 2"/>
<line x1="600.293" y1="206.293" x2="610.293" y2="196.293" stroke="#BEFCFF" stroke-width="2" stroke-dasharray="2 2"/>
<line y1="-1" x2="14.1421" y2="-1" transform="matrix(0.707107 0.707107 0.707107 -0.707107 601 187)" stroke="#BEFCFF" stroke-width="2" stroke-dasharray="2 2"/>
</svg>
